DaiBannaSIL-Light.ufo
<glyph name="exclam" format="2">
  <advance width="412"/>
  <unicode hex="0021"/>
  <outline>
    <contour>
      <point x="167" y="251" type="line" smooth="yes"/>
      <point x="169" y="232"/>
      <point x="204" y="232"/>
      <point x="206" y="251" type="curve" smooth="yes"/>
      <point x="257" y="762" type="line" smooth="yes"/>
      <point x="259" y="783"/>
      <point x="260" y="888"/>
      <point x="260" y="924" type="curve" smooth="yes"/>
      <point x="260" y="955"/>
      <point x="242" y="967"/>
      <point x="188" y="967" type="curve" smooth="yes"/>
      <point x="135" y="967"/>
      <point x="114" y="957"/>
      <point x="114" y="924" type="curve" smooth="yes"/>
      <point x="114" y="888"/>
      <point x="116" y="799"/>
      <point x="119" y="762" type="curve" smooth="yes"/>
    </contour>
    <contour>
      <point x="188" y="-21" type="curve" smooth="yes"/>
      <point x="231" y="-21"/>
      <point x="268" y="21"/>
      <point x="268" y="86" type="curve" smooth="yes" name="hr01"/>
      <point x="268" y="151"/>
      <point x="226" y="190"/>
      <point x="188" y="190" type="curve" smooth="yes"/>
      <point x="150" y="190"/>
      <point x="110" y="154"/>
      <point x="110" y="86" type="curve" smooth="yes"/>
      <point x="110" y="23"/>
      <point x="143" y="-21"/>
    </contour>
  </outline>
</glyph>
<glyph name="quotedbl" format="2">
  <advance width="909"/>
  <unicode hex="0022"/>
  <outline>
    <contour>
      <point x="618" y="830" type="line" smooth="yes"/>
      <point x="620" y="816"/>
      <point x="670" y="814"/>
      <point x="673" y="830" type="curve" smooth="yes"/>
      <point x="724" y="1154" type="line" smooth="yes"/>
      <point x="741" y="1264"/>
      <point x="748" y="1308"/>
      <point x="748" y="1339" type="curve" smooth="yes"/>
      <point x="748" y="1403"/>
      <point x="717" y="1457"/>
      <point x="647" y="1457" type="curve" smooth="yes"/>
      <point x="575" y="1457"/>
      <point x="544" y="1417"/>
      <point x="544" y="1323" type="curve" smooth="yes"/>
      <point x="544" y="1288"/>
      <point x="556" y="1248"/>
      <point x="570" y="1154" type="curve" smooth="yes"/>
    </contour>
    <contour>
      <point x="228" y="830" type="line" smooth="yes"/>
      <point x="230" y="816"/>
      <point x="280" y="814"/>
      <point x="283" y="830" type="curve" smooth="yes"/>
      <point x="334" y="1154" type="line" smooth="yes"/>
      <point x="351" y="1264"/>
      <point x="358" y="1308"/>
      <point x="358" y="1339" type="curve" smooth="yes"/>
      <point x="358" y="1403"/>
      <point x="327" y="1457"/>
      <point x="257" y="1457" type="curve" smooth="yes"/>
      <point x="185" y="1457"/>
      <point x="154" y="1417"/>
      <point x="154" y="1323" type="curve" smooth="yes"/>
      <point x="154" y="1288"/>
      <point x="166" y="1248"/>
      <point x="180" y="1154" type="curve" smooth="yes"/>
    </contour>
  </outline>
</glyph>
<glyph name="parenleft" format="2">
  <advance width="705"/>
  <unicode hex="0028"/>
  <outline>
    <contour>
      <point x="808" y="-615" type="curve" smooth="yes"/>
      <point x="818" y="-607"/>
      <point x="808" y="-589"/>
      <point x="734" y="-560" type="curve" smooth="yes"/>
      <point x="570" y="-496"/>
      <point x="303" y="-141"/>
      <point x="303" y="482" type="curve" smooth="yes"/>
      <point x="303" y="1106"/>
      <point x="578" y="1459"/>
      <point x="734" y="1540" type="curve" smooth="yes"/>
      <point x="805" y="1577"/>
      <point x="819" y="1596"/>
      <point x="808" y="1602" type="curve" smooth="yes"/>
      <point x="791" y="1612"/>
      <point x="737" y="1602"/>
      <point x="681" y="1571" type="curve" smooth="yes"/>
      <point x="445" y="1439"/>
      <point x="161" y="1150"/>
      <point x="161" y="473" type="curve" smooth="yes"/>
      <point x="161" y="-168"/>
      <point x="433" y="-494"/>
      <point x="681" y="-601" type="curve" smooth="yes"/>
      <point x="739" y="-626"/>
      <point x="792" y="-627"/>
    </contour>
  </outline>
</glyph>
<glyph name="parenright" format="2">
  <advance width="705"/>
  <unicode hex="0029"/>
  <outline>
    <contour>
      <point x="-103" y="-621" type="curve" smooth="yes"/>
      <point x="-86" y="-631"/>
      <point x="-32" y="-621"/>
      <point x="24" y="-590" type="curve" smooth="yes"/>
      <point x="260" y="-458"/>
      <point x="544" y="-169"/>
      <point x="544" y="508" type="curve" smooth="yes"/>
      <point x="544" y="1149"/>
      <point x="272" y="1475"/>
      <point x="24" y="1582" type="curve" smooth="yes"/>
      <point x="-34" y="1607"/>
      <point x="-88" y="1608"/>
      <point x="-104" y="1596" type="curve" smooth="yes"/>
      <point x="-114" y="1588"/>
      <point x="-103" y="1570"/>
      <point x="-29" y="1541" type="curve" smooth="yes"/>
      <point x="135" y="1477"/>
      <point x="401" y="1121"/>
      <point x="401" y="498" type="curve" smooth="yes"/>
      <point x="401" y="-126"/>
      <point x="126" y="-478"/>
      <point x="-30" y="-559" type="curve" smooth="yes"/>
      <point x="-101" y="-596"/>
      <point x="-114" y="-615"/>
    </contour>
  </outline>
</glyph>
<glyph name="plus" format="2">
  <advance width="772"/>
  <unicode hex="002B"/>
  <outline>
    <contour>
      <point x="715" y="545" type="curve"/>
      <point x="693" y="567" type="line"/>
      <point x="84" y="567" type="line"/>
      <point x="73" y="543"/>
      <point x="62" y="513"/>
      <point x="56" y="488" type="curve"/>
      <point x="79" y="466" type="line"/>
      <point x="688" y="466" type="line"/>
      <point x="697" y="486"/>
      <point x="710" y="520"/>
    </contour>
    <contour>
      <point x="438" y="217" type="curve"/>
      <point x="438" y="825" type="line"/>
      <point x="416" y="846" type="line"/>
      <point x="390" y="839"/>
      <point x="356" y="827"/>
      <point x="333" y="819" type="curve"/>
      <point x="333" y="208" type="line"/>
      <point x="356" y="188" type="line"/>
      <point x="382" y="194"/>
      <point x="414" y="205"/>
    </contour>
  </outline>
</glyph>
<glyph name="one" format="2">
  <advance width="956"/>
  <unicode hex="0031"/>
  <outline>
    <contour>
      <point x="588" y="-17" type="curve" smooth="yes"/>
      <point x="640" y="-17"/>
      <point x="660" y="-17"/>
      <point x="660" y="24" type="curve" smooth="yes"/>
      <point x="660" y="76"/>
      <point x="650" y="510"/>
      <point x="650" y="774" type="curve" smooth="yes" name="hr03"/>
      <point x="650" y="998"/>
      <point x="658" y="1223"/>
      <point x="660" y="1447" type="curve" smooth="yes"/>
      <point x="660" y="1488"/>
      <point x="638" y="1488"/>
      <point x="588" y="1488" type="curve" smooth="yes"/>
      <point x="538" y="1488"/>
      <point x="516" y="1488"/>
      <point x="516" y="1447" type="curve" smooth="yes" name="hr02"/>
      <point x="516" y="1402"/>
      <point x="255" y="1054"/>
      <point x="204" y="1000" type="curve" smooth="yes"/>
      <point x="191" y="986"/>
      <point x="206" y="968"/>
      <point x="239" y="941" type="curve" smooth="yes"/>
      <point x="270" y="916"/>
      <point x="292" y="902"/>
      <point x="302" y="922" type="curve" smooth="yes"/>
      <point x="334" y="987"/>
      <point x="433" y="1150"/>
      <point x="518" y="1263" type="curve"/>
      <point x="521" y="1129"/>
      <point x="526" y="919"/>
      <point x="526" y="774" type="curve" smooth="yes" name="hr01"/>
      <point x="526" y="510"/>
      <point x="516" y="76"/>
      <point x="516" y="24" type="curve" smooth="yes"/>
      <point x="516" y="-17"/>
      <point x="536" y="-17"/>
    </contour>
  </outline>
</glyph>
<glyph name="four" format="2">
  <advance width="956"/>
  <unicode hex="0034"/>
  <outline>
    <contour>
      <point x="688" y="-17" type="curve" smooth="yes"/>
      <point x="740" y="-17"/>
      <point x="760" y="-17"/>
      <point x="760" y="24" type="curve" smooth="yes"/>
      <point x="760" y="55"/>
      <point x="757" y="223"/>
      <point x="754" y="409" type="curve"/>
      <point x="796" y="411"/>
      <point x="832" y="415"/>
      <point x="863" y="421" type="curve" smooth="yes"/>
      <point x="875" y="423"/>
      <point x="874" y="443"/>
      <point x="866" y="490" type="curve" smooth="yes"/>
      <point x="859" y="532"/>
      <point x="847" y="537"/>
      <point x="838" y="534" type="curve" smooth="yes"/>
      <point x="813" y="524"/>
      <point x="783" y="516"/>
      <point x="752" y="510" type="curve" name="hr02"/>
      <point x="751" y="605"/>
      <point x="750" y="700"/>
      <point x="750" y="779" type="curve" smooth="yes" name="hr01"/>
      <point x="750" y="1043"/>
      <point x="757" y="1389"/>
      <point x="757" y="1447" type="curve" smooth="yes"/>
      <point x="757" y="1488"/>
      <point x="735" y="1488"/>
      <point x="685" y="1488" type="curve" smooth="yes"/>
      <point x="635" y="1488"/>
      <point x="620" y="1482"/>
      <point x="617" y="1457" type="curve" smooth="yes"/>
      <point x="611" y="1412"/>
      <point x="531" y="1329"/>
      <point x="321" y="1002" type="curve" smooth="yes"/>
      <point x="163" y="756"/>
      <point x="101" y="633"/>
      <point x="101" y="467" type="curve" smooth="yes"/>
      <point x="101" y="420"/>
      <point x="124" y="405"/>
      <point x="170" y="405" type="curve" smooth="yes"/>
      <point x="622" y="405" type="line"/>
      <point x="619" y="220"/>
      <point x="616" y="55"/>
      <point x="616" y="24" type="curve" smooth="yes"/>
      <point x="616" y="-17"/>
      <point x="636" y="-17"/>
    </contour>
    <contour>
      <point x="261" y="495" type="line" smooth="yes"/>
      <point x="239" y="495"/>
      <point x="235" y="516"/>
      <point x="235" y="541" type="curve" smooth="yes"/>
      <point x="235" y="644"/>
      <point x="254" y="726"/>
      <point x="382" y="932" type="curve" smooth="yes"/>
      <point x="488" y="1103"/>
      <point x="564" y="1206"/>
      <point x="619" y="1273" type="curve"/>
      <point x="622" y="1132"/>
      <point x="626" y="939"/>
      <point x="626" y="779" type="curve" smooth="yes" name="hr03"/>
      <point x="626" y="696"/>
      <point x="625" y="595"/>
      <point x="624" y="495" type="curve" name="hr04"/>
    </contour>
  </outline>
</glyph>
<glyph name="colon" format="2">
  <advance width="379"/>
  <unicode hex="003A"/>
  <outline>
    <contour>
      <point x="188" y="583" type="curve" smooth="yes"/>
      <point x="239" y="583"/>
      <point x="281" y="633"/>
      <point x="281" y="709" type="curve" smooth="yes"/>
      <point x="281" y="785"/>
      <point x="233" y="831"/>
      <point x="188" y="831" type="curve" smooth="yes"/>
      <point x="143" y="831"/>
      <point x="96" y="789"/>
      <point x="96" y="709" type="curve" smooth="yes"/>
      <point x="96" y="635"/>
      <point x="136" y="583"/>
    </contour>
    <contour>
      <point x="189" y="-18" type="curve" smooth="yes"/>
      <point x="240" y="-18"/>
      <point x="282" y="32"/>
      <point x="282" y="108" type="curve" smooth="yes"/>
      <point x="282" y="184"/>
      <point x="234" y="230"/>
      <point x="189" y="230" type="curve" smooth="yes"/>
      <point x="144" y="230"/>
      <point x="97" y="188"/>
      <point x="97" y="108" type="curve" smooth="yes"/>
      <point x="97" y="34"/>
      <point x="137" y="-18"/>
    </contour>
  </outline>
</glyph>
<glyph name="less" format="2">
  <advance width="827"/>
  <unicode hex="003C"/>
  <outline>
    <contour>
      <point x="764" y="778"/>
      <point x="770" y="804" type="curve"/>
      <point x="747" y="827" type="line"/>
      <point x="84" y="578" type="line"/>
      <point x="73" y="553"/>
      <point x="62" y="512"/>
      <point x="56" y="487" type="curve"/>
      <point x="79" y="465" type="line"/>
      <point x="744" y="712" type="line"/>
      <point x="751" y="735"/>
    </contour>
    <contour>
      <point x="744" y="271"/>
      <point x="770" y="296" type="curve"/>
      <point x="755" y="329" type="line"/>
      <point x="84" y="578" type="line"/>
      <point x="73" y="553"/>
      <point x="62" y="512"/>
      <point x="56" y="487" type="curve"/>
      <point x="79" y="465" type="line"/>
      <point x="693" y="235" type="line"/>
      <point x="731" y="258"/>
    </contour>
  </outline>
</glyph>
<glyph name="equal" format="2">
  <advance width="827"/>
  <unicode hex="003D"/>
  <outline>
    <contour>
      <point x="770" y="680" type="curve"/>
      <point x="747" y="703" type="line"/>
      <point x="84" y="703" type="line"/>
      <point x="73" y="680"/>
      <point x="62" y="650"/>
      <point x="56" y="625" type="curve"/>
      <point x="79" y="602" type="line"/>
      <point x="744" y="602" type="line"/>
      <point x="751" y="623"/>
      <point x="764" y="656"/>
    </contour>
    <contour>
      <point x="770" y="404" type="curve"/>
      <point x="747" y="427" type="line"/>
      <point x="84" y="427" type="line"/>
      <point x="73" y="402"/>
      <point x="62" y="376"/>
      <point x="56" y="351" type="curve"/>
      <point x="79" y="326" type="line"/>
      <point x="744" y="326" type="line"/>
      <point x="751" y="349"/>
      <point x="764" y="379"/>
    </contour>
  </outline>
</glyph>
<glyph name="at" format="2">
  <advance width="1520"/>
  <unicode hex="0040"/>
  <outline>
    <contour>
      <point x="1456" y="186"/>
      <point x="1456" y="505" type="curve"/>
      <point x="1456" y="976"/>
      <point x="1215" y="1226"/>
      <point x="850" y="1226" type="curve" smooth="yes"/>
      <point x="418" y="1226"/>
      <point x="64" y="844"/>
      <point x="64" y="427" type="curve" smooth="yes"/>
      <point x="64" y="-43"/>
      <point x="363" y="-345"/>
      <point x="785" y="-345" type="curve" smooth="yes"/>
      <point x="1049" y="-345"/>
      <point x="1245" y="-218"/>
      <point x="1334" y="-126" type="curve"/>
      <point x="1309" y="-75" type="line"/>
      <point x="1235" y="-138"/>
      <point x="1037" y="-234"/>
      <point x="830" y="-234" type="curve" smooth="yes"/>
      <point x="497" y="-234"/>
      <point x="202" y="37"/>
      <point x="202" y="482" type="curve" smooth="yes"/>
      <point x="202" y="814"/>
      <point x="438" y="1115"/>
      <point x="814" y="1115" type="curve" smooth="yes"/>
      <point x="1125" y="1115"/>
      <point x="1345" y="884"/>
      <point x="1345" y="471" type="curve" smooth="yes"/>
      <point x="1345" y="264"/>
      <point x="1231" y="100"/>
      <point x="1170" y="100" type="curve" smooth="yes"/>
      <point x="1111" y="100"/>
      <point x="1070" y="152"/>
      <point x="1070" y="262" type="curve" smooth="yes"/>
      <point x="1070" y="665" type="line" smooth="yes"/>
      <point x="1070" y="767"/>
      <point x="1098" y="855"/>
      <point x="1098" y="855" type="curve"/>
      <point x="1069" y="883" type="line"/>
      <point x="1035" y="845"/>
      <point x="1002" y="817"/>
      <point x="970" y="798" type="curve"/>
      <point x="906" y="870"/>
      <point x="874" y="883"/>
      <point x="817" y="883" type="curve" smooth="yes"/>
      <point x="578" y="883"/>
      <point x="423" y="620"/>
      <point x="423" y="408" type="curve" smooth="yes"/>
      <point x="423" y="135"/>
      <point x="568" y="-27"/>
      <point x="693" y="-27" type="curve" smooth="yes"/>
      <point x="791" y="-27"/>
      <point x="838" y="9"/>
      <point x="938" y="149" type="curve"/>
      <point x="954" y="21"/>
      <point x="1004" y="-27"/>
      <point x="1064" y="-27" type="curve" smooth="yes"/>
      <point x="1220" y="-27"/>
    </contour>
    <contour>
      <point x="932" y="672" type="curve"/>
      <point x="932" y="230" type="line"/>
      <point x="839" y="120"/>
      <point x="806" y="92"/>
      <point x="759" y="92" type="curve" smooth="yes"/>
      <point x="672" y="92"/>
      <point x="561" y="228"/>
      <point x="561" y="437" type="curve" smooth="yes"/>
      <point x="561" y="667"/>
      <point x="654" y="782"/>
      <point x="789" y="782" type="curve" smooth="yes"/>
      <point x="862" y="782"/>
      <point x="898" y="740"/>
    </contour>
  </outline>
</glyph>
<glyph name="B" format="2">
  <advance width="1035"/>
  <unicode hex="0042"/>
  <anchor x="485" y="-92" name="L"/>
  <anchor x="485" y="1260" name="U"/>
  <outline>
    <contour>
      <point x="934" y="118"/>
      <point x="934" y="327" type="curve"/>
      <point x="934" y="497"/>
      <point x="814" y="634"/>
      <point x="657" y="665" type="curve"/>
      <point x="764" y="706"/>
      <point x="832" y="806"/>
      <point x="832" y="938" type="curve" smooth="yes"/>
      <point x="832" y="1092"/>
      <point x="678" y="1186"/>
      <point x="431" y="1186" type="curve" smooth="yes"/>
      <point x="298" y="1186"/>
      <point x="133" y="1158"/>
      <point x="37" y="1131" type="curve"/>
      <point x="46" y="1074" type="line"/>
      <point x="149" y="1093"/>
      <point x="283" y="1109"/>
      <point x="379" y="1109" type="curve" smooth="yes"/>
      <point x="617" y="1109"/>
      <point x="690" y="1015"/>
      <point x="690" y="893" type="curve" smooth="yes"/>
      <point x="690" y="787"/>
      <point x="636" y="667"/>
      <point x="357" y="667" type="curve" smooth="yes"/>
      <point x="267" y="667" type="line"/>
      <point x="276" y="576" type="line"/>
      <point x="335" y="587"/>
      <point x="397" y="598"/>
      <point x="478" y="598" type="curve" smooth="yes"/>
      <point x="691" y="598"/>
      <point x="783" y="431"/>
      <point x="783" y="296" type="curve" smooth="yes"/>
      <point x="783" y="158"/>
      <point x="670" y="64"/>
      <point x="494" y="64" type="curve" smooth="yes"/>
      <point x="438" y="64"/>
      <point x="355" y="69"/>
      <point x="317" y="90" type="curve"/>
      <point x="113" y="0" type="line"/>
      <point x="228" y="-5"/>
      <point x="408" y="-12"/>
      <point x="514" y="-12" type="curve"/>
      <point x="762" y="-12"/>
    </contour>
    <contour>
      <point x="46" y="0" type="line"/>
      <point x="460" y="0" type="line"/>
      <point x="460" y="39" type="line"/>
      <point x="370" y="56"/>
      <point x="326" y="80"/>
      <point x="326" y="95" type="curve" smooth="yes"/>
      <point x="326" y="1132" type="line"/>
      <point x="179" y="1113" type="line"/>
      <point x="179" y="95" type="line" smooth="yes"/>
      <point x="179" y="79"/>
      <point x="128" y="56"/>
      <point x="46" y="39" type="curve"/>
    </contour>
  </outline>
</glyph>
<glyph name="F" format="2">
  <advance width="900"/>
  <unicode hex="0046"/>
  <anchor x="435" y="-92" name="L"/>
  <anchor x="435" y="1260" name="U"/>
  <outline>
    <contour>
      <point x="823" y="1073"/>
      <point x="825" y="1136" type="curve"/>
      <point x="796" y="1159" type="line"/>
      <point x="305" y="1159" type="line"/>
      <point x="278" y="1076" type="line"/>
      <point x="670" y="1076" type="line" smooth="yes"/>
      <point x="717" y="1076"/>
      <point x="742" y="1042"/>
      <point x="746" y="929" type="curve"/>
      <point x="789" y="929" type="line"/>
      <point x="804" y="976"/>
    </contour>
    <contour>
      <point x="674" y="616"/>
      <point x="697" y="650" type="curve"/>
      <point x="670" y="676" type="line"/>
      <point x="260" y="676" type="line"/>
      <point x="237" y="598" type="line"/>
      <point x="429" y="598" type="line" smooth="yes"/>
      <point x="531" y="598"/>
      <point x="575" y="584"/>
      <point x="610" y="548" type="curve"/>
      <point x="636" y="567"/>
    </contour>
    <contour>
      <point x="46" y="0" type="line"/>
      <point x="487" y="0" type="line"/>
      <point x="487" y="39" type="line"/>
      <point x="367" y="62"/>
      <point x="326" y="80"/>
      <point x="326" y="95" type="curve" smooth="yes"/>
      <point x="326" y="1082" type="line" smooth="yes"/>
      <point x="326" y="1099"/>
      <point x="395" y="1111"/>
      <point x="460" y="1119" type="curve"/>
      <point x="460" y="1159" type="line"/>
      <point x="46" y="1159" type="line"/>
      <point x="46" y="1119" type="line"/>
      <point x="134" y="1102"/>
      <point x="179" y="1077"/>
      <point x="179" y="1062" type="curve" smooth="yes"/>
      <point x="179" y="95" type="line" smooth="yes"/>
      <point x="179" y="79"/>
      <point x="128" y="56"/>
      <point x="46" y="39" type="curve"/>
    </contour>
  </outline>
</glyph>
<glyph name="G" format="2">
  <advance width="1098"/>
  <unicode hex="0047"/>
  <anchor x="570" y="0" name="H"/>
  <anchor x="588" y="-92" name="L"/>
  <anchor x="588" y="1260" name="U"/>
  <outline>
    <contour>
      <point x="983" y="505"/>
      <point x="1053" y="521" type="curve"/>
      <point x="1053" y="561" type="line"/>
      <point x="629" y="561" type="line"/>
      <point x="629" y="521" type="line"/>
      <point x="778" y="497"/>
      <point x="818" y="472"/>
      <point x="818" y="446" type="curve" smooth="yes"/>
      <point x="818" y="90" type="line" smooth="yes"/>
      <point x="818" y="73"/>
      <point x="956" y="141"/>
      <point x="956" y="141" type="curve"/>
      <point x="956" y="446" type="line" smooth="yes"/>
      <point x="956" y="474"/>
    </contour>
    <contour>
      <point x="976" y="1080"/>
      <point x="958" y="1092" type="curve"/>
      <point x="879" y="1152"/>
      <point x="759" y="1186"/>
      <point x="678" y="1186" type="curve" smooth="yes"/>
      <point x="341" y="1186"/>
      <point x="64" y="943"/>
      <point x="64" y="535" type="curve" smooth="yes"/>
      <point x="64" y="156"/>
      <point x="322" y="-27"/>
      <point x="568" y="-27" type="curve" smooth="yes"/>
      <point x="679" y="-27"/>
      <point x="774" y="-7"/>
      <point x="956" y="141" type="curve"/>
      <point x="949" y="150"/>
      <point x="895" y="171"/>
      <point x="879" y="179" type="curve"/>
      <point x="816" y="118"/>
      <point x="717" y="82"/>
      <point x="593" y="82" type="curve" smooth="yes"/>
      <point x="406" y="82"/>
      <point x="207" y="244"/>
      <point x="207" y="586" type="curve" smooth="yes"/>
      <point x="207" y="968"/>
      <point x="458" y="1085"/>
      <point x="550" y="1085" type="curve" smooth="yes"/>
      <point x="670" y="1085"/>
      <point x="759" y="1068"/>
      <point x="839" y="990" type="curve"/>
      <point x="870" y="985" type="line"/>
      <point x="902" y="1013"/>
    </contour>
  </outline>
</glyph>
<glyph name="H" format="2">
  <advance width="1231"/>
  <unicode hex="0048"/>
  <anchor x="248" y="0" name="H"/>
  <anchor x="607" y="-92" name="L"/>
  <anchor x="607" y="1260" name="U"/>
  <outline>
    <contour>
      <point x="754" y="0" type="line"/>
      <point x="1168" y="0" type="line"/>
      <point x="1168" y="39" type="line"/>
      <point x="1080" y="56"/>
      <point x="1035" y="80"/>
      <point x="1035" y="95" type="curve" smooth="yes"/>
      <point x="1035" y="1062" type="line" smooth="yes"/>
      <point x="1035" y="1080"/>
      <point x="1085" y="1102"/>
      <point x="1168" y="1119" type="curve"/>
      <point x="1168" y="1159" type="line"/>
      <point x="754" y="1159" type="line"/>
      <point x="754" y="1119" type="line"/>
      <point x="842" y="1102"/>
      <point x="887" y="1077"/>
      <point x="887" y="1062" type="curve" smooth="yes"/>
      <point x="887" y="95" type="line" smooth="yes"/>
      <point x="887" y="79"/>
      <point x="837" y="56"/>
      <point x="754" y="39" type="curve"/>
    </contour>
    <contour>
      <point x="300" y="565" type="line"/>
      <point x="906" y="565" type="line"/>
      <point x="906" y="648" type="line"/>
      <point x="300" y="648" type="line"/>
    </contour>
    <contour>
      <point x="46" y="0" type="line"/>
      <point x="460" y="0" type="line"/>
      <point x="460" y="39" type="line"/>
      <point x="370" y="56"/>
      <point x="326" y="80"/>
      <point x="326" y="95" type="curve" smooth="yes"/>
      <point x="326" y="1062" type="line" smooth="yes"/>
      <point x="326" y="1080"/>
      <point x="377" y="1102"/>
      <point x="460" y="1119" type="curve"/>
      <point x="460" y="1159" type="line"/>
      <point x="46" y="1159" type="line"/>
      <point x="46" y="1119" type="line"/>
      <point x="134" y="1102"/>
      <point x="179" y="1077"/>
      <point x="179" y="1062" type="curve" smooth="yes"/>
      <point x="179" y="95" type="line" smooth="yes"/>
      <point x="179" y="79"/>
      <point x="128" y="56"/>
      <point x="46" y="39" type="curve"/>
    </contour>
  </outline>
</glyph>
<glyph name="K" format="2">
  <advance width="1089"/>
  <unicode hex="004B"/>
  <anchor x="253" y="0" name="H"/>
  <anchor x="563" y="-92" name="L"/>
  <anchor x="542" y="1260" name="U"/>
  <outline>
    <contour>
      <point x="1021" y="1119" type="curve"/>
      <point x="1021" y="1159" type="line"/>
      <point x="634" y="1159" type="line"/>
      <point x="634" y="1119" type="line"/>
      <point x="731" y="1111"/>
      <point x="759" y="1104"/>
      <point x="702" y="1037" type="curve" smooth="yes"/>
      <point x="323" y="591" type="line"/>
      <point x="437" y="591" type="line"/>
      <point x="864" y="1062" type="line" smooth="yes"/>
      <point x="902" y="1104"/>
      <point x="942" y="1109"/>
    </contour>
    <contour>
      <point x="1080" y="34" type="curve"/>
      <point x="1073" y="73" type="line"/>
      <point x="1010" y="66"/>
      <point x="949" y="68"/>
      <point x="906" y="116" type="curve" smooth="yes"/>
      <point x="421" y="663" type="line"/>
      <point x="323" y="591" type="line"/>
      <point x="785" y="26" type="line" smooth="yes"/>
      <point x="810" y="-3"/>
      <point x="836" y="-12"/>
      <point x="872" y="-12" type="curve" smooth="yes"/>
      <point x="931" y="-12"/>
      <point x="1008" y="11"/>
    </contour>
    <contour>
      <point x="46" y="0" type="line"/>
      <point x="460" y="0" type="line"/>
      <point x="460" y="39" type="line"/>
      <point x="370" y="56"/>
      <point x="326" y="80"/>
      <point x="326" y="95" type="curve" smooth="yes"/>
      <point x="326" y="1062" type="line" smooth="yes"/>
      <point x="326" y="1080"/>
      <point x="377" y="1102"/>
      <point x="460" y="1119" type="curve"/>
      <point x="460" y="1159" type="line"/>
      <point x="46" y="1159" type="line"/>
      <point x="46" y="1119" type="line"/>
      <point x="134" y="1102"/>
      <point x="179" y="1077"/>
      <point x="179" y="1062" type="curve" smooth="yes"/>
      <point x="179" y="95" type="line" smooth="yes"/>
      <point x="179" y="79"/>
      <point x="128" y="56"/>
      <point x="46" y="39" type="curve"/>
    </contour>
  </outline>
</glyph>
<glyph name="L" format="2">
  <advance width="897"/>
  <unicode hex="004C"/>
  <anchor x="457" y="0" name="H"/>
  <anchor x="457" y="-92" name="L"/>
  <anchor x="690" y="828" name="R"/>
  <anchor x="429" y="1260" name="U"/>
  <outline>
    <contour>
      <point x="868" y="224" type="curve"/>
      <point x="828" y="241" type="line"/>
      <point x="776" y="97"/>
      <point x="742" y="82"/>
      <point x="629" y="82" type="curve" smooth="yes"/>
      <point x="497" y="82" type="line" smooth="yes"/>
      <point x="363" y="82"/>
      <point x="326" y="107"/>
      <point x="326" y="150" type="curve" smooth="yes"/>
      <point x="326" y="1062" type="line" smooth="yes"/>
      <point x="326" y="1080"/>
      <point x="377" y="1102"/>
      <point x="460" y="1119" type="curve"/>
      <point x="460" y="1159" type="line"/>
      <point x="46" y="1159" type="line"/>
      <point x="46" y="1119" type="line"/>
      <point x="134" y="1102"/>
      <point x="179" y="1077"/>
      <point x="179" y="1062" type="curve" smooth="yes"/>
      <point x="179" y="95" type="line" smooth="yes"/>
      <point x="179" y="79"/>
      <point x="128" y="56"/>
      <point x="46" y="39" type="curve"/>
      <point x="46" y="0" type="line"/>
      <point x="830" y="0" type="line"/>
      <point x="839" y="35"/>
      <point x="859" y="118"/>
    </contour>
  </outline>
</glyph>
<glyph name="M" format="2">
  <advance width="1518"/>
  <unicode hex="004D"/>
  <anchor x="1242" y="0" name="H"/>
  <anchor x="749" y="-92" name="L"/>
  <anchor x="749" y="1260" name="U"/>
  <outline>
    <contour>
      <point x="1025" y="0" type="line"/>
      <point x="1444" y="0" type="line"/>
      <point x="1444" y="39" type="line"/>
      <point x="1356" y="56"/>
      <point x="1311" y="80"/>
      <point x="1311" y="95" type="curve" smooth="yes"/>
      <point x="1301" y="1116" type="line"/>
      <point x="1159" y="1064" type="line"/>
      <point x="1168" y="95" type="line" smooth="yes"/>
      <point x="1168" y="79"/>
      <point x="1108" y="56"/>
      <point x="1025" y="39" type="curve"/>
    </contour>
    <contour>
      <point x="1426" y="1119" type="curve"/>
      <point x="1426" y="1159" type="line"/>
      <point x="1162" y="1159" type="line" smooth="yes"/>
      <point x="1139" y="1159"/>
      <point x="1135" y="1155"/>
      <point x="1104" y="1081" type="curve" smooth="yes"/>
      <point x="747" y="241" type="line" smooth="yes"/>
      <point x="731" y="201"/>
      <point x="724" y="154"/>
      <point x="753" y="0" type="curve"/>
      <point x="757" y="0" type="line"/>
      <point x="1171" y="982" type="line" smooth="yes"/>
      <point x="1197" y="1046"/>
      <point x="1343" y="1119"/>
    </contour>
    <contour>
      <point x="757" y="242" type="curve" smooth="yes"/>
      <point x="386" y="1081" type="line" smooth="yes"/>
      <point x="356" y="1148"/>
      <point x="351" y="1159"/>
      <point x="327" y="1159" type="curve" smooth="yes"/>
      <point x="64" y="1159" type="line"/>
      <point x="64" y="1119" type="line"/>
      <point x="131" y="1119"/>
      <point x="243" y="1087"/>
      <point x="291" y="976" type="curve" smooth="yes"/>
      <point x="712" y="0" type="line"/>
      <point x="753" y="0" type="line"/>
      <point x="783" y="154"/>
      <point x="773" y="205"/>
    </contour>
    <contour>
      <point x="55" y="0" type="line"/>
      <point x="427" y="0" type="line"/>
      <point x="427" y="39" type="line"/>
      <point x="339" y="56"/>
      <point x="294" y="80"/>
      <point x="294" y="95" type="curve" smooth="yes"/>
      <point x="304" y="1123" type="line"/>
      <point x="197" y="1100" type="line"/>
      <point x="188" y="95" type="line" smooth="yes"/>
      <point x="188" y="79"/>
      <point x="138" y="56"/>
      <point x="55" y="39" type="curve"/>
    </contour>
  </outline>
</glyph>
<glyph name="N" format="2">
  <advance width="1222"/>
  <unicode hex="004E"/>
  <anchor x="963" y="0" name="H"/>
  <anchor x="611" y="-92" name="L"/>
  <anchor x="611" y="1260" name="U"/>
  <outline>
    <contour>
      <point x="1177" y="1119" type="curve"/>
      <point x="1177" y="1159" type="line"/>
      <point x="800" y="1159" type="line"/>
      <point x="800" y="1119" type="line"/>
      <point x="898" y="1105"/>
      <point x="933" y="1077"/>
      <point x="933" y="1062" type="curve" smooth="yes"/>
      <point x="933" y="65" type="line"/>
      <point x="1044" y="29" type="line"/>
      <point x="1044" y="1062" type="line" smooth="yes"/>
      <point x="1044" y="1080"/>
      <point x="1089" y="1107"/>
    </contour>
    <contour>
      <point x="1044" y="-27" type="curve"/>
      <point x="1044" y="110" type="line"/>
      <point x="1044" y="110"/>
      <point x="961" y="215"/>
      <point x="935" y="251" type="curve" smooth="yes"/>
      <point x="329" y="1087" type="line" smooth="yes"/>
      <point x="283" y="1150"/>
      <point x="276" y="1159"/>
      <point x="241" y="1159" type="curve" smooth="yes"/>
      <point x="46" y="1159" type="line"/>
      <point x="46" y="1119" type="line"/>
      <point x="110" y="1109"/>
      <point x="168" y="1082"/>
      <point x="218" y="1012" type="curve" smooth="yes"/>
      <point x="934" y="19" type="line" smooth="yes"/>
      <point x="949" y="0"/>
      <point x="983" y="-20"/>
    </contour>
    <contour>
      <point x="46" y="0" type="line"/>
      <point x="423" y="0" type="line"/>
      <point x="423" y="39" type="line"/>
      <point x="328" y="52"/>
      <point x="289" y="80"/>
      <point x="289" y="95" type="curve" smooth="yes"/>
      <point x="289" y="1123" type="line"/>
      <point x="179" y="1100" type="line"/>
      <point x="179" y="95" type="line" smooth="yes"/>
      <point x="179" y="79"/>
      <point x="136" y="50"/>
      <point x="46" y="39" type="curve"/>
    </contour>
  </outline>
</glyph>
<glyph name="O" format="2">
  <advance width="1130"/>
  <unicode hex="004F"/>
  <anchor x="540" y="0" name="H"/>
  <anchor x="567" y="-92" name="L"/>
  <anchor x="623" y="0" name="O"/>
  <anchor x="1157" y="1012" name="R"/>
  <anchor x="567" y="1260" name="U"/>
  <outline>
    <contour>
      <point x="530" y="-27" type="curve" smooth="yes"/>
      <point x="810" y="-27"/>
      <point x="1048" y="262"/>
      <point x="1048" y="595" type="curve" smooth="yes"/>
      <point x="1048" y="895"/>
      <point x="887" y="1186"/>
      <point x="584" y="1186" type="curve" smooth="yes"/>
      <point x="295" y="1186"/>
      <point x="66" y="897"/>
      <point x="66" y="563" type="curve" smooth="yes"/>
      <point x="66" y="253"/>
      <point x="235" y="-27"/>
    </contour>
    <contour>
      <point x="557" y="82" type="curve" smooth="yes"/>
      <point x="368" y="82"/>
      <point x="208" y="314"/>
      <point x="208" y="589" type="curve" smooth="yes"/>
      <point x="208" y="889"/>
      <point x="339" y="1081"/>
      <point x="557" y="1081" type="curve" smooth="yes"/>
      <point x="766" y="1081"/>
      <point x="906" y="832"/>
      <point x="906" y="578" type="curve" smooth="yes"/>
      <point x="906" y="253"/>
      <point x="760" y="82"/>
    </contour>
  </outline>
</glyph>
<glyph name="P" format="2">
  <advance width="985"/>
  <unicode hex="0050"/>
  <anchor x="470" y="-92" name="L"/>
  <anchor x="470" y="1260" name="U"/>
  <outline>
    <contour>
      <point x="903" y="861" type="curve"/>
      <point x="903" y="1071"/>
      <point x="733" y="1186"/>
      <point x="469" y="1186" type="curve" smooth="yes"/>
      <point x="320" y="1186"/>
      <point x="156" y="1163"/>
      <point x="37" y="1131" type="curve"/>
      <point x="46" y="1074" type="line"/>
      <point x="164" y="1095"/>
      <point x="287" y="1109"/>
      <point x="416" y="1109" type="curve" smooth="yes"/>
      <point x="606" y="1109"/>
      <point x="760" y="1024"/>
      <point x="760" y="823" type="curve" smooth="yes"/>
      <point x="760" y="650"/>
      <point x="612" y="561"/>
      <point x="499" y="561" type="curve" smooth="yes"/>
      <point x="456" y="561"/>
      <point x="408" y="565"/>
      <point x="357" y="588" type="curve"/>
      <point x="379" y="519" type="line"/>
      <point x="420" y="501"/>
      <point x="471" y="492"/>
      <point x="527" y="492" type="curve" smooth="yes"/>
      <point x="670" y="492"/>
      <point x="903" y="606"/>
    </contour>
    <contour>
      <point x="46" y="0" type="line"/>
      <point x="487" y="0" type="line"/>
      <point x="487" y="39" type="line"/>
      <point x="359" y="60"/>
      <point x="326" y="80"/>
      <point x="326" y="95" type="curve" smooth="yes"/>
      <point x="326" y="1113" type="line"/>
      <point x="179" y="1113" type="line"/>
      <point x="179" y="95" type="line" smooth="yes"/>
      <point x="179" y="79"/>
      <point x="128" y="56"/>
      <point x="46" y="39" type="curve"/>
    </contour>
  </outline>
</glyph>
<glyph name="T" format="2">
  <advance width="1037"/>
  <unicode hex="0054"/>
  <anchor x="506" y="0" name="H"/>
  <anchor x="502" y="-92" name="L"/>
  <anchor x="502" y="1260" name="U"/>
  <outline>
    <contour>
      <point x="996" y="1136" type="curve"/>
      <point x="968" y="1159" type="line"/>
      <point x="503" y="1159" type="line"/>
      <point x="476" y="1076" type="line"/>
      <point x="841" y="1076" type="line" smooth="yes"/>
      <point x="894" y="1076"/>
      <point x="903" y="1034"/>
      <point x="927" y="920" type="curve"/>
      <point x="968" y="920" type="line"/>
      <point x="983" y="997"/>
      <point x="994" y="1073"/>
    </contour>
    <contour>
      <point x="158" y="1076" type="curve" smooth="yes"/>
      <point x="642" y="1076" type="line"/>
      <point x="616" y="1159" type="line"/>
      <point x="39" y="1159" type="line"/>
      <point x="26" y="1094"/>
      <point x="14" y="1004"/>
      <point x="9" y="932" type="curve"/>
      <point x="48" y="915" type="line"/>
      <point x="103" y="1058"/>
      <point x="120" y="1076"/>
    </contour>
    <contour>
      <point x="282" y="0" type="line"/>
      <point x="731" y="0" type="line"/>
      <point x="731" y="39" type="line"/>
      <point x="618" y="62"/>
      <point x="580" y="90"/>
      <point x="580" y="105" type="curve" smooth="yes"/>
      <point x="580" y="1082" type="line" smooth="yes"/>
      <point x="580" y="1099"/>
      <point x="629" y="1102"/>
      <point x="712" y="1119" type="curve"/>
      <point x="712" y="1159" type="line"/>
      <point x="299" y="1159" type="line"/>
      <point x="299" y="1119" type="line"/>
      <point x="388" y="1102"/>
      <point x="433" y="1097"/>
      <point x="433" y="1082" type="curve" smooth="yes"/>
      <point x="433" y="105" type="line" smooth="yes"/>
      <point x="433" y="88"/>
      <point x="395" y="62"/>
      <point x="282" y="39" type="curve"/>
    </contour>
  </outline>
</glyph>
<glyph name="X" format="2">
  <advance width="1159"/>
  <unicode hex="0058"/>
  <anchor x="579" y="-92" name="L"/>
  <anchor x="579" y="1260" name="U"/>
  <outline>
    <contour>
      <point x="1085" y="1119" type="curve"/>
      <point x="1085" y="1159" type="line"/>
      <point x="668" y="1159" type="line"/>
      <point x="668" y="1119" type="line"/>
      <point x="778" y="1111"/>
      <point x="823" y="1096"/>
      <point x="789" y="1042" type="curve" smooth="yes"/>
      <point x="531" y="627" type="line"/>
      <point x="576" y="492" type="line"/>
      <point x="917" y="1042" type="line" smooth="yes"/>
      <point x="949" y="1094"/>
      <point x="996" y="1109"/>
    </contour>
    <contour>
      <point x="715" y="0" type="line"/>
      <point x="1130" y="0" type="line"/>
      <point x="1130" y="39" type="line"/>
      <point x="1058" y="48"/>
      <point x="1021" y="64"/>
      <point x="985" y="116" type="curve" smooth="yes"/>
      <point x="354" y="1042" type="line" smooth="yes"/>
      <point x="317" y="1095"/>
      <point x="348" y="1109"/>
      <point x="452" y="1119" type="curve"/>
      <point x="452" y="1159" type="line"/>
      <point x="37" y="1159" type="line"/>
      <point x="37" y="1119" type="line"/>
      <point x="118" y="1107"/>
      <point x="144" y="1096"/>
      <point x="181" y="1042" type="curve" smooth="yes"/>
      <point x="812" y="116" type="line" smooth="yes"/>
      <point x="846" y="67"/>
      <point x="823" y="50"/>
      <point x="715" y="39" type="curve"/>
    </contour>
    <contour>
      <point x="323" y="116" type="curve" smooth="yes"/>
      <point x="580" y="531" type="line"/>
      <point x="548" y="691" type="line"/>
      <point x="195" y="116" type="line" smooth="yes"/>
      <point x="164" y="66"/>
      <point x="107" y="45"/>
      <point x="28" y="39" type="curve"/>
      <point x="28" y="0" type="line"/>
      <point x="442" y="0" type="line"/>
      <point x="442" y="39" type="line"/>
      <point x="329" y="46"/>
      <point x="289" y="62"/>
    </contour>
  </outline>
</glyph>
<glyph name="Z" format="2">
  <advance width="985"/>
  <unicode hex="005A"/>
  <anchor x="492" y="-92" name="L"/>
  <anchor x="510" y="1260" name="U"/>
  <outline>
    <contour>
      <point x="908" y="190"/>
      <point x="911" y="269" type="curve"/>
      <point x="861" y="282" type="line"/>
      <point x="814" y="131"/>
      <point x="787" y="92"/>
      <point x="735" y="92" type="curve" smooth="yes"/>
      <point x="253" y="92" type="line"/>
      <point x="902" y="1119" type="line"/>
      <point x="879" y="1159" type="line"/>
      <point x="312" y="1159" type="line" smooth="yes"/>
      <point x="241" y="1159"/>
      <point x="205" y="1159"/>
      <point x="138" y="1173" type="curve"/>
      <point x="111" y="897" type="line"/>
      <point x="163" y="885" type="line"/>
      <point x="190" y="1013"/>
      <point x="246" y="1067"/>
      <point x="286" y="1067" type="curve" smooth="yes"/>
      <point x="708" y="1067" type="line"/>
      <point x="54" y="41" type="line"/>
      <point x="80" y="0" type="line"/>
      <point x="900" y="0" type="line"/>
      <point x="902" y="71"/>
    </contour>
  </outline>
</glyph>
<glyph name="grave" format="2">
  <advance width="600"/>
  <unicode hex="0060"/>
  <anchor x="300" y="1297" name="U"/>
  <outline>
    <contour>
      <point x="391" y="982"/>
      <point x="402" y="991" type="curve"/>
      <point x="182" y="1369" type="line"/>
      <point x="151" y="1367"/>
      <point x="71" y="1353"/>
      <point x="47" y="1347" type="curve"/>
      <point x="27" y="1310" type="line"/>
      <point x="351" y="963" type="line"/>
      <point x="372" y="969"/>
    </contour>
  </outline>
</glyph>
<glyph name="b" format="2">
  <advance width="956"/>
  <unicode hex="0062"/>
  <anchor x="440" y="0" name="H"/>
  <anchor x="440" y="-92" name="L"/>
  <anchor x="982" y="828" name="R"/>
  <anchor x="478" y="1490" name="U"/>
  <outline>
    <contour>
      <point x="874" y="452" type="curve"/>
      <point x="874" y="721"/>
      <point x="753" y="883"/>
      <point x="586" y="883" type="curve" smooth="yes"/>
      <point x="516" y="883"/>
      <point x="389" y="816"/>
      <point x="266" y="668" type="curve"/>
      <point x="266" y="1394" type="line"/>
      <point x="256" y="1404"/>
      <point x="244" y="1415"/>
      <point x="232" y="1426" type="curve"/>
      <point x="162" y="1388"/>
      <point x="89" y="1370"/>
      <point x="9" y="1352" type="curve"/>
      <point x="9" y="1315" type="line"/>
      <point x="109" y="1303"/>
      <point x="128" y="1300"/>
      <point x="128" y="1192" type="curve" smooth="yes"/>
      <point x="128" y="88" type="line"/>
      <point x="261" y="14"/>
      <point x="384" y="-27"/>
      <point x="431" y="-27" type="curve" smooth="yes"/>
      <point x="702" y="-27"/>
      <point x="874" y="239"/>
    </contour>
    <contour>
      <point x="749" y="375" type="curve"/>
      <point x="749" y="233"/>
      <point x="670" y="92"/>
      <point x="521" y="92" type="curve" smooth="yes"/>
      <point x="478" y="92"/>
      <point x="364" y="113"/>
      <point x="266" y="186" type="curve"/>
      <point x="266" y="561" type="line"/>
      <point x="369" y="713"/>
      <point x="478" y="759"/>
      <point x="521" y="759" type="curve" smooth="yes"/>
      <point x="640" y="759"/>
      <point x="749" y="620"/>
    </contour>
  </outline>
</glyph>
<glyph name="d" format="2">
  <advance width="979"/>
  <unicode hex="0064"/>
  <anchor x="513" y="0" name="H"/>
  <anchor x="483" y="-92" name="L"/>
  <anchor x="979" y="828" name="R"/>
  <anchor x="483" y="1554" name="U"/>
  <outline>
    <contour>
      <point x="853" y="1"/>
      <point x="966" y="77" type="curve"/>
      <point x="954" y="116" type="line"/>
      <point x="881" y="88"/>
      <point x="854" y="83"/>
      <point x="844" y="97" type="curve" smooth="yes"/>
      <point x="831" y="115"/>
      <point x="823" y="147"/>
      <point x="823" y="233" type="curve" smooth="yes"/>
      <point x="823" y="1398" type="line"/>
      <point x="794" y="1426" type="line"/>
      <point x="731" y="1404"/>
      <point x="652" y="1379"/>
      <point x="552" y="1366" type="curve"/>
      <point x="552" y="1330" type="line"/>
      <point x="681" y="1321"/>
      <point x="685" y="1307"/>
      <point x="685" y="1172" type="curve" smooth="yes"/>
      <point x="685" y="250" type="line" smooth="yes"/>
      <point x="685" y="45"/>
      <point x="713" y="-27"/>
      <point x="762" y="-27" type="curve" smooth="yes"/>
      <point x="796" y="-27"/>
    </contour>
    <contour>
      <point x="629" y="77"/>
      <point x="753" y="239" type="curve"/>
      <point x="747" y="248"/>
      <point x="735" y="265"/>
      <point x="719" y="273" type="curve"/>
      <point x="632" y="190"/>
      <point x="544" y="92"/>
      <point x="448" y="92" type="curve" smooth="yes"/>
      <point x="346" y="92"/>
      <point x="211" y="228"/>
      <point x="211" y="437" type="curve" smooth="yes"/>
      <point x="211" y="667"/>
      <point x="322" y="782"/>
      <point x="478" y="782" type="curve" smooth="yes"/>
      <point x="571" y="782"/>
      <point x="654" y="736"/>
      <point x="691" y="659" type="curve"/>
      <point x="731" y="683"/>
      <point x="746" y="699"/>
      <point x="746" y="772" type="curve"/>
      <point x="650" y="868"/>
      <point x="580" y="883"/>
      <point x="506" y="883" type="curve" smooth="yes"/>
      <point x="250" y="883"/>
      <point x="73" y="620"/>
      <point x="73" y="408" type="curve" smooth="yes"/>
      <point x="73" y="135"/>
      <point x="246" y="-27"/>
      <point x="382" y="-27" type="curve" smooth="yes"/>
      <point x="537" y="-27"/>
    </contour>
  </outline>
</glyph>
<glyph name="g" format="2">
  <advance width="919"/>
  <unicode hex="0067"/>
  <anchor x="460" y="-432" name="H"/>
  <anchor x="460" y="-552" name="L"/>
  <anchor x="919" y="828" name="R"/>
  <anchor x="460" y="966" name="U"/>
  <outline>
    <contour>
      <point x="892" y="-110" type="curve" smooth="yes"/>
      <point x="892" y="-23"/>
      <point x="821" y="71"/>
      <point x="553" y="101" type="curve"/>
      <point x="361" y="124"/>
      <point x="318" y="150"/>
      <point x="318" y="180" type="curve" smooth="yes"/>
      <point x="318" y="190"/>
      <point x="353" y="248"/>
      <point x="463" y="322" type="curve"/>
      <point x="333" y="306" type="line"/>
      <point x="190" y="214"/>
      <point x="167" y="162"/>
      <point x="167" y="140" type="curve" smooth="yes"/>
      <point x="167" y="81"/>
      <point x="235" y="23"/>
      <point x="476" y="-3" type="curve" smooth="yes"/>
      <point x="699" y="-28"/>
      <point x="754" y="-76"/>
      <point x="754" y="-144" type="curve" smooth="yes"/>
      <point x="754" y="-271"/>
      <point x="645" y="-363"/>
      <point x="480" y="-363" type="curve" smooth="yes"/>
      <point x="312" y="-363"/>
      <point x="165" y="-277"/>
      <point x="165" y="-174" type="curve" smooth="yes"/>
      <point x="165" y="-133"/>
      <point x="183" y="-75"/>
      <point x="380" y="27" type="curve"/>
      <point x="375" y="52"/>
      <point x="307" y="56"/>
      <point x="307" y="56" type="curve"/>
      <point x="67" y="-67"/>
      <point x="27" y="-143"/>
      <point x="27" y="-210" type="curve" smooth="yes"/>
      <point x="27" y="-389"/>
      <point x="258" y="-460"/>
      <point x="429" y="-460" type="curve" smooth="yes"/>
      <point x="645" y="-460"/>
      <point x="892" y="-311"/>
    </contour>
    <contour>
      <point x="909" y="855" type="curve"/>
      <point x="891" y="883" type="line"/>
      <point x="834" y="862"/>
      <point x="746" y="828"/>
      <point x="584" y="819" type="curve"/>
      <point x="627" y="748" type="line"/>
      <point x="731" y="745"/>
      <point x="791" y="752"/>
      <point x="857" y="763" type="curve"/>
      <point x="885" y="793"/>
      <point x="895" y="821"/>
    </contour>
    <contour>
      <point x="763" y="589" type="curve" smooth="yes"/>
      <point x="763" y="748"/>
      <point x="625" y="883"/>
      <point x="446" y="883" type="curve" smooth="yes"/>
      <point x="267" y="883"/>
      <point x="92" y="734"/>
      <point x="92" y="553" type="curve" smooth="yes"/>
      <point x="92" y="382"/>
      <point x="222" y="271"/>
      <point x="399" y="271" type="curve" smooth="yes"/>
      <point x="578" y="271"/>
      <point x="763" y="402"/>
    </contour>
    <contour>
      <point x="634" y="552" type="curve" smooth="yes"/>
      <point x="634" y="430"/>
      <point x="544" y="368"/>
      <point x="472" y="368" type="curve" smooth="yes"/>
      <point x="299" y="368"/>
      <point x="220" y="475"/>
      <point x="220" y="606" type="curve" smooth="yes"/>
      <point x="220" y="727"/>
      <point x="322" y="791"/>
      <point x="382" y="791" type="curve" smooth="yes"/>
      <point x="548" y="791"/>
      <point x="634" y="682"/>
    </contour>
  </outline>
</glyph>
<glyph name="h" format="2">
  <advance width="1039"/>
  <unicode hex="0068"/>
  <anchor x="236" y="0" name="H"/>
  <anchor x="530" y="-92" name="L"/>
  <anchor x="530" y="1490" name="U"/>
  <outline>
    <contour>
      <point x="616" y="0" type="line"/>
      <point x="1012" y="0" type="line"/>
      <point x="1012" y="39" type="line"/>
      <point x="915" y="64"/>
      <point x="883" y="79"/>
      <point x="883" y="95" type="curve" smooth="yes"/>
      <point x="883" y="681" type="line" smooth="yes"/>
      <point x="883" y="819"/>
      <point x="785" y="883"/>
      <point x="679" y="883" type="curve" smooth="yes"/>
      <point x="584" y="883"/>
      <point x="423" y="785"/>
      <point x="317" y="629" type="curve"/>
      <point x="317" y="1394" type="line"/>
      <point x="283" y="1426" type="line"/>
      <point x="213" y="1390"/>
      <point x="154" y="1371"/>
      <point x="50" y="1352" type="curve"/>
      <point x="50" y="1315" type="line"/>
      <point x="169" y="1301"/>
      <point x="179" y="1296"/>
      <point x="179" y="1194" type="curve" smooth="yes"/>
      <point x="179" y="95" type="line" smooth="yes"/>
      <point x="179" y="75"/>
      <point x="131" y="60"/>
      <point x="50" y="39" type="curve"/>
      <point x="50" y="0" type="line"/>
      <point x="446" y="0" type="line"/>
      <point x="446" y="39" type="line"/>
      <point x="367" y="56"/>
      <point x="317" y="77"/>
      <point x="317" y="95" type="curve" smooth="yes"/>
      <point x="317" y="505" type="line"/>
      <point x="423" y="676"/>
      <point x="542" y="763"/>
      <point x="627" y="763" type="curve" smooth="yes"/>
      <point x="708" y="763"/>
      <point x="745" y="731"/>
      <point x="745" y="582" type="curve" smooth="yes"/>
      <point x="745" y="95" type="line" smooth="yes"/>
      <point x="745" y="79"/>
      <point x="704" y="62"/>
      <point x="616" y="39" type="curve"/>
    </contour>
  </outline>
</glyph>
<glyph name="i" format="2">
  <advance width="510"/>
  <unicode hex="0069"/>
  <anchor x="262" y="0" name="H"/>
  <anchor x="262" y="-92" name="L"/>
  <anchor x="308" y="0" name="O"/>
  <anchor x="510" y="828" name="R"/>
  <anchor x="262" y="966" name="U"/>
  <outline>
    <contour>
      <point x="358" y="1160" type="curve" smooth="yes"/>
      <point x="358" y="1217"/>
      <point x="333" y="1247"/>
      <point x="280" y="1247" type="curve" smooth="yes"/>
      <point x="222" y="1247"/>
      <point x="174" y="1192"/>
      <point x="174" y="1122" type="curve" smooth="yes"/>
      <point x="174" y="1066"/>
      <point x="197" y="1034"/>
      <point x="252" y="1034" type="curve" smooth="yes"/>
      <point x="312" y="1034"/>
      <point x="358" y="1091"/>
    </contour>
    <contour>
      <point x="64" y="0" type="line"/>
      <point x="460" y="0" type="line"/>
      <point x="460" y="39" type="line"/>
      <point x="370" y="56"/>
      <point x="331" y="80"/>
      <point x="331" y="95" type="curve" smooth="yes"/>
      <point x="331" y="883" type="line"/>
      <point x="299" y="883" type="line"/>
      <point x="237" y="852"/>
      <point x="141" y="824"/>
      <point x="64" y="809" type="curve"/>
      <point x="64" y="772" type="line"/>
      <point x="192" y="760"/>
      <point x="193" y="742"/>
      <point x="193" y="616" type="curve" smooth="yes"/>
      <point x="193" y="95" type="line" smooth="yes"/>
      <point x="193" y="79"/>
      <point x="147" y="56"/>
      <point x="64" y="39" type="curve"/>
    </contour>
  </outline>
</glyph>
<glyph name="j" format="2">
  <advance width="487"/>
  <unicode hex="006A"/>
  <anchor x="257" y="-552" name="L"/>
  <anchor x="258" y="966" name="U"/>
  <outline>
    <contour>
      <point x="354" y="1160" type="curve" smooth="yes"/>
      <point x="354" y="1217"/>
      <point x="328" y="1247"/>
      <point x="276" y="1247" type="curve" smooth="yes"/>
      <point x="217" y="1247"/>
      <point x="170" y="1192"/>
      <point x="170" y="1122" type="curve" smooth="yes"/>
      <point x="170" y="1066"/>
      <point x="193" y="1034"/>
      <point x="248" y="1034" type="curve" smooth="yes"/>
      <point x="308" y="1034"/>
      <point x="354" y="1091"/>
    </contour>
    <contour>
      <point x="326" y="91" type="curve" smooth="yes"/>
      <point x="326" y="883" type="line"/>
      <point x="292" y="883" type="line"/>
      <point x="217" y="851"/>
      <point x="161" y="828"/>
      <point x="59" y="809" type="curve"/>
      <point x="59" y="772" type="line"/>
      <point x="187" y="759"/>
      <point x="188" y="742"/>
      <point x="188" y="616" type="curve" smooth="yes"/>
      <point x="188" y="39" type="line" smooth="yes"/>
      <point x="188" y="-257"/>
      <point x="112" y="-335"/>
      <point x="41" y="-335" type="curve" smooth="yes"/>
      <point x="-4" y="-335"/>
      <point x="-46" y="-328"/>
      <point x="-85" y="-294" type="curve"/>
      <point x="-121" y="-310"/>
      <point x="-202" y="-375"/>
      <point x="-202" y="-396" type="curve" smooth="yes"/>
      <point x="-202" y="-416"/>
      <point x="-125" y="-460"/>
      <point x="-49" y="-460" type="curve" smooth="yes"/>
      <point x="-2" y="-460"/>
      <point x="86" y="-420"/>
      <point x="151" y="-368" type="curve" smooth="yes"/>
      <point x="250" y="-288"/>
      <point x="326" y="-191"/>
    </contour>
  </outline>
</glyph>
<glyph name="k" format="2">
  <advance width="919"/>
  <unicode hex="006B"/>
  <anchor x="230" y="0" name="H"/>
  <anchor x="472" y="-92" name="L"/>
  <anchor x="919" y="828" name="R"/>
  <anchor x="472" y="1490" name="U"/>
  <outline>
    <contour>
      <point x="886" y="816" type="curve"/>
      <point x="886" y="855" type="line"/>
      <point x="538" y="855" type="line"/>
      <point x="538" y="816" type="line"/>
      <point x="602" y="816"/>
      <point x="658" y="805"/>
      <point x="577" y="735" type="curve" smooth="yes"/>
      <point x="289" y="483" type="line"/>
      <point x="360" y="456" type="line"/>
      <point x="739" y="759" type="line" smooth="yes"/>
      <point x="791" y="800"/>
      <point x="832" y="810"/>
    </contour>
    <contour>
      <point x="27" y="0" type="line"/>
      <point x="395" y="0" type="line"/>
      <point x="395" y="39" type="line"/>
      <point x="304" y="68"/>
      <point x="294" y="77"/>
      <point x="294" y="95" type="curve" smooth="yes"/>
      <point x="294" y="1394" type="line"/>
      <point x="260" y="1426" type="line"/>
      <point x="198" y="1390"/>
      <point x="112" y="1369"/>
      <point x="27" y="1352" type="curve"/>
      <point x="27" y="1315" type="line"/>
      <point x="133" y="1303"/>
      <point x="156" y="1300"/>
      <point x="156" y="1192" type="curve" smooth="yes"/>
      <point x="156" y="95" type="line" smooth="yes"/>
      <point x="156" y="73"/>
      <point x="108" y="60"/>
      <point x="27" y="39" type="curve"/>
    </contour>
    <contour>
      <point x="919" y="16" type="curve"/>
      <point x="913" y="56" type="line"/>
      <point x="841" y="50"/>
      <point x="805" y="62"/>
      <point x="771" y="102" type="curve" smooth="yes"/>
      <point x="387" y="553" type="line"/>
      <point x="291" y="483" type="line"/>
      <point x="644" y="39" type="line" smooth="yes"/>
      <point x="672" y="3"/>
      <point x="698" y="-9"/>
      <point x="749" y="-9" type="curve" smooth="yes"/>
      <point x="775" y="-9"/>
      <point x="847" y="0"/>
    </contour>
  </outline>
</glyph>
<glyph name="l" format="2">
  <advance width="510"/>
  <unicode hex="006C"/>
  <anchor x="262" y="0" name="H"/>
  <anchor x="262" y="-92" name="L"/>
  <anchor x="492" y="828" name="R"/>
  <anchor x="262" y="1554" name="U"/>
  <outline>
    <contour>
      <point x="55" y="0" type="line"/>
      <point x="469" y="0" type="line"/>
      <point x="469" y="39" type="line"/>
      <point x="368" y="56"/>
      <point x="331" y="77"/>
      <point x="331" y="95" type="curve" smooth="yes"/>
      <point x="331" y="1394" type="line"/>
      <point x="298" y="1426" type="line"/>
      <point x="222" y="1386"/>
      <point x="152" y="1369"/>
      <point x="64" y="1352" type="curve"/>
      <point x="64" y="1315" type="line"/>
      <point x="167" y="1303"/>
      <point x="193" y="1299"/>
      <point x="193" y="1192" type="curve" smooth="yes"/>
      <point x="193" y="95" type="line" smooth="yes"/>
      <point x="193" y="75"/>
      <point x="161" y="57"/>
      <point x="55" y="39" type="curve"/>
    </contour>
  </outline>
</glyph>
<glyph name="m" format="2">
  <advance width="1513"/>
  <unicode hex="006D"/>
  <anchor x="1288" y="0" name="H"/>
  <anchor x="768" y="-92" name="L"/>
  <anchor x="768" y="966" name="U"/>
  <outline>
    <contour>
      <point x="1091" y="0" type="line"/>
      <point x="1486" y="0" type="line"/>
      <point x="1486" y="39" type="line"/>
      <point x="1390" y="64"/>
      <point x="1357" y="79"/>
      <point x="1357" y="95" type="curve" smooth="yes"/>
      <point x="1357" y="681" type="line" smooth="yes"/>
      <point x="1357" y="819"/>
      <point x="1269" y="883"/>
      <point x="1152" y="883" type="curve" smooth="yes"/>
      <point x="1062" y="883"/>
      <point x="940" y="801"/>
      <point x="837" y="647" type="curve"/>
      <point x="837" y="667" type="line" smooth="yes"/>
      <point x="837" y="830"/>
      <point x="749" y="883"/>
      <point x="632" y="883" type="curve" smooth="yes"/>
      <point x="544" y="883"/>
      <point x="423" y="803"/>
      <point x="313" y="640" type="curve"/>
      <point x="303" y="851" type="line"/>
      <point x="271" y="883" type="line"/>
      <point x="205" y="851"/>
      <point x="143" y="824"/>
      <point x="50" y="809" type="curve"/>
      <point x="50" y="772" type="line"/>
      <point x="169" y="759"/>
      <point x="179" y="751"/>
      <point x="179" y="654" type="curve" smooth="yes"/>
      <point x="179" y="95" type="line" smooth="yes"/>
      <point x="179" y="75"/>
      <point x="131" y="60"/>
      <point x="50" y="39" type="curve"/>
      <point x="50" y="0" type="line"/>
      <point x="446" y="0" type="line"/>
      <point x="446" y="39" type="line"/>
      <point x="367" y="56"/>
      <point x="317" y="77"/>
      <point x="317" y="95" type="curve" smooth="yes"/>
      <point x="317" y="527" type="line"/>
      <point x="421" y="681"/>
      <point x="512" y="772"/>
      <point x="595" y="772" type="curve" smooth="yes"/>
      <point x="670" y="772"/>
      <point x="699" y="733"/>
      <point x="699" y="582" type="curve" smooth="yes"/>
      <point x="699" y="95" type="line" smooth="yes"/>
      <point x="699" y="79"/>
      <point x="659" y="62"/>
      <point x="571" y="39" type="curve"/>
      <point x="571" y="0" type="line"/>
      <point x="966" y="0" type="line"/>
      <point x="966" y="39" type="line"/>
      <point x="870" y="64"/>
      <point x="837" y="79"/>
      <point x="837" y="95" type="curve" smooth="yes"/>
      <point x="837" y="527" type="line"/>
      <point x="930" y="679"/>
      <point x="1034" y="772"/>
      <point x="1115" y="772" type="curve" smooth="yes"/>
      <point x="1188" y="772"/>
      <point x="1219" y="733"/>
      <point x="1219" y="582" type="curve" smooth="yes"/>
      <point x="1219" y="95" type="line" smooth="yes"/>
      <point x="1219" y="79"/>
      <point x="1179" y="62"/>
      <point x="1091" y="39" type="curve"/>
    </contour>
  </outline>
</glyph>
<glyph name="n" format="2">
  <advance width="1039"/>
  <unicode hex="006E"/>
  <anchor x="814" y="0" name="H"/>
  <anchor x="530" y="-92" name="L"/>
  <anchor x="530" y="966" name="U"/>
  <outline>
    <contour>
      <point x="616" y="0" type="line"/>
      <point x="1012" y="0" type="line"/>
      <point x="1012" y="39" type="line"/>
      <point x="915" y="64"/>
      <point x="883" y="79"/>
      <point x="883" y="95" type="curve" smooth="yes"/>
      <point x="883" y="681" type="line" smooth="yes"/>
      <point x="883" y="819"/>
      <point x="785" y="883"/>
      <point x="679" y="883" type="curve" smooth="yes"/>
      <point x="584" y="883"/>
      <point x="421" y="785"/>
      <point x="313" y="621" type="curve"/>
      <point x="303" y="851" type="line"/>
      <point x="271" y="883" type="line"/>
      <point x="203" y="849"/>
      <point x="133" y="822"/>
      <point x="50" y="809" type="curve"/>
      <point x="50" y="772" type="line"/>
      <point x="174" y="759"/>
      <point x="179" y="749"/>
      <point x="179" y="654" type="curve" smooth="yes"/>
      <point x="179" y="95" type="line" smooth="yes"/>
      <point x="179" y="75"/>
      <point x="131" y="60"/>
      <point x="50" y="39" type="curve"/>
      <point x="50" y="0" type="line"/>
      <point x="446" y="0" type="line"/>
      <point x="446" y="39" type="line"/>
      <point x="367" y="56"/>
      <point x="317" y="77"/>
      <point x="317" y="95" type="curve" smooth="yes"/>
      <point x="317" y="505" type="line"/>
      <point x="436" y="695"/>
      <point x="552" y="763"/>
      <point x="627" y="763" type="curve" smooth="yes"/>
      <point x="713" y="763"/>
      <point x="745" y="731"/>
      <point x="745" y="582" type="curve" smooth="yes"/>
      <point x="745" y="95" type="line" smooth="yes"/>
      <point x="745" y="79"/>
      <point x="704" y="62"/>
      <point x="616" y="39" type="curve"/>
    </contour>
  </outline>
</glyph>
<glyph name="o" format="2">
  <advance width="947"/>
  <unicode hex="006F"/>
  <anchor x="492" y="0" name="H"/>
  <anchor x="492" y="-92" name="L"/>
  <anchor x="529" y="0" name="O"/>
  <anchor x="960" y="828" name="R"/>
  <anchor x="492" y="966" name="U"/>
  <outline>
    <contour>
      <point x="874" y="446" type="curve" smooth="yes"/>
      <point x="874" y="697"/>
      <point x="723" y="883"/>
      <point x="492" y="883" type="curve" smooth="yes"/>
      <point x="262" y="883"/>
      <point x="73" y="652"/>
      <point x="73" y="408" type="curve" smooth="yes"/>
      <point x="73" y="158"/>
      <point x="224" y="-27"/>
      <point x="456" y="-27" type="curve" smooth="yes"/>
      <point x="679" y="-27"/>
      <point x="874" y="201"/>
    </contour>
    <contour>
      <point x="731" y="418" type="curve" smooth="yes"/>
      <point x="731" y="208"/>
      <point x="655" y="73"/>
      <point x="482" y="73" type="curve" smooth="yes"/>
      <point x="368" y="73"/>
      <point x="216" y="241"/>
      <point x="216" y="435" type="curve" smooth="yes"/>
      <point x="216" y="631"/>
      <point x="278" y="782"/>
      <point x="465" y="782" type="curve" smooth="yes"/>
      <point x="591" y="782"/>
      <point x="731" y="612"/>
    </contour>
  </outline>
</glyph>
<glyph name="q" format="2">
  <advance width="970"/>
  <unicode hex="0071"/>
  <anchor x="374" y="-92" name="L"/>
  <anchor x="993" y="828" name="R"/>
  <anchor x="512" y="966" name="U"/>
  <outline>
    <contour>
      <point x="529" y="-441" type="line"/>
      <point x="951" y="-441" type="line"/>
      <point x="951" y="-402" type="line"/>
      <point x="857" y="-384"/>
      <point x="823" y="-364"/>
      <point x="823" y="-345" type="curve" smooth="yes"/>
      <point x="823" y="659" type="line" smooth="yes"/>
      <point x="823" y="770"/>
      <point x="851" y="855"/>
      <point x="851" y="855" type="curve"/>
      <point x="823" y="883" type="line"/>
      <point x="793" y="852"/>
      <point x="724" y="793"/>
      <point x="685" y="780" type="curve"/>
      <point x="685" y="-345" type="line" smooth="yes"/>
      <point x="685" y="-366"/>
      <point x="644" y="-384"/>
      <point x="529" y="-402" type="curve"/>
    </contour>
    <contour>
      <point x="753" y="239" type="curve"/>
      <point x="747" y="248"/>
      <point x="735" y="265"/>
      <point x="719" y="273" type="curve"/>
      <point x="632" y="190"/>
      <point x="544" y="92"/>
      <point x="448" y="92" type="curve" smooth="yes"/>
      <point x="346" y="92"/>
      <point x="211" y="228"/>
      <point x="211" y="437" type="curve" smooth="yes"/>
      <point x="211" y="667"/>
      <point x="341" y="782"/>
      <point x="478" y="782" type="curve" smooth="yes"/>
      <point x="571" y="782"/>
      <point x="654" y="736"/>
      <point x="691" y="659" type="curve"/>
      <point x="731" y="683"/>
      <point x="746" y="699"/>
      <point x="746" y="772" type="curve"/>
      <point x="650" y="868"/>
      <point x="580" y="883"/>
      <point x="506" y="883" type="curve" smooth="yes"/>
      <point x="460" y="883"/>
      <point x="386" y="861"/>
      <point x="316" y="823" type="curve" smooth="yes"/>
      <point x="230" y="774"/>
      <point x="73" y="623"/>
      <point x="73" y="408" type="curve" smooth="yes"/>
      <point x="73" y="135"/>
      <point x="246" y="-27"/>
      <point x="382" y="-27" type="curve" smooth="yes"/>
      <point x="537" y="-27"/>
      <point x="629" y="77"/>
    </contour>
  </outline>
</glyph>
<glyph name="t" format="2">
  <advance width="648"/>
  <unicode hex="0074"/>
  <anchor x="320" y="0" name="H"/>
  <anchor x="320" y="-92" name="L"/>
  <anchor x="460" y="828" name="R"/>
  <anchor x="320" y="1214" name="U"/>
  <outline>
    <contour>
      <point x="621" y="107" type="curve"/>
      <point x="595" y="154" type="line"/>
      <point x="499" y="105"/>
      <point x="437" y="92"/>
      <point x="393" y="92" type="curve" smooth="yes"/>
      <point x="320" y="92"/>
      <point x="294" y="135"/>
      <point x="294" y="282" type="curve" smooth="yes"/>
      <point x="294" y="768" type="line"/>
      <point x="342" y="768" type="line" smooth="yes"/>
      <point x="441" y="768"/>
      <point x="499" y="750"/>
      <point x="529" y="736" type="curve"/>
      <point x="553" y="747"/>
      <point x="598" y="794"/>
      <point x="621" y="828" type="curve"/>
      <point x="595" y="855" type="line"/>
      <point x="294" y="855" type="line"/>
      <point x="294" y="1154" type="line"/>
      <point x="265" y="1177" type="line"/>
      <point x="156" y="1081" type="line"/>
      <point x="156" y="855" type="line"/>
      <point x="90" y="855" type="line"/>
      <point x="18" y="793" type="line"/>
      <point x="37" y="768" type="line"/>
      <point x="156" y="768" type="line"/>
      <point x="156" y="203" type="line" smooth="yes"/>
      <point x="156" y="32"/>
      <point x="231" y="-27"/>
      <point x="316" y="-27" type="curve" smooth="yes"/>
      <point x="380" y="-27"/>
      <point x="501" y="18"/>
    </contour>
  </outline>
</glyph>
<glyph name="v" format="2">
  <advance width="929"/>
  <unicode hex="0076"/>
  <anchor x="459" y="0" name="H"/>
  <anchor x="474" y="-92" name="L"/>
  <anchor x="423" y="0" name="O"/>
  <anchor x="493" y="966" name="U"/>
  <outline>
    <contour>
      <point x="909" y="816" type="curve"/>
      <point x="909" y="855" type="line"/>
      <point x="612" y="855" type="line"/>
      <point x="612" y="816" type="line"/>
      <point x="702" y="802"/>
      <point x="721" y="790"/>
      <point x="708" y="753" type="curve" smooth="yes"/>
      <point x="495" y="163" type="line"/>
      <point x="269" y="753" type="line" smooth="yes"/>
      <point x="253" y="793"/>
      <point x="278" y="804"/>
      <point x="373" y="816" type="curve"/>
      <point x="373" y="855" type="line"/>
      <point x="18" y="855" type="line"/>
      <point x="18" y="816" type="line"/>
      <point x="79" y="802"/>
      <point x="107" y="785"/>
      <point x="120" y="753" type="curve" smooth="yes"/>
      <point x="424" y="-27" type="line"/>
      <point x="456" y="-20"/>
      <point x="528" y="0"/>
      <point x="548" y="54" type="curve" smooth="yes"/>
      <point x="808" y="753" type="line" smooth="yes"/>
      <point x="821" y="789"/>
      <point x="836" y="798"/>
    </contour>
  </outline>
</glyph>
<glyph name="w" format="2">
  <advance width="1330"/>
  <unicode hex="0077"/>
  <anchor x="671" y="-92" name="L"/>
  <anchor x="690" y="966" name="U"/>
  <outline>
    <contour>
      <point x="1311" y="816" type="curve"/>
      <point x="1311" y="855" type="line"/>
      <point x="1012" y="855" type="line"/>
      <point x="1012" y="816" type="line"/>
      <point x="1096" y="802"/>
      <point x="1127" y="787"/>
      <point x="1119" y="759" type="curve" smooth="yes"/>
      <point x="960" y="174" type="line"/>
      <point x="721" y="855" type="line"/>
      <point x="706" y="855"/>
      <point x="663" y="855"/>
      <point x="663" y="855" type="curve"/>
      <point x="655" y="640" type="line"/>
      <point x="889" y="-27" type="line"/>
      <point x="920" y="-20"/>
      <point x="1000" y="0"/>
      <point x="1015" y="54" type="curve" smooth="yes"/>
      <point x="1219" y="759" type="line" smooth="yes"/>
      <point x="1226" y="787"/>
      <point x="1235" y="798"/>
    </contour>
    <contour>
      <point x="482" y="54" type="curve" smooth="yes"/>
      <point x="727" y="759" type="line"/>
      <point x="708" y="855" type="line"/>
      <point x="708" y="855"/>
      <point x="674" y="855"/>
      <point x="657" y="855" type="curve"/>
      <point x="431" y="174" type="line"/>
      <point x="258" y="759" type="line" smooth="yes"/>
      <point x="250" y="782"/>
      <point x="253" y="804"/>
      <point x="373" y="816" type="curve"/>
      <point x="373" y="855" type="line"/>
      <point x="18" y="855" type="line"/>
      <point x="18" y="816" type="line"/>
      <point x="79" y="802"/>
      <point x="113" y="782"/>
      <point x="118" y="759" type="curve"/>
      <point x="359" y="-27" type="line"/>
      <point x="391" y="-20"/>
      <point x="463" y="-1"/>
    </contour>
  </outline>
</glyph>
<glyph name="x" format="2">
  <advance width="947"/>
  <unicode hex="0078"/>
  <anchor x="736" y="0" name="H"/>
  <anchor x="476" y="-92" name="L"/>
  <anchor x="476" y="966" name="U"/>
  <outline>
    <contour>
      <point x="915" y="816" type="curve"/>
      <point x="915" y="855" type="line"/>
      <point x="564" y="855" type="line"/>
      <point x="564" y="816" type="line"/>
      <point x="640" y="808"/>
      <point x="674" y="794"/>
      <point x="632" y="735" type="curve" smooth="yes"/>
      <point x="460" y="485" type="line"/>
      <point x="508" y="414" type="line"/>
      <point x="735" y="733" type="line" smooth="yes"/>
      <point x="767" y="778"/>
      <point x="816" y="808"/>
    </contour>
    <contour>
      <point x="564" y="0" type="line"/>
      <point x="934" y="0" type="line"/>
      <point x="934" y="39" type="line"/>
      <point x="853" y="50"/>
      <point x="814" y="89"/>
      <point x="787" y="126" type="curve"/>
      <point x="343" y="735" type="line" smooth="yes"/>
      <point x="300" y="793"/>
      <point x="339" y="808"/>
      <point x="414" y="816" type="curve"/>
      <point x="414" y="855" type="line"/>
      <point x="28" y="855" type="line"/>
      <point x="28" y="816" type="line"/>
      <point x="127" y="808"/>
      <point x="152" y="777"/>
      <point x="184" y="733" type="curve" smooth="yes"/>
      <point x="632" y="120" type="line" smooth="yes"/>
      <point x="681" y="54"/>
      <point x="625" y="45"/>
      <point x="564" y="39" type="curve"/>
    </contour>
    <contour>
      <point x="276" y="120" type="curve" smooth="yes"/>
      <point x="460" y="380" type="line"/>
      <point x="413" y="454" type="line"/>
      <point x="177" y="126" type="line" smooth="yes"/>
      <point x="150" y="88"/>
      <point x="116" y="54"/>
      <point x="18" y="39" type="curve"/>
      <point x="18" y="0" type="line"/>
      <point x="367" y="0" type="line"/>
      <point x="367" y="39" type="line"/>
      <point x="309" y="45"/>
      <point x="230" y="54"/>
    </contour>
  </outline>
</glyph>
<glyph name="z" format="2">
  <advance width="799"/>
  <unicode hex="007A"/>
  <anchor x="415" y="0" name="H"/>
  <anchor x="415" y="-92" name="L"/>
  <anchor x="441" y="966" name="U"/>
  <outline>
    <contour>
      <point x="762" y="228" type="curve"/>
      <point x="719" y="237" type="line"/>
      <point x="691" y="126"/>
      <point x="667" y="82"/>
      <point x="636" y="82" type="curve" smooth="yes"/>
      <point x="248" y="82" type="line"/>
      <point x="760" y="816" type="line"/>
      <point x="740" y="855" type="line"/>
      <point x="287" y="855" type="line" smooth="yes"/>
      <point x="208" y="855"/>
      <point x="179" y="855"/>
      <point x="126" y="870" type="curve"/>
      <point x="109" y="645" type="line"/>
      <point x="154" y="634" type="line"/>
      <point x="179" y="747"/>
      <point x="222" y="772"/>
      <point x="262" y="772" type="curve" smooth="yes"/>
      <point x="580" y="772" type="line"/>
      <point x="69" y="41" type="line"/>
      <point x="93" y="0" type="line"/>
      <point x="751" y="0" type="line"/>
      <point x="759" y="43"/>
      <point x="762" y="150"/>
    </contour>
  </outline>
</glyph>
<glyph name="braceright" format="2">
  <advance width="632"/>
  <unicode hex="007D"/>
  <outline>
    <contour>
      <point x="540" y="598" type="curve"/>
      <point x="525" y="650" type="line"/>
      <point x="487" y="642"/>
      <point x="497" y="644"/>
      <point x="465" y="644" type="curve" smooth="yes"/>
      <point x="373" y="644"/>
      <point x="322" y="696"/>
      <point x="322" y="795" type="curve" smooth="yes"/>
      <point x="322" y="946"/>
      <point x="357" y="973"/>
      <point x="357" y="1117" type="curve" smooth="yes"/>
      <point x="357" y="1293"/>
      <point x="273" y="1391"/>
      <point x="66" y="1472" type="curve"/>
      <point x="45" y="1415" type="line"/>
      <point x="172" y="1345"/>
      <point x="205" y="1280"/>
      <point x="205" y="1142" type="curve" smooth="yes"/>
      <point x="205" y="1022"/>
      <point x="169" y="975"/>
      <point x="169" y="829" type="curve" smooth="yes"/>
      <point x="169" y="692"/>
      <point x="210" y="604"/>
      <point x="335" y="580" type="curve"/>
      <point x="230" y="535"/>
      <point x="169" y="437"/>
      <point x="169" y="335" type="curve" smooth="yes"/>
      <point x="169" y="190"/>
      <point x="205" y="174"/>
      <point x="205" y="32" type="curve" smooth="yes"/>
      <point x="205" y="-95"/>
      <point x="131" y="-184"/>
      <point x="35" y="-244" type="curve"/>
      <point x="60" y="-289" type="line"/>
      <point x="242" y="-207"/>
      <point x="357" y="-80"/>
      <point x="357" y="84" type="curve" smooth="yes"/>
      <point x="357" y="235"/>
      <point x="322" y="239"/>
      <point x="322" y="388" type="curve" smooth="yes"/>
      <point x="322" y="482"/>
      <point x="395" y="561"/>
    </contour>
  </outline>
</glyph>
<glyph name="cent" format="2">
  <advance width="884"/>
  <unicode hex="00A2"/>
  <outline>
    <contour>
      <point x="497" y="-26"/>
      <point x="519" y="-7" type="curve"/>
      <point x="519" y="1125" type="line"/>
      <point x="495" y="1145" type="line"/>
      <point x="458" y="1136"/>
      <point x="471" y="1138"/>
      <point x="437" y="1116" type="curve"/>
      <point x="437" y="-14" type="line"/>
      <point x="460" y="-37" type="line"/>
      <point x="489" y="-28"/>
    </contour>
    <contour>
      <point x="634" y="133"/>
      <point x="794" y="322" type="curve"/>
      <point x="759" y="359" type="line"/>
      <point x="625" y="242"/>
      <point x="586" y="241"/>
      <point x="516" y="241" type="curve" smooth="yes"/>
      <point x="368" y="241"/>
      <point x="235" y="356"/>
      <point x="235" y="566" type="curve" smooth="yes"/>
      <point x="235" y="794"/>
      <point x="354" y="893"/>
      <point x="482" y="893" type="curve" smooth="yes"/>
      <point x="609" y="893"/>
      <point x="674" y="823"/>
      <point x="697" y="780" type="curve"/>
      <point x="729" y="770" type="line"/>
      <point x="751" y="802"/>
      <point x="787" y="891"/>
      <point x="782" y="919" type="curve"/>
      <point x="740" y="965"/>
      <point x="645" y="992"/>
      <point x="564" y="992" type="curve" smooth="yes"/>
      <point x="301" y="992"/>
      <point x="95" y="800"/>
      <point x="95" y="539" type="curve" smooth="yes"/>
      <point x="95" y="265"/>
      <point x="273" y="118"/>
      <point x="449" y="118" type="curve" smooth="yes"/>
      <point x="564" y="118"/>
    </contour>
  </outline>
</glyph>
<glyph name="sterling" format="2">
  <advance width="884"/>
  <unicode hex="00A3"/>
  <outline>
    <contour>
      <point x="792" y="1071" type="curve"/>
      <point x="678" y="1129"/>
      <point x="629" y="1136"/>
      <point x="564" y="1136" type="curve" smooth="yes"/>
      <point x="273" y="1136"/>
      <point x="152" y="907"/>
      <point x="181" y="531" type="curve" smooth="yes"/>
      <point x="210" y="145"/>
      <point x="176" y="114"/>
      <point x="58" y="17" type="curve"/>
      <point x="80" y="-27" type="line"/>
      <point x="260" y="87"/>
      <point x="623" y="-91"/>
      <point x="788" y="0" type="curve"/>
      <point x="797" y="35"/>
      <point x="816" y="127"/>
      <point x="826" y="233" type="curve"/>
      <point x="786" y="250" type="line"/>
      <point x="734" y="106"/>
      <point x="691" y="95"/>
      <point x="578" y="92" type="curve" smooth="yes"/>
      <point x="442" y="89"/>
      <point x="404" y="106"/>
      <point x="237" y="92" type="curve"/>
      <point x="308" y="190"/>
      <point x="360" y="356"/>
      <point x="338" y="547" type="curve" smooth="yes"/>
      <point x="285" y="1003"/>
      <point x="397" y="1045"/>
      <point x="496" y="1045" type="curve" smooth="yes"/>
      <point x="620" y="1045"/>
      <point x="695" y="979"/>
      <point x="713" y="828" type="curve"/>
      <point x="756" y="828" type="line"/>
      <point x="770" y="874"/>
      <point x="790" y="1009"/>
    </contour>
    <contour>
      <point x="565" y="493" type="line"/>
      <point x="588" y="555" type="line"/>
      <point x="565" y="576" type="line"/>
      <point x="79" y="576" type="line"/>
      <point x="71" y="557"/>
      <point x="64" y="534"/>
      <point x="58" y="516" type="curve"/>
      <point x="79" y="493" type="line"/>
    </contour>
  </outline>
</glyph>
<glyph name="yen" format="2">
  <advance width="884"/>
  <unicode hex="00A5"/>
  <outline>
    <contour>
      <point x="217" y="0" type="line"/>
      <point x="667" y="0" type="line"/>
      <point x="667" y="39" type="line"/>
      <point x="552" y="62"/>
      <point x="515" y="90"/>
      <point x="515" y="105" type="curve" smooth="yes"/>
      <point x="515" y="401" type="line"/>
      <point x="764" y="401" type="line"/>
      <point x="787" y="463" type="line"/>
      <point x="764" y="484" type="line"/>
      <point x="515" y="484" type="line"/>
      <point x="515" y="531" type="line"/>
      <point x="774" y="1007" type="line" smooth="yes"/>
      <point x="792" y="1039"/>
      <point x="834" y="1052"/>
      <point x="918" y="1068" type="curve"/>
      <point x="918" y="1107" type="line"/>
      <point x="553" y="1107" type="line"/>
      <point x="553" y="1068" type="line"/>
      <point x="648" y="1056"/>
      <point x="674" y="1039"/>
      <point x="655" y="1007" type="curve" smooth="yes"/>
      <point x="459" y="658" type="line"/>
      <point x="373" y="835"/>
      <point x="303" y="962"/>
      <point x="211" y="1081" type="curve" smooth="yes"/>
      <point x="192" y="1104"/>
      <point x="166" y="1116"/>
      <point x="139" y="1116" type="curve" smooth="yes"/>
      <point x="89" y="1116"/>
      <point x="10" y="1107"/>
      <point x="-61" y="1097" type="curve"/>
      <point x="-57" y="1058" type="line"/>
      <point x="44" y="1058"/>
      <point x="70" y="1035"/>
      <point x="92" y="1007" type="curve" smooth="yes"/>
      <point x="176" y="901"/>
      <point x="283" y="713"/>
      <point x="368" y="533" type="curve"/>
      <point x="368" y="484" type="line"/>
      <point x="117" y="484" type="line"/>
      <point x="110" y="465"/>
      <point x="103" y="442"/>
      <point x="97" y="424" type="curve"/>
      <point x="117" y="401" type="line"/>
      <point x="368" y="401" type="line"/>
      <point x="368" y="105" type="line" smooth="yes"/>
      <point x="368" y="88"/>
      <point x="328" y="62"/>
      <point x="217" y="39" type="curve"/>
    </contour>
  </outline>
</glyph>
<glyph name="brokenbar" format="2">
  <advance width="460"/>
  <unicode hex="00A6"/>
  <outline>
    <contour>
      <point x="294" y="678" type="curve"/>
      <point x="294" y="1516" type="line"/>
      <point x="260" y="1536" type="line"/>
      <point x="222" y="1527"/>
      <point x="201" y="1511"/>
      <point x="165" y="1491" type="curve"/>
      <point x="165" y="651" type="line"/>
      <point x="199" y="631" type="line"/>
      <point x="230" y="640"/>
      <point x="269" y="658"/>
    </contour>
    <contour>
      <point x="294" y="-412" type="curve"/>
      <point x="294" y="415" type="line"/>
      <point x="260" y="438" type="line"/>
      <point x="222" y="426"/>
      <point x="201" y="412"/>
      <point x="165" y="391" type="curve"/>
      <point x="165" y="-438" type="line"/>
      <point x="199" y="-460" type="line"/>
      <point x="230" y="-449"/>
      <point x="269" y="-431"/>
    </contour>
  </outline>
</glyph>
<glyph name="section" format="2">
  <advance width="884"/>
  <unicode hex="00A7"/>
  <outline>
    <contour>
      <point x="403" y="-27" type="curve" smooth="yes"/>
      <point x="475" y="-27"/>
      <point x="720" y="-18"/>
      <point x="720" y="241" type="curve" smooth="yes"/>
      <point x="720" y="379"/>
      <point x="601" y="432"/>
      <point x="494" y="486" type="curve"/>
      <point x="310" y="591"/>
      <point x="230" y="644"/>
      <point x="230" y="756" type="curve" smooth="yes"/>
      <point x="230" y="834"/>
      <point x="282" y="895"/>
      <point x="374" y="908" type="curve"/>
      <point x="329" y="973" type="line"/>
      <point x="210" y="943"/>
      <point x="109" y="827"/>
      <point x="109" y="713" type="curve" smooth="yes"/>
      <point x="109" y="556"/>
      <point x="209" y="474"/>
      <point x="372" y="385" type="curve" smooth="yes"/>
      <point x="483" y="324"/>
      <point x="600" y="288"/>
      <point x="600" y="190" type="curve" smooth="yes"/>
      <point x="600" y="103"/>
      <point x="538" y="62"/>
      <point x="449" y="62" type="curve" smooth="yes"/>
      <point x="322" y="62"/>
      <point x="225" y="156"/>
      <point x="219" y="259" type="curve"/>
      <point x="180" y="269" type="line"/>
      <point x="162" y="214"/>
      <point x="157" y="56"/>
      <point x="173" y="48" type="curve"/>
      <point x="255" y="3"/>
      <point x="345" y="-27"/>
    </contour>
    <contour>
      <point x="581" y="339" type="line"/>
      <point x="653" y="341"/>
      <point x="774" y="436"/>
      <point x="774" y="603" type="curve" smooth="yes"/>
      <point x="774" y="771"/>
      <point x="658" y="834"/>
      <point x="494" y="928" type="curve" smooth="yes"/>
      <point x="360" y="1004"/>
      <point x="291" y="1055"/>
      <point x="291" y="1140" type="curve" smooth="yes"/>
      <point x="291" y="1205"/>
      <point x="340" y="1242"/>
      <point x="421" y="1242" type="curve" smooth="yes"/>
      <point x="481" y="1242"/>
      <point x="547" y="1201"/>
      <point x="605" y="1114" type="curve"/>
      <point x="641" y="1106" type="line"/>
      <point x="656" y="1126"/>
      <point x="701" y="1230"/>
      <point x="687" y="1244" type="curve"/>
      <point x="637" y="1288"/>
      <point x="522" y="1324"/>
      <point x="445" y="1324" type="curve" smooth="yes"/>
      <point x="306" y="1324"/>
      <point x="172" y="1256"/>
      <point x="172" y="1104" type="curve" smooth="yes"/>
      <point x="172" y="979"/>
      <point x="252" y="891"/>
      <point x="372" y="827" type="curve" smooth="yes"/>
      <point x="563" y="724"/>
      <point x="654" y="659"/>
      <point x="654" y="546" type="curve" smooth="yes"/>
      <point x="654" y="472"/>
      <point x="593" y="412"/>
      <point x="505" y="412" type="curve"/>
    </contour>
  </outline>
</glyph>
<glyph name="logicalnot" format="2">
  <advance width="884"/>
  <unicode hex="00AC"/>
  <outline>
    <contour>
      <point x="819" y="214" type="curve"/>
      <point x="819" y="548" type="line"/>
      <point x="793" y="568" type="line"/>
      <point x="793" y="568"/>
      <point x="808" y="568"/>
      <point x="84" y="568" type="curve"/>
      <point x="73" y="544"/>
      <point x="62" y="512"/>
      <point x="56" y="487" type="curve"/>
      <point x="79" y="465" type="line"/>
      <point x="717" y="465" type="line"/>
      <point x="717" y="190" type="line"/>
      <point x="740" y="167" type="line"/>
      <point x="770" y="177"/>
      <point x="794" y="195"/>
    </contour>
  </outline>
</glyph>
<glyph name="macron" format="2">
  <advance width="929"/>
  <unicode hex="00AF"/>
  <outline>
    <contour>
      <point x="775" y="1178" type="curve"/>
      <point x="755" y="1200" type="line"/>
      <point x="191" y="1200" type="line"/>
      <point x="179" y="1176"/>
      <point x="159" y="1130"/>
      <point x="153" y="1104" type="curve"/>
      <point x="173" y="1081" type="line"/>
      <point x="739" y="1081" type="line"/>
      <point x="748" y="1104"/>
      <point x="770" y="1151"/>
    </contour>
  </outline>
</glyph>
<glyph name="degree" format="2">
  <advance width="674"/>
  <unicode hex="00B0"/>
  <outline>
    <contour>
      <point x="545" y="961" type="curve"/>
      <point x="545" y="1055"/>
      <point x="467" y="1136"/>
      <point x="371" y="1136" type="curve" smooth="yes"/>
      <point x="256" y="1136"/>
      <point x="128" y="1024"/>
      <point x="128" y="872" type="curve" smooth="yes"/>
      <point x="128" y="777"/>
      <point x="201" y="698"/>
      <point x="302" y="698" type="curve" smooth="yes"/>
      <point x="415" y="698"/>
      <point x="545" y="810"/>
    </contour>
    <contour>
      <point x="445" y="915" type="curve"/>
      <point x="445" y="830"/>
      <point x="385" y="782"/>
      <point x="326" y="782" type="curve" smooth="yes"/>
      <point x="265" y="782"/>
      <point x="230" y="849"/>
      <point x="230" y="918" type="curve" smooth="yes"/>
      <point x="230" y="999"/>
      <point x="287" y="1050"/>
      <point x="347" y="1050" type="curve" smooth="yes"/>
      <point x="407" y="1050"/>
      <point x="445" y="987"/>
    </contour>
  </outline>
</glyph>
<glyph name="plusminus" format="2">
  <advance width="772"/>
  <unicode hex="00B1"/>
  <outline>
    <contour>
      <point x="710" y="612"/>
      <point x="715" y="637" type="curve"/>
      <point x="693" y="659" type="line"/>
      <point x="84" y="659" type="line"/>
      <point x="73" y="635"/>
      <point x="62" y="605"/>
      <point x="56" y="580" type="curve"/>
      <point x="79" y="558" type="line"/>
      <point x="688" y="558" type="line"/>
      <point x="697" y="578"/>
    </contour>
    <contour>
      <point x="414" y="301"/>
      <point x="438" y="313" type="curve"/>
      <point x="438" y="912" type="line"/>
      <point x="416" y="933" type="line"/>
      <point x="390" y="927"/>
      <point x="356" y="914"/>
      <point x="333" y="907" type="curve"/>
      <point x="333" y="305" type="line"/>
      <point x="356" y="285" type="line"/>
      <point x="382" y="290"/>
    </contour>
    <contour>
      <point x="710" y="178"/>
      <point x="715" y="203" type="curve"/>
      <point x="693" y="225" type="line"/>
      <point x="84" y="225" type="line"/>
      <point x="73" y="201"/>
      <point x="62" y="171"/>
      <point x="56" y="146" type="curve"/>
      <point x="79" y="124" type="line"/>
      <point x="688" y="124" type="line"/>
      <point x="697" y="144"/>
    </contour>
  </outline>
</glyph>
<glyph name="twosuperior" format="2">
  <advance width="619"/>
  <unicode hex="00B2"/>
  <anchor x="310" y="506" name="L"/>
  <anchor x="310" y="1297" name="U"/>
  <outline>
    <contour>
      <point x="538" y="570" type="line"/>
      <point x="547" y="728" type="line"/>
      <point x="506" y="735" type="line"/>
      <point x="506" y="735"/>
      <point x="498" y="646"/>
      <point x="440" y="646" type="curve" smooth="yes"/>
      <point x="189" y="646" type="line"/>
      <point x="453" y="911"/>
      <point x="538" y="997"/>
      <point x="538" y="1095" type="curve" smooth="yes"/>
      <point x="538" y="1203"/>
      <point x="457" y="1252"/>
      <point x="345" y="1252" type="curve" smooth="yes"/>
      <point x="203" y="1252"/>
      <point x="71" y="1151"/>
      <point x="71" y="1075" type="curve"/>
      <point x="88" y="1058" type="line"/>
      <point x="127" y="1062"/>
      <point x="161" y="1071"/>
      <point x="190" y="1085" type="curve"/>
      <point x="190" y="1138"/>
      <point x="235" y="1191"/>
      <point x="300" y="1191" type="curve" smooth="yes"/>
      <point x="389" y="1191"/>
      <point x="421" y="1148"/>
      <point x="421" y="1080" type="curve" smooth="yes"/>
      <point x="421" y="996"/>
      <point x="359" y="915"/>
      <point x="54" y="610" type="curve"/>
      <point x="72" y="570" type="line"/>
    </contour>
  </outline>
</glyph>
<glyph name="threesuperior" format="2">
  <advance width="619"/>
  <unicode hex="00B3"/>
  <anchor x="310" y="506" name="L"/>
  <anchor x="310" y="1297" name="U"/>
  <outline>
    <contour>
      <point x="540" y="781" type="curve"/>
      <point x="540" y="870"/>
      <point x="465" y="945"/>
      <point x="367" y="955" type="curve"/>
      <point x="450" y="981"/>
      <point x="502" y="1044"/>
      <point x="502" y="1099" type="curve" smooth="yes"/>
      <point x="502" y="1173"/>
      <point x="443" y="1252"/>
      <point x="310" y="1252" type="curve" smooth="yes"/>
      <point x="176" y="1252"/>
      <point x="57" y="1164"/>
      <point x="57" y="1103" type="curve"/>
      <point x="75" y="1085" type="line"/>
      <point x="112" y="1088"/>
      <point x="154" y="1094"/>
      <point x="183" y="1107" type="curve"/>
      <point x="172" y="1157"/>
      <point x="209" y="1191"/>
      <point x="274" y="1191" type="curve" smooth="yes"/>
      <point x="352" y="1191"/>
      <point x="382" y="1139"/>
      <point x="382" y="1089" type="curve" smooth="yes"/>
      <point x="382" y="1044"/>
      <point x="364" y="985"/>
      <point x="211" y="948" type="curve"/>
      <point x="219" y="906" type="line"/>
      <point x="246" y="909"/>
      <point x="240" y="909"/>
      <point x="264" y="909" type="curve" smooth="yes"/>
      <point x="335" y="909"/>
      <point x="419" y="873"/>
      <point x="419" y="762" type="curve" smooth="yes"/>
      <point x="419" y="668"/>
      <point x="353" y="619"/>
      <point x="253" y="619" type="curve" smooth="yes"/>
      <point x="188" y="619"/>
      <point x="134" y="632"/>
      <point x="56" y="682" type="curve"/>
      <point x="34" y="644" type="line"/>
      <point x="112" y="581"/>
      <point x="194" y="553"/>
      <point x="270" y="553" type="curve" smooth="yes"/>
      <point x="437" y="553"/>
      <point x="540" y="656"/>
    </contour>
  </outline>
</glyph>
<glyph name="mu" format="2">
  <advance width="1016"/>
  <unicode hex="00B5"/>
  <outline>
    <contour>
      <point x="998" y="75" type="curve"/>
      <point x="989" y="116" type="line"/>
      <point x="948" y="101"/>
      <point x="918" y="91"/>
      <point x="891" y="91" type="curve" smooth="yes"/>
      <point x="865" y="91"/>
      <point x="855" y="132"/>
      <point x="855" y="246" type="curve" smooth="yes"/>
      <point x="855" y="283"/>
      <point x="855" y="677"/>
      <point x="855" y="698" type="curve"/>
      <point x="857" y="774"/>
      <point x="865" y="816"/>
      <point x="870" y="847" type="curve"/>
      <point x="870" y="847"/>
      <point x="844" y="883"/>
      <point x="844" y="883" type="curve"/>
      <point x="794" y="862"/>
      <point x="736" y="842"/>
      <point x="682" y="828" type="curve"/>
      <point x="699" y="805"/>
      <point x="717" y="727"/>
      <point x="717" y="688" type="curve" smooth="yes"/>
      <point x="717" y="658"/>
      <point x="717" y="225"/>
      <point x="717" y="198" type="curve" smooth="yes"/>
      <point x="717" y="80"/>
      <point x="738" y="-28"/>
      <point x="793" y="-28" type="curve" smooth="yes"/>
      <point x="835" y="-28"/>
      <point x="924" y="29"/>
    </contour>
    <contour>
      <point x="773" y="242" type="curve"/>
      <point x="759" y="324" type="line"/>
      <point x="641" y="141"/>
      <point x="555" y="120"/>
      <point x="481" y="120" type="curve" smooth="yes"/>
      <point x="378" y="120"/>
      <point x="312" y="252"/>
      <point x="312" y="336" type="curve" smooth="yes"/>
      <point x="312" y="349"/>
      <point x="312" y="836"/>
      <point x="312" y="843" type="curve"/>
      <point x="302" y="856"/>
      <point x="278" y="883"/>
      <point x="277" y="883" type="curve"/>
      <point x="213" y="850"/>
      <point x="151" y="839"/>
      <point x="56" y="822" type="curve"/>
      <point x="56" y="785" type="line"/>
      <point x="172" y="773"/>
      <point x="174" y="767"/>
      <point x="174" y="672" type="curve" smooth="yes"/>
      <point x="174" y="661"/>
      <point x="174" y="425"/>
      <point x="174" y="406" type="curve" smooth="yes"/>
      <point x="174" y="149"/>
      <point x="319" y="-28"/>
      <point x="450" y="-28" type="curve" smooth="yes"/>
      <point x="535" y="-28"/>
      <point x="654" y="64"/>
    </contour>
    <contour>
      <point x="241" y="310"/>
      <point x="249" y="422" type="curve"/>
      <point x="241" y="471"/>
      <point x="174" y="565"/>
      <point x="174" y="565" type="curve"/>
      <point x="174" y="500"/>
      <point x="174" y="-406"/>
      <point x="174" y="-433" type="curve"/>
      <point x="210" y="-460" type="line"/>
      <point x="240" y="-445"/>
      <point x="342" y="-406"/>
      <point x="378" y="-394" type="curve"/>
      <point x="313" y="-317"/>
      <point x="249" y="-165"/>
      <point x="251" y="106" type="curve"/>
      <point x="253" y="250"/>
    </contour>
  </outline>
</glyph>
<glyph name="periodcentered" format="2">
  <advance width="378"/>
  <unicode hex="00B7"/>
  <outline>
    <contour>
      <point x="188" y="622" type="curve" smooth="yes"/>
      <point x="239" y="622"/>
      <point x="281" y="672"/>
      <point x="281" y="748" type="curve" smooth="yes"/>
      <point x="281" y="824"/>
      <point x="233" y="870"/>
      <point x="188" y="870" type="curve" smooth="yes"/>
      <point x="143" y="870"/>
      <point x="96" y="828"/>
      <point x="96" y="748" type="curve" smooth="yes"/>
      <point x="96" y="674"/>
      <point x="136" y="622"/>
    </contour>
  </outline>
</glyph>
<glyph name="cedilla" format="2">
  <advance width="431"/>
  <unicode hex="00B8"/>
  <anchor x="223" y="-552" name="L"/>
  <outline>
    <contour>
      <point x="375" y="-301"/>
      <point x="375" y="-210" type="curve"/>
      <point x="375" y="-141"/>
      <point x="310" y="-109"/>
      <point x="246" y="-95" type="curve"/>
      <point x="294" y="46" type="line"/>
      <point x="222" y="47" type="line"/>
      <point x="157" y="-157"/>
      <point x="143" y="-192"/>
      <point x="143" y="-192" type="curve"/>
      <point x="218" y="-199"/>
      <point x="248" y="-212"/>
      <point x="248" y="-253" type="curve" smooth="yes"/>
      <point x="248" y="-293"/>
      <point x="199" y="-341"/>
      <point x="71" y="-363" type="curve"/>
      <point x="92" y="-408" type="line"/>
      <point x="293" y="-379"/>
    </contour>
  </outline>
</glyph>
<glyph name="onesuperior" format="2">
  <advance width="619"/>
  <unicode hex="00B9"/>
  <anchor x="331" y="506" name="L"/>
  <anchor x="331" y="1297" name="U"/>
  <outline>
    <contour>
      <point x="109" y="570" type="line"/>
      <point x="540" y="570" type="line"/>
      <point x="540" y="609" type="line"/>
      <point x="411" y="622"/>
      <point x="389" y="644"/>
      <point x="389" y="658" type="curve" smooth="yes"/>
      <point x="389" y="1238" type="line"/>
      <point x="365" y="1257" type="line"/>
      <point x="309" y="1230"/>
      <point x="161" y="1181"/>
      <point x="89" y="1163" type="curve"/>
      <point x="103" y="1126" type="line"/>
      <point x="216" y="1147"/>
      <point x="252" y="1143"/>
      <point x="262" y="1134" type="curve" smooth="yes"/>
      <point x="273" y="1124"/>
      <point x="274" y="1109"/>
      <point x="274" y="1080" type="curve" smooth="yes"/>
      <point x="274" y="658" type="line" smooth="yes"/>
      <point x="274" y="643"/>
      <point x="243" y="622"/>
      <point x="109" y="609" type="curve"/>
    </contour>
  </outline>
</glyph>
<glyph name="ordmasculine" format="2">
  <advance width="531"/>
  <unicode hex="00BA"/>
  <outline>
    <contour>
      <point x="485" y="904" type="curve"/>
      <point x="485" y="1037"/>
      <point x="399" y="1136"/>
      <point x="280" y="1136" type="curve" smooth="yes"/>
      <point x="150" y="1136"/>
      <point x="45" y="1013"/>
      <point x="45" y="885" type="curve" smooth="yes"/>
      <point x="45" y="751"/>
      <point x="127" y="654"/>
      <point x="250" y="654" type="curve" smooth="yes"/>
      <point x="365" y="654"/>
      <point x="485" y="778"/>
    </contour>
    <contour>
      <point x="56" y="539" type="line"/>
      <point x="474" y="539" type="line"/>
      <point x="474" y="606" type="line"/>
      <point x="56" y="606" type="line"/>
    </contour>
    <contour>
      <point x="399" y="889" type="curve"/>
      <point x="399" y="785"/>
      <point x="346" y="706"/>
      <point x="280" y="706" type="curve" smooth="yes"/>
      <point x="205" y="706"/>
      <point x="131" y="794"/>
      <point x="131" y="898" type="curve" smooth="yes"/>
      <point x="131" y="1002"/>
      <point x="177" y="1081"/>
      <point x="250" y="1081" type="curve" smooth="yes"/>
      <point x="331" y="1081"/>
      <point x="399" y="992"/>
    </contour>
  </outline>
</glyph>
<glyph name="guillemotright" format="2">
  <advance width="914"/>
  <unicode hex="00BB"/>
  <outline>
    <contour>
      <point x="500" y="395" type="line"/>
      <point x="498" y="462" type="line"/>
      <point x="168" y="839" type="line"/>
      <point x="129" y="812" type="line"/>
      <point x="341" y="429" type="line"/>
      <point x="128" y="43" type="line"/>
      <point x="168" y="15" type="line"/>
    </contour>
    <contour>
      <point x="840" y="395" type="line"/>
      <point x="839" y="462" type="line"/>
      <point x="508" y="839" type="line"/>
      <point x="470" y="812" type="line"/>
      <point x="681" y="429" type="line"/>
      <point x="469" y="43" type="line"/>
      <point x="508" y="15" type="line"/>
    </contour>
  </outline>
</glyph>
<glyph name="onequarter" format="2">
  <advance width="1104"/>
  <unicode hex="00BC"/>
  <outline>
    <contour>
      <point x="299" y="2" type="curve"/>
      <point x="997" y="1110" type="line"/>
      <point x="974" y="1136" type="line"/>
      <point x="947" y="1130"/>
      <point x="916" y="1116"/>
      <point x="892" y="1106" type="curve"/>
      <point x="191" y="0" type="line"/>
      <point x="214" y="-27" type="line"/>
      <point x="247" y="-19"/>
      <point x="271" y="-11"/>
    </contour>
    <contour>
      <point x="1015" y="174"/>
      <point x="1030" y="193" type="curve"/>
      <point x="1016" y="207" type="line"/>
      <point x="960" y="207" type="line"/>
      <point x="960" y="534" type="line"/>
      <point x="942" y="550" type="line"/>
      <point x="920" y="540"/>
      <point x="886" y="529"/>
      <point x="858" y="517" type="curve"/>
      <point x="600" y="165" type="line"/>
      <point x="618" y="150" type="line"/>
      <point x="874" y="150" type="line"/>
      <point x="874" y="57" type="line" smooth="yes"/>
      <point x="874" y="47"/>
      <point x="862" y="38"/>
      <point x="772" y="26" type="curve"/>
      <point x="772" y="0" type="line"/>
      <point x="1024" y="0" type="line"/>
      <point x="1024" y="26" type="line"/>
      <point x="967" y="37"/>
      <point x="960" y="44"/>
      <point x="960" y="53" type="curve" smooth="yes"/>
      <point x="960" y="150" type="line"/>
      <point x="989" y="150" type="line"/>
      <point x="1004" y="161"/>
    </contour>
    <contour>
      <point x="874" y="451" type="line"/>
      <point x="874" y="207" type="line"/>
      <point x="689" y="207" type="line"/>
    </contour>
    <contour>
      <point x="89" y="586" type="line"/>
      <point x="434" y="586" type="line"/>
      <point x="434" y="617" type="line"/>
      <point x="331" y="628"/>
      <point x="312" y="644"/>
      <point x="312" y="656" type="curve" smooth="yes"/>
      <point x="312" y="1120" type="line"/>
      <point x="294" y="1136" type="line"/>
      <point x="249" y="1114"/>
      <point x="130" y="1074"/>
      <point x="73" y="1060" type="curve"/>
      <point x="84" y="1030" type="line"/>
      <point x="174" y="1047"/>
      <point x="203" y="1044"/>
      <point x="211" y="1036" type="curve" smooth="yes"/>
      <point x="220" y="1029"/>
      <point x="220" y="1017"/>
      <point x="220" y="993" type="curve" smooth="yes"/>
      <point x="220" y="656" type="line" smooth="yes"/>
      <point x="220" y="644"/>
      <point x="196" y="628"/>
      <point x="89" y="617" type="curve"/>
    </contour>
  </outline>
</glyph>
<glyph name="threequarters" format="2">
  <advance width="1104"/>
  <unicode hex="00BE"/>
  <outline>
    <contour>
      <point x="290" y="2" type="curve"/>
      <point x="988" y="1110" type="line"/>
      <point x="965" y="1136" type="line"/>
      <point x="938" y="1130"/>
      <point x="907" y="1116"/>
      <point x="883" y="1106" type="curve"/>
      <point x="182" y="0" type="line"/>
      <point x="205" y="-27" type="line"/>
      <point x="238" y="-19"/>
      <point x="262" y="-11"/>
    </contour>
    <contour>
      <point x="477" y="755" type="curve" smooth="yes"/>
      <point x="477" y="826"/>
      <point x="417" y="886"/>
      <point x="339" y="895" type="curve"/>
      <point x="406" y="915"/>
      <point x="447" y="965"/>
      <point x="447" y="1009" type="curve" smooth="yes"/>
      <point x="447" y="1069"/>
      <point x="400" y="1131"/>
      <point x="294" y="1131" type="curve" smooth="yes"/>
      <point x="186" y="1131"/>
      <point x="92" y="1061"/>
      <point x="92" y="1012" type="curve"/>
      <point x="105" y="998" type="line"/>
      <point x="135" y="1000"/>
      <point x="169" y="1005"/>
      <point x="192" y="1016" type="curve"/>
      <point x="184" y="1056"/>
      <point x="213" y="1082"/>
      <point x="264" y="1082" type="curve" smooth="yes"/>
      <point x="327" y="1082"/>
      <point x="351" y="1042"/>
      <point x="351" y="1001" type="curve" smooth="yes"/>
      <point x="351" y="965"/>
      <point x="336" y="918"/>
      <point x="215" y="888" type="curve"/>
      <point x="221" y="854" type="line"/>
      <point x="242" y="858"/>
      <point x="237" y="858"/>
      <point x="256" y="858" type="curve" smooth="yes"/>
      <point x="314" y="858"/>
      <point x="380" y="828"/>
      <point x="380" y="740" type="curve" smooth="yes"/>
      <point x="380" y="665"/>
      <point x="328" y="625"/>
      <point x="248" y="625" type="curve" smooth="yes"/>
      <point x="196" y="625"/>
      <point x="152" y="636"/>
      <point x="90" y="676" type="curve"/>
      <point x="73" y="645" type="line"/>
      <point x="135" y="595"/>
      <point x="200" y="573"/>
      <point x="262" y="573" type="curve" smooth="yes"/>
      <point x="395" y="573"/>
      <point x="477" y="655"/>
    </contour>
    <contour>
      <point x="1030" y="193" type="curve"/>
      <point x="1016" y="207" type="line"/>
      <point x="960" y="207" type="line"/>
      <point x="960" y="534" type="line"/>
      <point x="942" y="550" type="line"/>
      <point x="920" y="540"/>
      <point x="886" y="529"/>
      <point x="858" y="517" type="curve"/>
      <point x="600" y="165" type="line"/>
      <point x="618" y="150" type="line"/>
      <point x="874" y="150" type="line"/>
      <point x="874" y="57" type="line" smooth="yes"/>
      <point x="874" y="47"/>
      <point x="862" y="38"/>
      <point x="772" y="26" type="curve"/>
      <point x="772" y="0" type="line"/>
      <point x="1024" y="0" type="line"/>
      <point x="1024" y="26" type="line"/>
      <point x="967" y="37"/>
      <point x="960" y="44"/>
      <point x="960" y="53" type="curve" smooth="yes"/>
      <point x="960" y="150" type="line"/>
      <point x="989" y="150" type="line"/>
      <point x="1004" y="161"/>
      <point x="1015" y="174"/>
    </contour>
    <contour>
      <point x="874" y="451" type="line"/>
      <point x="874" y="207" type="line"/>
      <point x="689" y="207" type="line"/>
    </contour>
  </outline>
</glyph>
<glyph name="AE" format="2">
  <advance width="1467"/>
  <unicode hex="00C6"/>
  <anchor x="785" y="-92" name="L"/>
  <anchor x="850" y="1260" name="U"/>
  <outline>
    <contour>
      <point x="1413" y="224" type="curve"/>
      <point x="1371" y="241" type="line"/>
      <point x="1319" y="97"/>
      <point x="1281" y="82"/>
      <point x="1168" y="82" type="curve" smooth="yes"/>
      <point x="1049" y="82" type="line" smooth="yes"/>
      <point x="887" y="82"/>
      <point x="859" y="105"/>
      <point x="859" y="141" type="curve" smooth="yes"/>
      <point x="859" y="598" type="line"/>
      <point x="989" y="598" type="line" smooth="yes"/>
      <point x="1092" y="598"/>
      <point x="1136" y="584"/>
      <point x="1172" y="548" type="curve"/>
      <point x="1198" y="567"/>
      <point x="1235" y="616"/>
      <point x="1256" y="650" type="curve"/>
      <point x="1231" y="676" type="line"/>
      <point x="859" y="676" type="line"/>
      <point x="859" y="1076" type="line"/>
      <point x="1196" y="1076" type="line" smooth="yes"/>
      <point x="1243" y="1076"/>
      <point x="1265" y="1042"/>
      <point x="1271" y="929" type="curve"/>
      <point x="1312" y="929" type="line"/>
      <point x="1330" y="976"/>
      <point x="1346" y="1073"/>
      <point x="1350" y="1136" type="curve"/>
      <point x="1322" y="1159" type="line"/>
      <point x="992" y="1159" type="line"/>
      <point x="838" y="1159" type="line"/>
      <point x="350" y="1159" type="line"/>
      <point x="350" y="1119" type="line"/>
      <point x="471" y="1096"/>
      <point x="542" y="1083"/>
      <point x="525" y="1042" type="curve" smooth="yes"/>
      <point x="145" y="102" type="line" smooth="yes"/>
      <point x="129" y="66"/>
      <point x="82" y="54"/>
      <point x="0" y="39" type="curve"/>
      <point x="0" y="0" type="line"/>
      <point x="382" y="0" type="line"/>
      <point x="382" y="39" type="line"/>
      <point x="282" y="50"/>
      <point x="246" y="66"/>
      <point x="262" y="102" type="curve" smooth="yes"/>
      <point x="464" y="598" type="line"/>
      <point x="712" y="598" type="line"/>
      <point x="712" y="95" type="line" smooth="yes"/>
      <point x="712" y="79"/>
      <point x="663" y="56"/>
      <point x="580" y="39" type="curve"/>
      <point x="580" y="0" type="line"/>
      <point x="1373" y="0" type="line"/>
      <point x="1382" y="35"/>
      <point x="1402" y="118"/>
    </contour>
    <contour>
      <point x="712" y="1056" type="curve" smooth="yes"/>
      <point x="712" y="676" type="line"/>
      <point x="495" y="676" type="line"/>
      <point x="640" y="1040" type="line" smooth="yes"/>
      <point x="657" y="1082"/>
      <point x="712" y="1082"/>
    </contour>
  </outline>
</glyph>
<glyph name="Eth" format="2">
  <advance width="1116"/>
  <unicode hex="00D0"/>
  <anchor x="529" y="-92" name="L"/>
  <anchor x="529" y="1260" name="U"/>
  <outline>
    <component base="D"/>
    <contour>
      <point x="564" y="565" type="line"/>
      <point x="587" y="627" type="line"/>
      <point x="564" y="648" type="line"/>
      <point x="45" y="648" type="line"/>
      <point x="37" y="629"/>
      <point x="30" y="607"/>
      <point x="24" y="588" type="curve"/>
      <point x="45" y="565" type="line"/>
    </contour>
  </outline>
</glyph>
<glyph name="Oslash" format="2">
  <advance width="1130"/>
  <unicode hex="00D8"/>
  <anchor x="555" y="-92" name="L"/>
  <anchor x="555" y="1260" name="U"/>
  <outline>
    <contour>
      <point x="1046" y="262"/>
      <point x="1046" y="595" type="curve"/>
      <point x="1046" y="895"/>
      <point x="885" y="1186"/>
      <point x="582" y="1186" type="curve" smooth="yes"/>
      <point x="293" y="1186"/>
      <point x="64" y="897"/>
      <point x="64" y="563" type="curve" smooth="yes"/>
      <point x="64" y="253"/>
      <point x="233" y="-27"/>
      <point x="529" y="-27" type="curve" smooth="yes"/>
      <point x="808" y="-27"/>
    </contour>
    <contour>
      <point x="904" y="832"/>
      <point x="904" y="578" type="curve"/>
      <point x="904" y="253"/>
      <point x="759" y="82"/>
      <point x="555" y="82" type="curve" smooth="yes"/>
      <point x="367" y="82"/>
      <point x="207" y="314"/>
      <point x="207" y="589" type="curve" smooth="yes"/>
      <point x="207" y="889"/>
      <point x="337" y="1081"/>
      <point x="555" y="1081" type="curve" smooth="yes"/>
      <point x="764" y="1081"/>
    </contour>
    <contour>
      <point x="214" y="-1" type="curve"/>
      <point x="1039" y="1177" type="line"/>
      <point x="1013" y="1207" type="line"/>
      <point x="976" y="1198"/>
      <point x="931" y="1183"/>
      <point x="897" y="1162" type="curve"/>
      <point x="69" y="-18" type="line"/>
      <point x="95" y="-48" type="line"/>
      <point x="126" y="-39"/>
      <point x="192" y="-21"/>
    </contour>
  </outline>
</glyph>
<glyph name="Thorn" format="2">
  <advance width="985"/>
  <unicode hex="00DE"/>
  <anchor x="473" y="-92" name="L"/>
  <anchor x="473" y="1260" name="U"/>
  <outline>
    <contour>
      <point x="903" y="612" type="curve"/>
      <point x="903" y="823"/>
      <point x="733" y="938"/>
      <point x="469" y="938" type="curve" smooth="yes"/>
      <point x="348" y="938"/>
      <point x="278" y="931"/>
      <point x="214" y="917" type="curve"/>
      <point x="224" y="850" type="line"/>
      <point x="289" y="857"/>
      <point x="352" y="861"/>
      <point x="416" y="861" type="curve" smooth="yes"/>
      <point x="606" y="861"/>
      <point x="760" y="778"/>
      <point x="760" y="575" type="curve" smooth="yes"/>
      <point x="760" y="401"/>
      <point x="612" y="312"/>
      <point x="499" y="312" type="curve" smooth="yes"/>
      <point x="456" y="312"/>
      <point x="408" y="316"/>
      <point x="357" y="339" type="curve"/>
      <point x="379" y="274" type="line"/>
      <point x="420" y="253"/>
      <point x="471" y="243"/>
      <point x="527" y="243" type="curve" smooth="yes"/>
      <point x="670" y="243"/>
      <point x="903" y="357"/>
    </contour>
    <contour>
      <point x="45" y="0" type="line"/>
      <point x="487" y="0" type="line"/>
      <point x="487" y="39" type="line"/>
      <point x="359" y="60"/>
      <point x="326" y="80"/>
      <point x="326" y="95" type="curve" smooth="yes"/>
      <point x="326" y="1062" type="line" smooth="yes"/>
      <point x="326" y="1080"/>
      <point x="361" y="1098"/>
      <point x="487" y="1119" type="curve"/>
      <point x="487" y="1159" type="line"/>
      <point x="45" y="1159" type="line"/>
      <point x="45" y="1119" type="line"/>
      <point x="133" y="1102"/>
      <point x="179" y="1077"/>
      <point x="179" y="1062" type="curve" smooth="yes"/>
      <point x="179" y="95" type="line" smooth="yes"/>
      <point x="179" y="79"/>
      <point x="127" y="56"/>
      <point x="45" y="39" type="curve"/>
    </contour>
  </outline>
</glyph>
<glyph name="germandbls" format="2">
  <advance width="1064"/>
  <unicode hex="00DF"/>
  <anchor x="516" y="-92" name="L"/>
  <anchor x="516" y="1554" name="U"/>
  <outline>
    <contour>
      <point x="981" y="260" type="curve"/>
      <point x="981" y="564"/>
      <point x="573" y="548"/>
      <point x="573" y="708" type="curve" smooth="yes"/>
      <point x="573" y="855"/>
      <point x="889" y="793"/>
      <point x="889" y="1094" type="curve" smooth="yes"/>
      <point x="889" y="1230"/>
      <point x="812" y="1426"/>
      <point x="600" y="1426" type="curve" smooth="yes"/>
      <point x="512" y="1426"/>
      <point x="427" y="1394"/>
      <point x="361" y="1341" type="curve" smooth="yes"/>
      <point x="265" y="1262"/>
      <point x="179" y="1179"/>
      <point x="179" y="884" type="curve" smooth="yes"/>
      <point x="179" y="93" type="line" smooth="yes"/>
      <point x="179" y="79"/>
      <point x="133" y="54"/>
      <point x="50" y="39" type="curve"/>
      <point x="50" y="0" type="line"/>
      <point x="317" y="0" type="line"/>
      <point x="317" y="934" type="line" smooth="yes"/>
      <point x="317" y="1238"/>
      <point x="401" y="1311"/>
      <point x="519" y="1311" type="curve" smooth="yes"/>
      <point x="685" y="1311"/>
      <point x="749" y="1156"/>
      <point x="749" y="1032" type="curve" smooth="yes"/>
      <point x="749" y="855"/>
      <point x="444" y="919"/>
      <point x="444" y="670" type="curve" smooth="yes"/>
      <point x="444" y="420"/>
      <point x="862" y="454"/>
      <point x="862" y="199" type="curve" smooth="yes"/>
      <point x="862" y="118"/>
      <point x="793" y="64"/>
      <point x="706" y="64" type="curve" smooth="yes"/>
      <point x="612" y="64"/>
      <point x="497" y="116"/>
      <point x="480" y="248" type="curve"/>
      <point x="444" y="260" type="line"/>
      <point x="425" y="235"/>
      <point x="420" y="60"/>
      <point x="431" y="43" type="curve" smooth="yes"/>
      <point x="449" y="12"/>
      <point x="602" y="-27"/>
      <point x="670" y="-27" type="curve" smooth="yes"/>
      <point x="891" y="-27"/>
      <point x="981" y="116"/>
    </contour>
  </outline>
</glyph>
<glyph name="eth" format="2">
  <advance width="938"/>
  <unicode hex="00F0"/>
  <anchor x="466" y="-92" name="L"/>
  <anchor x="467" y="1490" name="U"/>
  <outline>
    <contour>
      <point x="860" y="544" type="curve" smooth="yes"/>
      <point x="860" y="736"/>
      <point x="789" y="937"/>
      <point x="619" y="1120" type="curve"/>
      <point x="838" y="1215" type="line"/>
      <point x="832" y="1247" type="line"/>
      <point x="800" y="1258"/>
      <point x="804" y="1258"/>
      <point x="746" y="1267" type="curve"/>
      <point x="554" y="1184" type="line"/>
      <point x="502" y="1232"/>
      <point x="441" y="1279"/>
      <point x="373" y="1324" type="curve"/>
      <point x="188" y="1258" type="line"/>
      <point x="194" y="1220" type="line"/>
      <point x="297" y="1235"/>
      <point x="372" y="1192"/>
      <point x="439" y="1134" type="curve"/>
      <point x="205" y="1032" type="line"/>
      <point x="214" y="998" type="line"/>
      <point x="256" y="985"/>
      <point x="252" y="987"/>
      <point x="298" y="981" type="curve"/>
      <point x="506" y="1071" type="line"/>
      <point x="592" y="983"/>
      <point x="655" y="885"/>
      <point x="690" y="762" type="curve"/>
      <point x="627" y="829"/>
      <point x="538" y="883"/>
      <point x="465" y="883" type="curve" smooth="yes"/>
      <point x="265" y="883"/>
      <point x="73" y="652"/>
      <point x="73" y="408" type="curve" smooth="yes"/>
      <point x="73" y="158"/>
      <point x="217" y="-27"/>
      <point x="456" y="-27" type="curve" smooth="yes"/>
      <point x="595" y="-27"/>
      <point x="860" y="118"/>
    </contour>
    <contour>
      <point x="722" y="539" type="curve"/>
      <point x="722" y="539"/>
      <point x="722" y="506"/>
      <point x="722" y="506" type="curve" smooth="yes"/>
      <point x="722" y="205"/>
      <point x="600" y="73"/>
      <point x="465" y="73" type="curve" smooth="yes"/>
      <point x="359" y="73"/>
      <point x="216" y="241"/>
      <point x="216" y="435" type="curve" smooth="yes"/>
      <point x="216" y="631"/>
      <point x="291" y="782"/>
      <point x="437" y="782" type="curve" smooth="yes"/>
      <point x="543" y="782"/>
      <point x="675" y="679"/>
    </contour>
  </outline>
</glyph>
<glyph name="divide" format="2">
  <advance width="772"/>
  <unicode hex="00F7"/>
  <outline>
    <contour>
      <point x="715" y="545" type="curve"/>
      <point x="693" y="567" type="line"/>
      <point x="84" y="567" type="line"/>
      <point x="73" y="543"/>
      <point x="62" y="513"/>
      <point x="56" y="488" type="curve"/>
      <point x="79" y="466" type="line"/>
      <point x="688" y="466" type="line"/>
      <point x="697" y="486"/>
      <point x="710" y="520"/>
    </contour>
    <contour>
      <point x="459" y="754" type="curve"/>
      <point x="459" y="800"/>
      <point x="438" y="824"/>
      <point x="397" y="824" type="curve" smooth="yes"/>
      <point x="350" y="824"/>
      <point x="312" y="780"/>
      <point x="312" y="724" type="curve" smooth="yes"/>
      <point x="312" y="679"/>
      <point x="331" y="654"/>
      <point x="374" y="654" type="curve" smooth="yes"/>
      <point x="422" y="654"/>
      <point x="459" y="700"/>
    </contour>
    <contour>
      <point x="459" y="312" type="curve"/>
      <point x="459" y="358"/>
      <point x="438" y="382"/>
      <point x="397" y="382" type="curve" smooth="yes"/>
      <point x="350" y="382"/>
      <point x="312" y="338"/>
      <point x="312" y="283" type="curve" smooth="yes"/>
      <point x="312" y="238"/>
      <point x="331" y="212"/>
      <point x="374" y="212" type="curve" smooth="yes"/>
      <point x="422" y="212"/>
      <point x="459" y="258"/>
    </contour>
  </outline>
</glyph>
<glyph name="oslash" format="2">
  <advance width="947"/>
  <unicode hex="00F8"/>
  <anchor x="492" y="0" name="H"/>
  <anchor x="483" y="-92" name="L"/>
  <anchor x="529" y="0" name="O"/>
  <anchor x="975" y="828" name="R"/>
  <anchor x="483" y="966" name="U"/>
  <outline>
    <contour>
      <point x="874" y="446" type="curve" smooth="yes"/>
      <point x="874" y="567"/>
      <point x="839" y="673"/>
      <point x="776" y="749" type="curve"/>
      <point x="870" y="874" type="line"/>
      <point x="841" y="904" type="line"/>
      <point x="806" y="895"/>
      <point x="762" y="861"/>
      <point x="729" y="839" type="curve"/>
      <point x="710" y="814" type="line"/>
      <point x="650" y="858"/>
      <point x="576" y="883"/>
      <point x="492" y="883" type="curve" smooth="yes"/>
      <point x="262" y="883"/>
      <point x="73" y="652"/>
      <point x="73" y="408" type="curve" smooth="yes"/>
      <point x="73" y="287"/>
      <point x="109" y="180"/>
      <point x="172" y="103" type="curve"/>
      <point x="80" y="-18" type="line"/>
      <point x="107" y="-48" type="line"/>
      <point x="138" y="-39"/>
      <point x="199" y="-1"/>
      <point x="222" y="16" type="curve"/>
      <point x="240" y="39" type="line"/>
      <point x="299" y="-3"/>
      <point x="372" y="-27"/>
      <point x="456" y="-27" type="curve" smooth="yes"/>
      <point x="679" y="-27"/>
      <point x="874" y="201"/>
    </contour>
    <contour>
      <point x="270" y="232" type="line"/>
      <point x="236" y="291"/>
      <point x="214" y="361"/>
      <point x="214" y="435" type="curve" smooth="yes"/>
      <point x="214" y="631"/>
      <point x="278" y="782"/>
      <point x="465" y="782" type="curve" smooth="yes"/>
      <point x="519" y="782"/>
      <point x="576" y="750"/>
      <point x="623" y="700" type="curve"/>
    </contour>
    <contour>
      <point x="482" y="73" type="curve" smooth="yes"/>
      <point x="433" y="73"/>
      <point x="376" y="104"/>
      <point x="328" y="156" type="curve"/>
      <point x="679" y="621" type="line"/>
      <point x="713" y="563"/>
      <point x="733" y="493"/>
      <point x="733" y="418" type="curve" smooth="yes"/>
      <point x="733" y="208"/>
      <point x="655" y="73"/>
    </contour>
  </outline>
</glyph>
<glyph name="thorn" format="2">
  <advance width="998"/>
  <unicode hex="00FE"/>
  <anchor x="624" y="-92" name="L"/>
  <anchor x="487" y="1554" name="U"/>
  <outline>
    <contour>
      <point x="924" y="452" type="curve"/>
      <point x="924" y="721"/>
      <point x="802" y="883"/>
      <point x="634" y="883" type="curve" smooth="yes"/>
      <point x="564" y="883"/>
      <point x="443" y="823"/>
      <point x="317" y="674" type="curve"/>
      <point x="317" y="1394" type="line"/>
      <point x="283" y="1426" type="line"/>
      <point x="209" y="1386"/>
      <point x="138" y="1369"/>
      <point x="50" y="1352" type="curve"/>
      <point x="50" y="1315" type="line"/>
      <point x="154" y="1303"/>
      <point x="179" y="1303"/>
      <point x="179" y="1192" type="curve" smooth="yes"/>
      <point x="179" y="-345" type="line" smooth="yes"/>
      <point x="179" y="-366"/>
      <point x="131" y="-382"/>
      <point x="50" y="-402" type="curve"/>
      <point x="50" y="-441" type="line"/>
      <point x="473" y="-441" type="line"/>
      <point x="473" y="-402" type="line"/>
      <point x="358" y="-384"/>
      <point x="317" y="-364"/>
      <point x="317" y="-345" type="curve" smooth="yes"/>
      <point x="317" y="68" type="line"/>
      <point x="403" y="-1"/>
      <point x="487" y="-27"/>
      <point x="527" y="-27" type="curve" smooth="yes"/>
      <point x="747" y="-27"/>
      <point x="924" y="239"/>
    </contour>
    <contour>
      <point x="800" y="375" type="curve"/>
      <point x="800" y="228"/>
      <point x="719" y="82"/>
      <point x="580" y="82" type="curve" smooth="yes"/>
      <point x="495" y="82"/>
      <point x="411" y="122"/>
      <point x="317" y="195" type="curve"/>
      <point x="317" y="561" type="line"/>
      <point x="425" y="719"/>
      <point x="529" y="768"/>
      <point x="573" y="768" type="curve" smooth="yes"/>
      <point x="691" y="768"/>
      <point x="800" y="618"/>
    </contour>
  </outline>
</glyph>
<glyph name="dotlessi" format="2">
  <advance width="510"/>
  <unicode hex="0131"/>
  <anchor x="262" y="0" name="H"/>
  <anchor x="262" y="-92" name="L"/>
  <anchor x="308" y="0" name="O"/>
  <anchor x="510" y="828" name="R"/>
  <anchor x="262" y="966" name="U"/>
  <outline>
    <contour>
      <point x="64" y="0" type="line"/>
      <point x="460" y="0" type="line"/>
      <point x="460" y="39" type="line"/>
      <point x="370" y="56"/>
      <point x="331" y="80"/>
      <point x="331" y="95" type="curve" smooth="yes"/>
      <point x="331" y="883" type="line"/>
      <point x="299" y="883" type="line"/>
      <point x="237" y="852"/>
      <point x="141" y="824"/>
      <point x="64" y="809" type="curve"/>
      <point x="64" y="772" type="line"/>
      <point x="194" y="760"/>
      <point x="193" y="742"/>
      <point x="193" y="616" type="curve" smooth="yes"/>
      <point x="193" y="95" type="line" smooth="yes"/>
      <point x="193" y="79"/>
      <point x="147" y="56"/>
      <point x="64" y="39" type="curve"/>
    </contour>
  </outline>
</glyph>
<glyph name="OE" format="2">
  <advance width="1503"/>
  <unicode hex="0152"/>
  <anchor x="756" y="-92" name="L"/>
  <anchor x="756" y="1260" name="U"/>
  <outline>
    <contour>
      <point x="1386" y="1136" type="curve"/>
      <point x="1358" y="1159" type="line"/>
      <point x="911" y="1159" type="line"/>
      <point x="885" y="1075" type="line"/>
      <point x="1231" y="1075" type="line" smooth="yes"/>
      <point x="1279" y="1075"/>
      <point x="1301" y="1042"/>
      <point x="1307" y="929" type="curve"/>
      <point x="1350" y="929" type="line"/>
      <point x="1366" y="976"/>
      <point x="1382" y="1073"/>
    </contour>
    <contour>
      <point x="1294" y="650" type="curve"/>
      <point x="1267" y="676" type="line"/>
      <point x="895" y="676" type="line"/>
      <point x="872" y="602" type="line"/>
      <point x="1026" y="602" type="line" smooth="yes"/>
      <point x="1130" y="602"/>
      <point x="1172" y="587"/>
      <point x="1209" y="552" type="curve"/>
      <point x="1233" y="571"/>
      <point x="1271" y="616"/>
    </contour>
    <contour>
      <point x="1449" y="224" type="curve"/>
      <point x="1409" y="241" type="line"/>
      <point x="1355" y="97"/>
      <point x="1317" y="82"/>
      <point x="1204" y="82" type="curve" smooth="yes"/>
      <point x="1085" y="82" type="line" smooth="yes"/>
      <point x="923" y="82"/>
      <point x="934" y="105"/>
      <point x="934" y="141" type="curve" smooth="yes"/>
      <point x="934" y="1081" type="line" smooth="yes"/>
      <point x="934" y="1098"/>
      <point x="983" y="1102"/>
      <point x="1066" y="1119" type="curve"/>
      <point x="1066" y="1159" type="line"/>
      <point x="911" y="1159" type="line"/>
      <point x="654" y="1159" type="line"/>
      <point x="654" y="1119" type="line"/>
      <point x="742" y="1102"/>
      <point x="785" y="1077"/>
      <point x="785" y="1062" type="curve" smooth="yes"/>
      <point x="785" y="95" type="line" smooth="yes"/>
      <point x="785" y="79"/>
      <point x="736" y="56"/>
      <point x="654" y="39" type="curve"/>
      <point x="654" y="0" type="line"/>
      <point x="1411" y="0" type="line"/>
      <point x="1420" y="35"/>
      <point x="1439" y="118"/>
    </contour>
    <contour>
      <point x="839" y="956" type="curve"/>
      <point x="839" y="956"/>
      <point x="817" y="1121"/>
      <point x="830" y="1159" type="curve"/>
      <point x="721" y="1159"/>
      <point x="685" y="1186"/>
      <point x="582" y="1186" type="curve" smooth="yes"/>
      <point x="293" y="1186"/>
      <point x="64" y="897"/>
      <point x="64" y="563" type="curve" smooth="yes"/>
      <point x="64" y="253"/>
      <point x="233" y="-27"/>
      <point x="529" y="-27" type="curve" smooth="yes"/>
      <point x="642" y="-27"/>
      <point x="683" y="0"/>
      <point x="830" y="0" type="curve" smooth="yes"/>
      <point x="830" y="0"/>
      <point x="861" y="80"/>
      <point x="798" y="138" type="curve"/>
      <point x="735" y="88"/>
      <point x="661" y="82"/>
      <point x="555" y="82" type="curve" smooth="yes"/>
      <point x="367" y="82"/>
      <point x="207" y="314"/>
      <point x="207" y="589" type="curve" smooth="yes"/>
      <point x="207" y="889"/>
      <point x="337" y="1081"/>
      <point x="555" y="1081" type="curve" smooth="yes"/>
      <point x="668" y="1081"/>
      <point x="769" y="1046"/>
    </contour>
  </outline>
</glyph>
<glyph name="oe" format="2">
  <advance width="1494"/>
  <unicode hex="0153"/>
  <anchor x="747" y="0" name="H"/>
  <anchor x="747" y="-92" name="L"/>
  <anchor x="1131" y="0" name="O"/>
  <anchor x="1534" y="828" name="R"/>
  <anchor x="747" y="966" name="U"/>
  <outline>
    <contour>
      <point x="1420" y="512" type="curve"/>
      <point x="1420" y="668"/>
      <point x="1343" y="883"/>
      <point x="1115" y="883" type="curve" smooth="yes"/>
      <point x="1058" y="883"/>
      <point x="970" y="847"/>
      <point x="915" y="809" type="curve" smooth="yes"/>
      <point x="787" y="722"/>
      <point x="713" y="564"/>
      <point x="713" y="399" type="curve" smooth="yes"/>
      <point x="713" y="139"/>
      <point x="877" y="-27"/>
      <point x="1060" y="-27" type="curve" smooth="yes"/>
      <point x="1175" y="-27"/>
      <point x="1251" y="0"/>
      <point x="1413" y="179" type="curve"/>
      <point x="1407" y="188"/>
      <point x="1394" y="208"/>
      <point x="1379" y="217" type="curve"/>
      <point x="1242" y="103"/>
      <point x="1184" y="93"/>
      <point x="1116" y="93" type="curve" smooth="yes"/>
      <point x="956" y="93"/>
      <point x="855" y="264"/>
      <point x="855" y="457" type="curve" smooth="yes"/>
      <point x="855" y="645"/>
      <point x="951" y="787"/>
      <point x="1089" y="787" type="curve" smooth="yes"/>
      <point x="1238" y="787"/>
      <point x="1267" y="632"/>
      <point x="1267" y="566" type="curve" smooth="yes"/>
      <point x="1267" y="540"/>
      <point x="1258" y="533"/>
      <point x="1231" y="533" type="curve" smooth="yes"/>
      <point x="810" y="533" type="line"/>
      <point x="808" y="449" type="line"/>
      <point x="1317" y="449" type="line"/>
      <point x="1357" y="465"/>
      <point x="1396" y="487"/>
    </contour>
    <contour>
      <point x="855" y="455" type="curve"/>
      <point x="855" y="697"/>
      <point x="702" y="883"/>
      <point x="492" y="883" type="curve" smooth="yes"/>
      <point x="269" y="883"/>
      <point x="73" y="652"/>
      <point x="73" y="408" type="curve" smooth="yes"/>
      <point x="73" y="158"/>
      <point x="228" y="-27"/>
      <point x="437" y="-27" type="curve" smooth="yes"/>
      <point x="654" y="-27"/>
      <point x="855" y="208"/>
    </contour>
    <contour>
      <point x="713" y="418" type="curve"/>
      <point x="713" y="222"/>
      <point x="623" y="73"/>
      <point x="492" y="73" type="curve" smooth="yes"/>
      <point x="359" y="73"/>
      <point x="214" y="241"/>
      <point x="214" y="435" type="curve" smooth="yes"/>
      <point x="214" y="631"/>
      <point x="305" y="782"/>
      <point x="437" y="782" type="curve" smooth="yes"/>
      <point x="576" y="782"/>
      <point x="713" y="614"/>
    </contour>
  </outline>
</glyph>
<glyph name="florin" format="2">
  <advance width="544"/>
  <unicode hex="0192"/>
  <anchor x="249" y="-552" name="L"/>
  <anchor x="249" y="1554" name="U"/>
  <outline>
    <contour>
      <point x="729" y="1317"/>
      <point x="729" y="1337" type="curve"/>
      <point x="729" y="1358"/>
      <point x="629" y="1426"/>
      <point x="553" y="1426" type="curve" smooth="yes"/>
      <point x="506" y="1426"/>
      <point x="410" y="1394"/>
      <point x="345" y="1341" type="curve" smooth="yes"/>
      <point x="246" y="1262"/>
      <point x="160" y="1173"/>
      <point x="160" y="884" type="curve" smooth="yes"/>
      <point x="160" y="855" type="line"/>
      <point x="90" y="855" type="line"/>
      <point x="18" y="794" type="line"/>
      <point x="37" y="769" type="line"/>
      <point x="160" y="769" type="line"/>
      <point x="160" y="41" type="line" smooth="yes"/>
      <point x="160" y="-262"/>
      <point x="80" y="-335"/>
      <point x="12" y="-335" type="curve" smooth="yes"/>
      <point x="-34" y="-335"/>
      <point x="-64" y="-332"/>
      <point x="-114" y="-294" type="curve"/>
      <point x="-149" y="-310"/>
      <point x="-230" y="-376"/>
      <point x="-230" y="-396" type="curve" smooth="yes"/>
      <point x="-230" y="-414"/>
      <point x="-154" y="-460"/>
      <point x="-80" y="-460" type="curve" smooth="yes"/>
      <point x="-34" y="-460"/>
      <point x="48" y="-426"/>
      <point x="116" y="-374" type="curve" smooth="yes"/>
      <point x="216" y="-298"/>
      <point x="299" y="-197"/>
      <point x="299" y="90" type="curve" smooth="yes"/>
      <point x="299" y="769" type="line"/>
      <point x="395" y="769"/>
      <point x="442" y="751"/>
      <point x="471" y="736" type="curve"/>
      <point x="495" y="747"/>
      <point x="540" y="794"/>
      <point x="563" y="828" type="curve"/>
      <point x="537" y="855" type="line"/>
      <point x="299" y="855" type="line"/>
      <point x="299" y="934" type="line" smooth="yes"/>
      <point x="299" y="1238"/>
      <point x="391" y="1312"/>
      <point x="456" y="1312" type="curve" smooth="yes"/>
      <point x="485" y="1312"/>
      <point x="552" y="1287"/>
      <point x="612" y="1235" type="curve"/>
      <point x="648" y="1253"/>
    </contour>
  </outline>
</glyph>
<glyph name="circumflex" format="2">
  <advance width="674"/>
  <unicode hex="02C6"/>
  <outline>
    <contour>
      <point x="627" y="1004" type="curve"/>
      <point x="386" y="1353" type="line"/>
      <point x="287" y="1353" type="line"/>
      <point x="45" y="1004" type="line"/>
      <point x="62" y="981"/>
      <point x="66" y="972"/>
      <point x="86" y="963" type="curve"/>
      <point x="335" y="1209" type="line"/>
      <point x="587" y="963" type="line"/>
      <point x="609" y="972"/>
      <point x="612" y="981"/>
    </contour>
  </outline>
</glyph>
<glyph name="caron" format="2">
  <advance width="674"/>
  <unicode hex="02C7"/>
  <anchor x="337" y="1297" name="U"/>
  <outline>
    <contour>
      <point x="387" y="985" type="line"/>
      <point x="628" y="1313" type="line"/>
      <point x="613" y="1338"/>
      <point x="609" y="1345"/>
      <point x="588" y="1357" type="curve"/>
      <point x="340" y="1126" type="line"/>
      <point x="87" y="1357" type="line"/>
      <point x="67" y="1345"/>
      <point x="63" y="1338"/>
      <point x="46" y="1313" type="curve"/>
      <point x="288" y="985" type="line"/>
    </contour>
  </outline>
</glyph>
<glyph name="breve" format="2">
  <advance width="671"/>
  <unicode hex="02D8"/>
  <anchor x="335" y="1260" name="U"/>
  <outline>
    <contour>
      <point x="634" y="1251" type="curve"/>
      <point x="620" y="1273"/>
      <point x="607" y="1283"/>
      <point x="586" y="1292" type="curve"/>
      <point x="527" y="1152"/>
      <point x="420" y="1105"/>
      <point x="333" y="1105" type="curve" smooth="yes"/>
      <point x="252" y="1105"/>
      <point x="146" y="1152"/>
      <point x="85" y="1292" type="curve"/>
      <point x="65" y="1283"/>
      <point x="51" y="1273"/>
      <point x="36" y="1251" type="curve"/>
      <point x="110" y="1053"/>
      <point x="217" y="984"/>
      <point x="337" y="984" type="curve" smooth="yes"/>
      <point x="448" y="984"/>
      <point x="561" y="1053"/>
    </contour>
  </outline>
</glyph>
<glyph name="dotaccent" format="2">
  <advance width="368"/>
  <unicode hex="02D9"/>
  <outline>
    <contour>
      <point x="276" y="1160" type="curve"/>
      <point x="276" y="1217"/>
      <point x="250" y="1247"/>
      <point x="197" y="1247" type="curve" smooth="yes"/>
      <point x="139" y="1247"/>
      <point x="92" y="1192"/>
      <point x="92" y="1122" type="curve" smooth="yes"/>
      <point x="92" y="1066"/>
      <point x="115" y="1034"/>
      <point x="169" y="1034" type="curve" smooth="yes"/>
      <point x="230" y="1034"/>
      <point x="276" y="1091"/>
    </contour>
  </outline>
</glyph>
<glyph name="ring" format="2">
  <advance width="471"/>
  <unicode hex="02DA"/>
  <outline>
    <contour>
      <point x="406" y="1057"/>
      <point x="406" y="1181" type="curve"/>
      <point x="406" y="1258"/>
      <point x="343" y="1324"/>
      <point x="264" y="1324" type="curve" smooth="yes"/>
      <point x="169" y="1324"/>
      <point x="64" y="1233"/>
      <point x="64" y="1107" type="curve" smooth="yes"/>
      <point x="64" y="1030"/>
      <point x="124" y="966"/>
      <point x="207" y="966" type="curve" smooth="yes"/>
      <point x="299" y="966"/>
    </contour>
    <contour>
      <point x="323" y="1202"/>
      <point x="323" y="1143" type="curve"/>
      <point x="323" y="1073"/>
      <point x="275" y="1035"/>
      <point x="226" y="1035" type="curve" smooth="yes"/>
      <point x="177" y="1035"/>
      <point x="147" y="1089"/>
      <point x="147" y="1145" type="curve" smooth="yes"/>
      <point x="147" y="1211"/>
      <point x="194" y="1254"/>
      <point x="244" y="1254" type="curve" smooth="yes"/>
      <point x="293" y="1254"/>
    </contour>
  </outline>
</glyph>
<glyph name="ogonek" format="2">
  <advance width="487"/>
  <unicode hex="02DB"/>
  <anchor x="265" y="-552" name="L"/>
  <outline>
    <contour>
      <point x="388" y="-341"/>
      <point x="440" y="-275" type="curve"/>
      <point x="418" y="-241" type="line"/>
      <point x="367" y="-287"/>
      <point x="320" y="-309"/>
      <point x="289" y="-309" type="curve" smooth="yes"/>
      <point x="242" y="-309"/>
      <point x="210" y="-287"/>
      <point x="210" y="-242" type="curve" smooth="yes"/>
      <point x="210" y="-184"/>
      <point x="240" y="-86"/>
      <point x="416" y="22" type="curve"/>
      <point x="375" y="39" type="line"/>
      <point x="191" y="-59"/>
      <point x="92" y="-165"/>
      <point x="92" y="-275" type="curve" smooth="yes"/>
      <point x="92" y="-384"/>
      <point x="163" y="-408"/>
      <point x="235" y="-408" type="curve" smooth="yes"/>
      <point x="296" y="-408"/>
    </contour>
  </outline>
</glyph>
<glyph name="tilde" format="2">
  <advance width="756"/>
  <unicode hex="02DC"/>
  <outline>
    <contour>
      <point x="648" y="1138"/>
      <point x="691" y="1238" type="curve"/>
      <point x="642" y="1259" type="line"/>
      <point x="600" y="1187"/>
      <point x="555" y="1146"/>
      <point x="508" y="1146" type="curve" smooth="yes"/>
      <point x="449" y="1146"/>
      <point x="377" y="1250"/>
      <point x="284" y="1250" type="curve" smooth="yes"/>
      <point x="188" y="1250"/>
      <point x="107" y="1142"/>
      <point x="64" y="1042" type="curve"/>
      <point x="113" y="1023" type="line"/>
      <point x="158" y="1092"/>
      <point x="195" y="1135"/>
      <point x="244" y="1135" type="curve" smooth="yes"/>
      <point x="316" y="1135"/>
      <point x="386" y="1031"/>
      <point x="471" y="1031" type="curve" smooth="yes"/>
      <point x="566" y="1031"/>
    </contour>
  </outline>
</glyph>
<glyph name="uni1981" format="2">
  <advance width="1609"/>
  <unicode hex="1981"/>
  <outline>
    <contour>
      <point x="1060" y="-610" type="curve" smooth="yes"/>
      <point x="1341" y="-610"/>
      <point x="1529" y="-497"/>
      <point x="1529" y="-260" type="curve" smooth="yes"/>
      <point x="1529" y="-75"/>
      <point x="1397" y="12"/>
      <point x="1287" y="28" type="curve"/>
      <point x="1372" y="59"/>
      <point x="1517" y="167"/>
      <point x="1517" y="471" type="curve" smooth="yes"/>
      <point x="1517" y="755"/>
      <point x="1396" y="968"/>
      <point x="1120" y="968" type="curve" smooth="yes"/>
      <point x="981" y="968"/>
      <point x="880" y="889"/>
      <point x="812" y="764" type="curve"/>
      <point x="748" y="907"/>
      <point x="629" y="968"/>
      <point x="482" y="968" type="curve" smooth="yes"/>
      <point x="272" y="968"/>
      <point x="158" y="875"/>
      <point x="93" y="794" type="curve" smooth="yes"/>
      <point x="77" y="774"/>
      <point x="85" y="763"/>
      <point x="133" y="736" type="curve" smooth="yes"/>
      <point x="189" y="705"/>
      <point x="206" y="704"/>
      <point x="211" y="724" type="curve" smooth="yes"/>
      <point x="233" y="812"/>
      <point x="334" y="887"/>
      <point x="433" y="887" type="curve" smooth="yes"/>
      <point x="614" y="887"/>
      <point x="730" y="774"/>
      <point x="730" y="473" type="curve" smooth="yes"/>
      <point x="730" y="240"/>
      <point x="626" y="64"/>
      <point x="449" y="64" type="curve" smooth="yes"/>
      <point x="309" y="64"/>
      <point x="234" y="163"/>
      <point x="209" y="247" type="curve" smooth="yes"/>
      <point x="198" y="283"/>
      <point x="184" y="282"/>
      <point x="130" y="247" type="curve" smooth="yes"/>
      <point x="80" y="214"/>
      <point x="73" y="204"/>
      <point x="86" y="186" type="curve" smooth="yes"/>
      <point x="176" y="61"/>
      <point x="296" y="-17"/>
      <point x="447" y="-17" type="curve" smooth="yes"/>
      <point x="707" y="-17"/>
      <point x="864" y="145"/>
      <point x="864" y="473" type="curve" smooth="yes"/>
      <point x="864" y="512"/>
      <point x="862" y="549"/>
      <point x="858" y="583" type="curve"/>
      <point x="896" y="751"/>
      <point x="997" y="887"/>
      <point x="1099" y="887" type="curve" smooth="yes"/>
      <point x="1238" y="887"/>
      <point x="1384" y="812"/>
      <point x="1384" y="428" type="curve" smooth="yes" name="hr01"/>
      <point x="1384" y="267"/>
      <point x="1306" y="102"/>
      <point x="1195" y="73" type="curve" smooth="yes"/>
      <point x="1145" y="60"/>
      <point x="1116" y="55"/>
      <point x="1099" y="44" type="curve" smooth="yes"/>
      <point x="1095" y="41"/>
      <point x="1093" y="33"/>
      <point x="1105" y="12" type="curve" smooth="yes"/>
      <point x="1123" y="-21"/>
      <point x="1127" y="-21"/>
      <point x="1138" y="-15" type="curve" smooth="yes"/>
      <point x="1143" y="-12"/>
      <point x="1164" y="-10"/>
      <point x="1176" y="-10" type="curve" smooth="yes"/>
      <point x="1289" y="-10"/>
      <point x="1411" y="-104"/>
      <point x="1411" y="-239" type="curve" smooth="yes"/>
      <point x="1411" y="-441"/>
      <point x="1265" y="-526"/>
      <point x="1030" y="-526" type="curve" smooth="yes"/>
      <point x="853" y="-526"/>
      <point x="748" y="-445"/>
      <point x="730" y="-426" type="curve" smooth="yes"/>
      <point x="705" y="-399"/>
      <point x="690" y="-385"/>
      <point x="681" y="-394" type="curve" smooth="yes"/>
      <point x="671" y="-404"/>
      <point x="686" y="-426"/>
      <point x="706" y="-453" type="curve" smooth="yes"/>
      <point x="777" y="-546"/>
      <point x="911" y="-610"/>
    </contour>
    <contour>
      <point x="534" y="1071" type="curve" smooth="yes"/>
      <point x="540" y="1061"/>
      <point x="576" y="1071"/>
      <point x="600" y="1082" type="curve" smooth="yes"/>
      <point x="678" y="1117"/>
      <point x="771" y="1185"/>
      <point x="816" y="1271" type="curve"/>
      <point x="861" y="1185"/>
      <point x="951" y="1121"/>
      <point x="1033" y="1082" type="curve" smooth="yes"/>
      <point x="1056" y="1071"/>
      <point x="1094" y="1065"/>
      <point x="1099" y="1071" type="curve" smooth="yes"/>
      <point x="1104" y="1077"/>
      <point x="1078" y="1096"/>
      <point x="1059" y="1110" type="curve" smooth="yes"/>
      <point x="1007" y="1150"/>
      <point x="908" y="1246"/>
      <point x="871" y="1390" type="curve" smooth="yes"/>
      <point x="868" y="1402"/>
      <point x="858" y="1408"/>
      <point x="816" y="1408" type="curve" smooth="yes"/>
      <point x="772" y="1408"/>
      <point x="765" y="1402"/>
      <point x="762" y="1390" type="curve" smooth="yes"/>
      <point x="723" y="1244"/>
      <point x="626" y="1150"/>
      <point x="574" y="1110" type="curve" smooth="yes"/>
      <point x="555" y="1096"/>
      <point x="529" y="1078"/>
    </contour>
  </outline>
</glyph>
<glyph name="uni1983" format="2">
  <advance width="1003"/>
  <unicode hex="1983"/>
  <outline>
    <contour>
      <point x="469" y="-610" type="curve" smooth="yes"/>
      <point x="715" y="-610"/>
      <point x="922" y="-432"/>
      <point x="922" y="-95" type="curve" smooth="yes"/>
      <point x="922" y="20"/>
      <point x="896" y="117"/>
      <point x="851" y="194" type="curve" name="hr02"/>
      <point x="893" y="269"/>
      <point x="916" y="362"/>
      <point x="916" y="473" type="curve" smooth="yes"/>
      <point x="916" y="802"/>
      <point x="764" y="968"/>
      <point x="524" y="968" type="curve" smooth="yes"/>
      <point x="313" y="968"/>
      <point x="189" y="875"/>
      <point x="124" y="794" type="curve" smooth="yes"/>
      <point x="108" y="774"/>
      <point x="116" y="763"/>
      <point x="164" y="736" type="curve" smooth="yes"/>
      <point x="220" y="705"/>
      <point x="237" y="704"/>
      <point x="242" y="724" type="curve" smooth="yes"/>
      <point x="264" y="812"/>
      <point x="370" y="887"/>
      <point x="475" y="887" type="curve" smooth="yes"/>
      <point x="669" y="887"/>
      <point x="783" y="737"/>
      <point x="783" y="473" type="curve" smooth="yes" name="hr01"/>
      <point x="783" y="411"/>
      <point x="774" y="355"/>
      <point x="759" y="306" type="curve"/>
      <point x="680" y="375"/>
      <point x="578" y="411"/>
      <point x="470" y="411" type="curve" smooth="yes"/>
      <point x="274" y="411"/>
      <point x="116" y="321"/>
      <point x="116" y="198" type="curve" smooth="yes"/>
      <point x="116" y="56"/>
      <point x="292" y="-17"/>
      <point x="467" y="-17" type="curve" smooth="yes"/>
      <point x="588" y="-17"/>
      <point x="694" y="21"/>
      <point x="772" y="93" type="curve"/>
      <point x="793" y="36"/>
      <point x="805" y="-27"/>
      <point x="805" y="-95" type="curve" smooth="yes"/>
      <point x="805" y="-340"/>
      <point x="633" y="-530"/>
      <point x="446" y="-530" type="curve" smooth="yes"/>
      <point x="326" y="-530"/>
      <point x="188" y="-482"/>
      <point x="126" y="-373" type="curve" smooth="yes"/>
      <point x="102" y="-330"/>
      <point x="95" y="-315"/>
      <point x="86" y="-317" type="curve" smooth="yes"/>
      <point x="79" y="-319"/>
      <point x="85" y="-354"/>
      <point x="98" y="-384" type="curve" smooth="yes"/>
      <point x="155" y="-512"/>
      <point x="281" y="-610"/>
    </contour>
    <contour>
      <point x="469" y="64" type="curve" smooth="yes"/>
      <point x="358" y="64"/>
      <point x="233" y="119"/>
      <point x="233" y="199" type="curve" smooth="yes"/>
      <point x="233" y="288"/>
      <point x="359" y="330"/>
      <point x="457" y="330" type="curve" smooth="yes"/>
      <point x="564" y="330"/>
      <point x="652" y="281"/>
      <point x="712" y="204" type="curve" name="hr04"/>
      <point x="654" y="115"/>
      <point x="566" y="64"/>
    </contour>
  </outline>
</glyph>
<glyph name="uni1985" format="2">
  <advance width="1028"/>
  <unicode hex="1985"/>
  <outline>
    <contour>
      <point x="297" y="-14" type="curve" smooth="yes"/>
      <point x="312" y="-21"/>
      <point x="325" y="-17"/>
      <point x="347" y="27" type="curve" smooth="yes"/>
      <point x="372" y="75"/>
      <point x="366" y="102"/>
      <point x="357" y="103" type="curve" smooth="yes"/>
      <point x="232" y="119"/>
      <point x="170" y="243"/>
      <point x="170" y="439" type="curve" smooth="yes"/>
      <point x="170" y="719"/>
      <point x="357" y="835"/>
      <point x="493" y="835" type="curve" smooth="yes"/>
      <point x="646" y="835"/>
      <point x="827" y="713"/>
      <point x="827" y="428" type="curve" smooth="yes"/>
      <point x="827" y="261"/>
      <point x="769" y="115"/>
      <point x="650" y="103" type="curve" smooth="yes"/>
      <point x="637" y="102"/>
      <point x="639" y="71"/>
      <point x="661" y="29" type="curve" smooth="yes"/>
      <point x="681" y="-11"/>
      <point x="694" y="-19"/>
      <point x="706" y="-14" type="curve" smooth="yes"/>
      <point x="832" y="43"/>
      <point x="930" y="199"/>
      <point x="930" y="428" type="curve" smooth="yes"/>
      <point x="930" y="744"/>
      <point x="781" y="968"/>
      <point x="493" y="968" type="curve" smooth="yes"/>
      <point x="221" y="968"/>
      <point x="67" y="753"/>
      <point x="67" y="428" type="curve" smooth="yes"/>
      <point x="67" y="158"/>
      <point x="183" y="37"/>
    </contour>
  </outline>
</glyph>
<glyph name="uni198A" format="2">
  <advance width="982"/>
  <unicode hex="198A"/>
  <outline>
    <contour>
      <point x="470" y="-17" type="curve" smooth="yes"/>
      <point x="763" y="-17"/>
      <point x="870" y="124"/>
      <point x="870" y="550" type="curve" smooth="yes"/>
      <point x="870" y="675"/>
      <point x="855" y="971"/>
      <point x="855" y="1096" type="curve" smooth="yes"/>
      <point x="855" y="1309"/>
      <point x="922" y="1391"/>
      <point x="1015" y="1391" type="curve" smooth="yes"/>
      <point x="1101" y="1391"/>
      <point x="1158" y="1336"/>
      <point x="1158" y="1195" type="curve" smooth="yes"/>
      <point x="1158" y="1156"/>
      <point x="1148" y="1112"/>
      <point x="1141" y="1087" type="curve" smooth="yes"/>
      <point x="1136" y="1068"/>
      <point x="1137" y="1052"/>
      <point x="1141" y="1049" type="curve" smooth="yes"/>
      <point x="1148" y="1044"/>
      <point x="1172" y="1062"/>
      <point x="1182" y="1085" type="curve" smooth="yes"/>
      <point x="1194" y="1113"/>
      <point x="1218" y="1182"/>
      <point x="1218" y="1249" type="curve" smooth="yes"/>
      <point x="1218" y="1342"/>
      <point x="1172" y="1498"/>
      <point x="991" y="1498" type="curve" smooth="yes"/>
      <point x="855" y="1498"/>
      <point x="734" y="1376"/>
      <point x="734" y="1133" type="curve" smooth="yes" name="hr04"/>
      <point x="734" y="1002"/>
      <point x="749" y="700"/>
      <point x="749" y="569" type="curve" smooth="yes"/>
      <point x="749" y="140"/>
      <point x="669" y="64"/>
      <point x="482" y="64" type="curve" smooth="yes"/>
      <point x="327" y="64"/>
      <point x="225" y="147"/>
      <point x="225" y="284" type="curve" smooth="yes"/>
      <point x="225" y="352"/>
      <point x="271" y="484"/>
      <point x="385" y="484" type="curve" smooth="yes" name="hr03"/>
      <point x="411" y="484"/>
      <point x="463" y="468"/>
      <point x="472" y="465" type="curve" smooth="yes"/>
      <point x="481" y="462"/>
      <point x="492" y="470"/>
      <point x="498" y="494" type="curve" smooth="yes"/>
      <point x="504" y="518"/>
      <point x="498" y="532"/>
      <point x="489" y="535" type="curve" smooth="yes"/>
      <point x="480" y="538"/>
      <point x="464" y="533"/>
      <point x="397" y="540" type="curve" smooth="yes"/>
      <point x="288" y="551"/>
      <point x="218" y="628"/>
      <point x="218" y="715" type="curve" smooth="yes"/>
      <point x="218" y="825"/>
      <point x="305" y="887"/>
      <point x="365" y="887" type="curve" smooth="yes"/>
      <point x="446" y="887"/>
      <point x="490" y="860"/>
      <point x="529" y="785" type="curve" smooth="yes"/>
      <point x="535" y="774"/>
      <point x="550" y="769"/>
      <point x="578" y="804" type="curve" smooth="yes"/>
      <point x="602" y="834"/>
      <point x="605" y="850"/>
      <point x="598" y="861" type="curve" smooth="yes"/>
      <point x="547" y="936"/>
      <point x="463" y="968"/>
      <point x="353" y="968" type="curve" smooth="yes"/>
      <point x="237" y="968"/>
      <point x="113" y="873"/>
      <point x="113" y="706" type="curve" smooth="yes"/>
      <point x="113" y="611"/>
      <point x="156" y="548"/>
      <point x="223" y="521" type="curve" name="hr02"/>
      <point x="152" y="501"/>
      <point x="91" y="421"/>
      <point x="91" y="296" type="curve" smooth="yes" name="hr01"/>
      <point x="91" y="118"/>
      <point x="193" y="-17"/>
    </contour>
  </outline>
</glyph>
<glyph name="uni198C" format="2">
  <advance width="1068"/>
  <unicode hex="198C"/>
  <outline>
    <contour>
      <point x="530" y="-610" type="curve" smooth="yes"/>
      <point x="863" y="-610"/>
      <point x="982" y="-419"/>
      <point x="982" y="-258" type="curve" smooth="yes"/>
      <point x="982" y="-85"/>
      <point x="901" y="-4"/>
      <point x="750" y="29" type="curve"/>
      <point x="815" y="57"/>
      <point x="979" y="167"/>
      <point x="979" y="471" type="curve" smooth="yes"/>
      <point x="979" y="755"/>
      <point x="815" y="968"/>
      <point x="539" y="968" type="curve" smooth="yes"/>
      <point x="400" y="968"/>
      <point x="274" y="906"/>
      <point x="190" y="792" type="curve"/>
      <point x="192" y="1106"/>
      <point x="210" y="1183"/>
      <point x="272" y="1263" type="curve" smooth="yes"/>
      <point x="335" y="1344"/>
      <point x="430" y="1375"/>
      <point x="548" y="1375" type="curve" smooth="yes"/>
      <point x="711" y="1375"/>
      <point x="828" y="1294"/>
      <point x="861" y="1221" type="curve" smooth="yes"/>
      <point x="881" y="1176"/>
      <point x="894" y="1163"/>
      <point x="899" y="1165" type="curve" smooth="yes"/>
      <point x="904" y="1167"/>
      <point x="905" y="1189"/>
      <point x="899" y="1222" type="curve" smooth="yes"/>
      <point x="874" y="1365"/>
      <point x="758" y="1498"/>
      <point x="515" y="1498" type="curve" smooth="yes"/>
      <point x="388" y="1498"/>
      <point x="254" y="1433"/>
      <point x="181" y="1314" type="curve" smooth="yes"/>
      <point x="92" y="1170"/>
      <point x="86" y="1062"/>
      <point x="86" y="637" type="curve" smooth="yes"/>
      <point x="86" y="437" type="line" smooth="yes"/>
      <point x="86" y="170"/>
      <point x="235" y="27"/>
      <point x="394" y="-14" type="curve" smooth="yes"/>
      <point x="410" y="-18"/>
      <point x="421" y="-12"/>
      <point x="443" y="37" type="curve" smooth="yes"/>
      <point x="465" y="86"/>
      <point x="465" y="101"/>
      <point x="456" y="103" type="curve" smooth="yes"/>
      <point x="271" y="137"/>
      <point x="190" y="256"/>
      <point x="190" y="460" type="curve" smooth="yes"/>
      <point x="190" y="702"/>
      <point x="342" y="866"/>
      <point x="507" y="866" type="curve" smooth="yes"/>
      <point x="756" y="866"/>
      <point x="845" y="688"/>
      <point x="845" y="428" type="curve" smooth="yes" name="hr01"/>
      <point x="845" y="273"/>
      <point x="763" y="103"/>
      <point x="657" y="73" type="curve" smooth="yes"/>
      <point x="608" y="59"/>
      <point x="578" y="56"/>
      <point x="561" y="45" type="curve" smooth="yes"/>
      <point x="557" y="42"/>
      <point x="555" y="34"/>
      <point x="567" y="12" type="curve" smooth="yes"/>
      <point x="582" y="-16"/>
      <point x="594" y="-17"/>
      <point x="600" y="-15" type="curve" smooth="yes"/>
      <point x="606" y="-13"/>
      <point x="626" y="-10"/>
      <point x="638" y="-10" type="curve" smooth="yes"/>
      <point x="744" y="-10"/>
      <point x="865" y="-103"/>
      <point x="865" y="-258" type="curve" smooth="yes"/>
      <point x="865" y="-411"/>
      <point x="735" y="-526"/>
      <point x="500" y="-526" type="curve" smooth="yes"/>
      <point x="361" y="-526"/>
      <point x="199" y="-471"/>
      <point x="159" y="-426" type="curve" smooth="yes"/>
      <point x="135" y="-399"/>
      <point x="120" y="-387"/>
      <point x="110" y="-394" type="curve" smooth="yes"/>
      <point x="99" y="-402"/>
      <point x="116" y="-426"/>
      <point x="136" y="-453" type="curve" smooth="yes"/>
      <point x="207" y="-546"/>
      <point x="381" y="-610"/>
    </contour>
  </outline>
</glyph>
<glyph name="uni1993" format="2">
  <advance width="968"/>
  <unicode hex="1993"/>
  <outline>
    <contour>
      <point x="483" y="-610" type="curve" smooth="yes"/>
      <point x="738" y="-610"/>
      <point x="910" y="-446"/>
      <point x="910" y="-215" type="curve" smooth="yes"/>
      <point x="910" y="47"/>
      <point x="714" y="163"/>
      <point x="548" y="163" type="curve" smooth="yes" name="hr02"/>
      <point x="378" y="163"/>
      <point x="362" y="122"/>
      <point x="327" y="122" type="curve" smooth="yes"/>
      <point x="303" y="122"/>
      <point x="199" y="150"/>
      <point x="199" y="401" type="curve" smooth="yes"/>
      <point x="199" y="705"/>
      <point x="328" y="887"/>
      <point x="493" y="887" type="curve" smooth="yes"/>
      <point x="609" y="887"/>
      <point x="706" y="829"/>
      <point x="791" y="728" type="curve" smooth="yes"/>
      <point x="805" y="712"/>
      <point x="814" y="710"/>
      <point x="849" y="750" type="curve" smooth="yes"/>
      <point x="889" y="795"/>
      <point x="888" y="803"/>
      <point x="874" y="815" type="curve" smooth="yes"/>
      <point x="765" y="910"/>
      <point x="639" y="968"/>
      <point x="522" y="968" type="curve" smooth="yes"/>
      <point x="229" y="968"/>
      <point x="80" y="691"/>
      <point x="80" y="342" type="curve" smooth="yes"/>
      <point x="80" y="131"/>
      <point x="150" y="-17"/>
      <point x="266" y="-17" type="curve" smooth="yes" name="hr01"/>
      <point x="330" y="-17"/>
      <point x="385" y="89"/>
      <point x="510" y="89" type="curve" smooth="yes"/>
      <point x="615" y="89"/>
      <point x="776" y="13"/>
      <point x="776" y="-215" type="curve" smooth="yes"/>
      <point x="776" y="-403"/>
      <point x="638" y="-526"/>
      <point x="453" y="-526" type="curve" smooth="yes"/>
      <point x="276" y="-526"/>
      <point x="170" y="-445"/>
      <point x="152" y="-426" type="curve" smooth="yes"/>
      <point x="124" y="-396"/>
      <point x="109" y="-388"/>
      <point x="103" y="-394" type="curve" smooth="yes"/>
      <point x="96" y="-401"/>
      <point x="102" y="-422"/>
      <point x="128" y="-453" type="curve" smooth="yes"/>
      <point x="204" y="-544"/>
      <point x="327" y="-610"/>
    </contour>
  </outline>
</glyph>
<glyph name="uni1994" format="2">
  <advance width="1026"/>
  <unicode hex="1994"/>
  <outline>
    <contour>
      <point x="511" y="-17" type="curve" smooth="yes"/>
      <point x="765" y="-17"/>
      <point x="921" y="171"/>
      <point x="921" y="492" type="curve" smooth="yes" name="hr01"/>
      <point x="921" y="748"/>
      <point x="893" y="835"/>
      <point x="893" y="994" type="curve" smooth="yes"/>
      <point x="893" y="1274"/>
      <point x="942" y="1381"/>
      <point x="1064" y="1381" type="curve" smooth="yes"/>
      <point x="1172" y="1381"/>
      <point x="1202" y="1276"/>
      <point x="1202" y="1186" type="curve" smooth="yes"/>
      <point x="1202" y="1144"/>
      <point x="1194" y="1114"/>
      <point x="1188" y="1087" type="curve" smooth="yes"/>
      <point x="1181" y="1058"/>
      <point x="1180" y="1043"/>
      <point x="1186" y="1040" type="curve" smooth="yes"/>
      <point x="1193" y="1036"/>
      <point x="1211" y="1047"/>
      <point x="1221" y="1066" type="curve" smooth="yes"/>
      <point x="1244" y="1110"/>
      <point x="1262" y="1193"/>
      <point x="1262" y="1238" type="curve" smooth="yes"/>
      <point x="1262" y="1330"/>
      <point x="1216" y="1488"/>
      <point x="1041" y="1488" type="curve" smooth="yes"/>
      <point x="854" y="1488"/>
      <point x="776" y="1315"/>
      <point x="776" y="1089" type="curve" smooth="yes" name="hr02"/>
      <point x="776" y="871"/>
      <point x="819" y="692"/>
      <point x="819" y="503" type="curve" smooth="yes"/>
      <point x="819" y="223"/>
      <point x="676" y="117"/>
      <point x="511" y="117" type="curve" smooth="yes"/>
      <point x="346" y="117"/>
      <point x="183" y="223"/>
      <point x="183" y="503" type="curve" smooth="yes"/>
      <point x="183" y="686"/>
      <point x="243" y="823"/>
      <point x="368" y="860" type="curve" smooth="yes"/>
      <point x="377" y="863"/>
      <point x="377" y="877"/>
      <point x="355" y="926" type="curve" smooth="yes"/>
      <point x="333" y="975"/>
      <point x="321" y="973"/>
      <point x="306" y="966" type="curve" smooth="yes"/>
      <point x="182" y="911"/>
      <point x="80" y="739"/>
      <point x="80" y="492" type="curve" smooth="yes"/>
      <point x="80" y="167"/>
      <point x="257" y="-17"/>
    </contour>
  </outline>
</glyph>
<glyph name="uni19A2" format="2">
  <advance width="1028"/>
  <unicode hex="19A2"/>
  <outline>
    <contour>
      <point x="511" y="-17" type="curve" smooth="yes"/>
      <point x="765" y="-17"/>
      <point x="943" y="167"/>
      <point x="943" y="492" type="curve" smooth="yes"/>
      <point x="943" y="739"/>
      <point x="841" y="911"/>
      <point x="717" y="966" type="curve" smooth="yes"/>
      <point x="702" y="973"/>
      <point x="689" y="972"/>
      <point x="668" y="926" type="curve" smooth="yes"/>
      <point x="645" y="877"/>
      <point x="646" y="861"/>
      <point x="655" y="860" type="curve" smooth="yes"/>
      <point x="765" y="842"/>
      <point x="840" y="692"/>
      <point x="840" y="503" type="curve" smooth="yes"/>
      <point x="840" y="223"/>
      <point x="676" y="117"/>
      <point x="511" y="117" type="curve" smooth="yes"/>
      <point x="346" y="117"/>
      <point x="183" y="223"/>
      <point x="183" y="503" type="curve" smooth="yes"/>
      <point x="183" y="692"/>
      <point x="252" y="840"/>
      <point x="368" y="860" type="curve" smooth="yes"/>
      <point x="377" y="862"/>
      <point x="379" y="877"/>
      <point x="355" y="926" type="curve" smooth="yes"/>
      <point x="333" y="972"/>
      <point x="321" y="973"/>
      <point x="306" y="966" type="curve" smooth="yes"/>
      <point x="182" y="911"/>
      <point x="80" y="739"/>
      <point x="80" y="492" type="curve" smooth="yes"/>
      <point x="80" y="167"/>
      <point x="257" y="-17"/>
    </contour>
  </outline>
</glyph>
<glyph name="uni19A7" format="2">
  <advance width="977"/>
  <unicode hex="19A7"/>
  <outline>
    <contour>
      <point x="834" y="-143" type="curve" smooth="yes"/>
      <point x="847" y="-147"/>
      <point x="876" y="-80"/>
      <point x="876" y="-10" type="curve" smooth="yes" name="hr02"/>
      <point x="876" y="66"/>
      <point x="857" y="136"/>
      <point x="824" y="195" type="curve" name="hr01"/>
      <point x="867" y="270"/>
      <point x="892" y="363"/>
      <point x="892" y="473" type="curve" smooth="yes"/>
      <point x="892" y="802"/>
      <point x="739" y="968"/>
      <point x="499" y="968" type="curve" smooth="yes"/>
      <point x="288" y="968"/>
      <point x="164" y="875"/>
      <point x="99" y="794" type="curve" smooth="yes"/>
      <point x="83" y="774"/>
      <point x="92" y="763"/>
      <point x="140" y="736" type="curve" smooth="yes"/>
      <point x="196" y="705"/>
      <point x="213" y="704"/>
      <point x="218" y="724" type="curve" smooth="yes"/>
      <point x="240" y="812"/>
      <point x="345" y="887"/>
      <point x="450" y="887" type="curve" smooth="yes"/>
      <point x="644" y="887"/>
      <point x="758" y="737"/>
      <point x="758" y="473" type="curve" smooth="yes" name="hr03"/>
      <point x="758" y="411"/>
      <point x="748" y="355"/>
      <point x="732" y="306" type="curve"/>
      <point x="653" y="373"/>
      <point x="549" y="411"/>
      <point x="434" y="411" type="curve" smooth="yes"/>
      <point x="238" y="411"/>
      <point x="91" y="321"/>
      <point x="91" y="198" type="curve" smooth="yes"/>
      <point x="91" y="56"/>
      <point x="257" y="-17"/>
      <point x="432" y="-17" type="curve" smooth="yes"/>
      <point x="570" y="-17"/>
      <point x="691" y="33"/>
      <point x="774" y="126" type="curve"/>
      <point x="806" y="71"/>
      <point x="823" y="12"/>
      <point x="823" y="-42" type="curve" smooth="yes"/>
      <point x="823" y="-96"/>
      <point x="826" y="-140"/>
    </contour>
    <contour>
      <point x="474" y="-610" type="curve" smooth="yes"/>
      <point x="675" y="-610"/>
      <point x="830" y="-522"/>
      <point x="830" y="-395" type="curve" smooth="yes"/>
      <point x="830" y="-268"/>
      <point x="675" y="-180"/>
      <point x="474" y="-180" type="curve" smooth="yes"/>
      <point x="273" y="-180"/>
      <point x="118" y="-267"/>
      <point x="118" y="-395" type="curve" smooth="yes"/>
      <point x="118" y="-522"/>
      <point x="270" y="-610"/>
    </contour>
    <contour>
      <point x="474" y="-535" type="curve" smooth="yes"/>
      <point x="336" y="-535"/>
      <point x="246" y="-477"/>
      <point x="246" y="-395" type="curve" smooth="yes"/>
      <point x="246" y="-312"/>
      <point x="344" y="-255"/>
      <point x="474" y="-255" type="curve" smooth="yes"/>
      <point x="606" y="-255"/>
      <point x="702" y="-315"/>
      <point x="702" y="-395" type="curve" smooth="yes" name="hr05"/>
      <point x="702" y="-478"/>
      <point x="611" y="-535"/>
    </contour>
    <contour>
      <point x="434" y="64" type="curve" smooth="yes"/>
      <point x="323" y="64"/>
      <point x="209" y="119"/>
      <point x="209" y="199" type="curve" smooth="yes"/>
      <point x="209" y="288"/>
      <point x="324" y="330"/>
      <point x="422" y="330" type="curve" smooth="yes"/>
      <point x="534" y="330"/>
      <point x="627" y="286"/>
      <point x="695" y="223" type="curve" name="hr04"/>
      <point x="635" y="122"/>
      <point x="538" y="64"/>
    </contour>
  </outline>
</glyph>
<glyph name="uni19B5" format="2">
  <advance width="977"/>
  <unicode hex="19B5"/>
  <outline>
    <contour>
      <point x="288" y="-15" type="curve" smooth="yes"/>
      <point x="302" y="-19"/>
      <point x="316" y="-16"/>
      <point x="353" y="34" type="curve" smooth="yes"/>
      <point x="403" y="102"/>
      <point x="401" y="112"/>
      <point x="391" y="114" type="curve" smooth="yes"/>
      <point x="290" y="138"/>
      <point x="199" y="243"/>
      <point x="199" y="444" type="curve" smooth="yes"/>
      <point x="199" y="776"/>
      <point x="353" y="887"/>
      <point x="515" y="887" type="curve" smooth="yes"/>
      <point x="648" y="887"/>
      <point x="744" y="784"/>
      <point x="744" y="580" type="curve" smooth="yes" name="hr01"/>
      <point x="744" y="459"/>
      <point x="712" y="314"/>
      <point x="712" y="219" type="curve" smooth="yes"/>
      <point x="712" y="62"/>
      <point x="779" y="-17"/>
      <point x="893" y="-17" type="curve" smooth="yes"/>
      <point x="988" y="-17"/>
      <point x="1009" y="125"/>
      <point x="993" y="126" type="curve" smooth="yes"/>
      <point x="979" y="127"/>
      <point x="966" y="47"/>
      <point x="914" y="47" type="curve" smooth="yes"/>
      <point x="869" y="47"/>
      <point x="845" y="110"/>
      <point x="845" y="220" type="curve" smooth="yes" name="hr02"/>
      <point x="845" y="292"/>
      <point x="877" y="477"/>
      <point x="877" y="549" type="curve" smooth="yes"/>
      <point x="877" y="826"/>
      <point x="745" y="968"/>
      <point x="522" y="968" type="curve" smooth="yes"/>
      <point x="274" y="968"/>
      <point x="80" y="747"/>
      <point x="80" y="364" type="curve" smooth="yes"/>
      <point x="80" y="176"/>
      <point x="153" y="27"/>
    </contour>
  </outline>
</glyph>
<glyph name="uni19B9" format="2">
  <advance width="921"/>
  <unicode hex="19B9"/>
  <outline>
    <contour>
      <point x="458" y="-17" type="curve" smooth="yes"/>
      <point x="757" y="-17"/>
      <point x="836" y="393"/>
      <point x="836" y="740" type="curve" smooth="yes"/>
      <point x="836" y="1127"/>
      <point x="748" y="1498"/>
      <point x="458" y="1498" type="curve" smooth="yes"/>
      <point x="194" y="1498"/>
      <point x="80" y="1124"/>
      <point x="80" y="740" type="curve" smooth="yes"/>
      <point x="80" y="391"/>
      <point x="189" y="-17"/>
    </contour>
    <contour>
      <point x="458" y="64" type="curve" smooth="yes"/>
      <point x="309" y="64"/>
      <point x="226" y="340"/>
      <point x="215" y="662" type="curve"/>
      <point x="244" y="711"/>
      <point x="331" y="835"/>
      <point x="458" y="835" type="curve" smooth="yes"/>
      <point x="578" y="835"/>
      <point x="666" y="731"/>
      <point x="701" y="680" type="curve"/>
      <point x="693" y="357"/>
      <point x="619" y="64"/>
    </contour>
    <contour>
      <point x="216" y="826" type="curve"/>
      <point x="226" y="1104"/>
      <point x="287" y="1344"/>
      <point x="402" y="1403" type="curve"/>
      <point x="408" y="1363"/>
      <point x="414" y="1300"/>
      <point x="414" y="1182" type="curve" smooth="yes"/>
      <point x="414" y="1043"/>
      <point x="406" y="963"/>
      <point x="400" y="911" type="curve"/>
      <point x="318" y="896"/>
      <point x="252" y="853"/>
    </contour>
    <contour>
      <point x="700" y="829" type="curve"/>
      <point x="662" y="856"/>
      <point x="595" y="897"/>
      <point x="515" y="911" type="curve"/>
      <point x="509" y="963"/>
      <point x="502" y="1044"/>
      <point x="502" y="1182" type="curve" smooth="yes"/>
      <point x="502" y="1300"/>
      <point x="508" y="1364"/>
      <point x="514" y="1404" type="curve"/>
      <point x="631" y="1347"/>
      <point x="690" y="1109"/>
    </contour>
  </outline>
</glyph>
<glyph name="uni19BF" format="2">
  <advance width="1373"/>
  <unicode hex="19BF"/>
  <outline>
    <contour>
      <point x="951" y="-610" type="curve" smooth="yes"/>
      <point x="1108" y="-610"/>
      <point x="1228" y="-445"/>
      <point x="1228" y="44" type="curve" smooth="yes"/>
      <point x="1228" y="299"/>
      <point x="1234" y="895"/>
      <point x="1234" y="917" type="curve" smooth="yes"/>
      <point x="1234" y="943"/>
      <point x="1226" y="952"/>
      <point x="1165" y="952" type="curve" smooth="yes"/>
      <point x="1095" y="952"/>
      <point x="1091" y="947"/>
      <point x="1091" y="914" type="curve" smooth="yes" name="hr03"/>
      <point x="1091" y="894"/>
      <point x="1105" y="828"/>
      <point x="1105" y="322" type="curve" smooth="yes"/>
      <point x="1105" y="-401"/>
      <point x="1059" y="-530"/>
      <point x="946" y="-530" type="curve" smooth="yes"/>
      <point x="887" y="-530"/>
      <point x="821" y="-450"/>
      <point x="821" y="-254" type="curve" smooth="yes" name="hr02"/>
      <point x="821" y="-190"/>
      <point x="825" y="330"/>
      <point x="826" y="534" type="curve"/>
      <point x="833" y="603"/>
      <point x="836" y="672"/>
      <point x="836" y="740" type="curve" smooth="yes" name="hr01"/>
      <point x="836" y="1127"/>
      <point x="748" y="1498"/>
      <point x="458" y="1498" type="curve" smooth="yes"/>
      <point x="194" y="1498"/>
      <point x="80" y="1124"/>
      <point x="80" y="740" type="curve" smooth="yes"/>
      <point x="80" y="391"/>
      <point x="189" y="-17"/>
      <point x="458" y="-17" type="curve" smooth="yes"/>
      <point x="562" y="-17"/>
      <point x="639" y="32"/>
      <point x="696" y="112" type="curve"/>
      <point x="694" y="-30"/>
      <point x="692" y="-211"/>
      <point x="692" y="-302" type="curve" smooth="yes"/>
      <point x="692" y="-510"/>
      <point x="795" y="-610"/>
    </contour>
    <contour>
      <point x="458" y="64" type="curve" smooth="yes"/>
      <point x="309" y="64"/>
      <point x="226" y="340"/>
      <point x="215" y="662" type="curve"/>
      <point x="244" y="711"/>
      <point x="331" y="835"/>
      <point x="458" y="835" type="curve" smooth="yes"/>
      <point x="578" y="835"/>
      <point x="666" y="731"/>
      <point x="701" y="680" type="curve"/>
      <point x="693" y="357"/>
      <point x="619" y="64"/>
    </contour>
    <contour>
      <point x="216" y="826" type="curve"/>
      <point x="226" y="1104"/>
      <point x="287" y="1344"/>
      <point x="402" y="1403" type="curve"/>
      <point x="408" y="1363"/>
      <point x="414" y="1300"/>
      <point x="414" y="1182" type="curve" smooth="yes"/>
      <point x="414" y="1043"/>
      <point x="406" y="963"/>
      <point x="400" y="911" type="curve"/>
      <point x="318" y="896"/>
      <point x="252" y="853"/>
    </contour>
    <contour>
      <point x="700" y="829" type="curve"/>
      <point x="662" y="856"/>
      <point x="595" y="897"/>
      <point x="515" y="911" type="curve"/>
      <point x="509" y="963"/>
      <point x="502" y="1044"/>
      <point x="502" y="1182" type="curve" smooth="yes"/>
      <point x="502" y="1300"/>
      <point x="508" y="1364"/>
      <point x="514" y="1404" type="curve"/>
      <point x="631" y="1347"/>
      <point x="690" y="1109"/>
    </contour>
  </outline>
</glyph>
<glyph name="uni19C2" format="2">
  <advance width="1003"/>
  <unicode hex="19C2"/>
  <outline>
    <contour>
      <point x="589" y="-610" type="curve" smooth="yes"/>
      <point x="720" y="-610"/>
      <point x="912" y="-441"/>
      <point x="912" y="180" type="curve" smooth="yes"/>
      <point x="912" y="581"/>
      <point x="783" y="970"/>
      <point x="501" y="970" type="curve" smooth="yes"/>
      <point x="253" y="970"/>
      <point x="80" y="694"/>
      <point x="80" y="345" type="curve" smooth="yes"/>
      <point x="80" y="134"/>
      <point x="145" y="-15"/>
      <point x="224" y="-15" type="curve" smooth="yes"/>
      <point x="307" y="-15"/>
      <point x="357" y="164"/>
      <point x="450" y="164" type="curve" smooth="yes" name="hr02"/>
      <point x="514" y="164"/>
      <point x="536" y="110"/>
      <point x="536" y="81" type="curve" smooth="yes"/>
      <point x="536" y="29"/>
      <point x="507" y="-5"/>
      <point x="498" y="-9" type="curve" smooth="yes"/>
      <point x="484" y="-16"/>
      <point x="475" y="-22"/>
      <point x="474" y="-27" type="curve" smooth="yes"/>
      <point x="473" y="-34"/>
      <point x="493" y="-41"/>
      <point x="507" y="-41" type="curve" smooth="yes" name="hr01"/>
      <point x="522" y="-41"/>
      <point x="562" y="-40"/>
      <point x="587" y="-25" type="curve" smooth="yes"/>
      <point x="612" y="-10"/>
      <point x="652" y="44"/>
      <point x="652" y="109" type="curve" smooth="yes"/>
      <point x="652" y="190"/>
      <point x="608" y="263"/>
      <point x="502" y="263" type="curve" smooth="yes"/>
      <point x="374" y="263"/>
      <point x="296" y="141"/>
      <point x="261" y="141" type="curve" smooth="yes"/>
      <point x="228" y="141"/>
      <point x="194" y="216"/>
      <point x="194" y="403" type="curve" smooth="yes"/>
      <point x="194" y="700"/>
      <point x="331" y="889"/>
      <point x="493" y="889" type="curve" smooth="yes"/>
      <point x="655" y="889"/>
      <point x="776" y="583"/>
      <point x="776" y="138" type="curve" smooth="yes"/>
      <point x="776" y="-149"/>
      <point x="750" y="-306"/>
      <point x="716" y="-410" type="curve"/>
      <point x="711" y="-353"/>
      <point x="645" y="-302"/>
      <point x="578" y="-302" type="curve" smooth="yes"/>
      <point x="501" y="-302"/>
      <point x="428" y="-359"/>
      <point x="428" y="-440" type="curve" smooth="yes"/>
      <point x="428" y="-543"/>
      <point x="497" y="-610"/>
    </contour>
    <contour>
      <point x="585" y="-537" type="curve" smooth="yes"/>
      <point x="533" y="-537"/>
      <point x="494" y="-488"/>
      <point x="494" y="-453" type="curve" smooth="yes"/>
      <point x="494" y="-406"/>
      <point x="530" y="-363"/>
      <point x="581" y="-363" type="curve" smooth="yes"/>
      <point x="631" y="-363"/>
      <point x="669" y="-404"/>
      <point x="669" y="-454" type="curve" smooth="yes" name="hr03"/>
      <point x="669" y="-509"/>
      <point x="631" y="-537"/>
    </contour>
  </outline>
</glyph>
<glyph name="uni19D0" format="2">
  <advance width="1005"/>
  <unicode hex="19D0"/>
  <outline>
    <contour>
      <point x="500" y="-17" type="curve" smooth="yes"/>
      <point x="799" y="-17"/>
      <point x="919" y="223"/>
      <point x="919" y="473" type="curve" smooth="yes"/>
      <point x="919" y="757"/>
      <point x="790" y="968"/>
      <point x="500" y="968" type="curve" smooth="yes"/>
      <point x="236" y="968"/>
      <point x="80" y="762"/>
      <point x="80" y="473" type="curve" smooth="yes"/>
      <point x="80" y="213"/>
      <point x="231" y="-17"/>
    </contour>
    <contour>
      <point x="500" y="64" type="curve" smooth="yes"/>
      <point x="340" y="64"/>
      <point x="214" y="198"/>
      <point x="214" y="473" type="curve" smooth="yes"/>
      <point x="214" y="747"/>
      <point x="334" y="887"/>
      <point x="500" y="887" type="curve" smooth="yes"/>
      <point x="668" y="887"/>
      <point x="785" y="744"/>
      <point x="785" y="473" type="curve" smooth="yes"/>
      <point x="785" y="207"/>
      <point x="671" y="64"/>
    </contour>
  </outline>
</glyph>
<glyph name="uni19D4" format="2">
  <advance width="970"/>
  <unicode hex="19D4"/>
  <outline>
    <contour>
      <point x="224" y="-475" type="curve" smooth="yes"/>
      <point x="481" y="-338"/>
      <point x="703" y="-150"/>
      <point x="875" y="97" type="curve" smooth="yes"/>
      <point x="882" y="108"/>
      <point x="879" y="119"/>
      <point x="856" y="147" type="curve" smooth="yes"/>
      <point x="825" y="184"/>
      <point x="809" y="186"/>
      <point x="802" y="180" type="curve" smooth="yes"/>
      <point x="742" y="124"/>
      <point x="630" y="64"/>
      <point x="538" y="64" type="curve" smooth="yes"/>
      <point x="357" y="64"/>
      <point x="219" y="177"/>
      <point x="219" y="478" type="curve" smooth="yes"/>
      <point x="219" y="711"/>
      <point x="334" y="887"/>
      <point x="511" y="887" type="curve" smooth="yes"/>
      <point x="651" y="887"/>
      <point x="736" y="787"/>
      <point x="761" y="704" type="curve" smooth="yes"/>
      <point x="772" y="668"/>
      <point x="787" y="669"/>
      <point x="841" y="704" type="curve" smooth="yes"/>
      <point x="891" y="737"/>
      <point x="898" y="747"/>
      <point x="885" y="765" type="curve" smooth="yes"/>
      <point x="795" y="890"/>
      <point x="664" y="968"/>
      <point x="513" y="968" type="curve" smooth="yes"/>
      <point x="253" y="968"/>
      <point x="85" y="780"/>
      <point x="85" y="478" type="curve" smooth="yes"/>
      <point x="85" y="125"/>
      <point x="276" y="-17"/>
      <point x="499" y="-17" type="curve" smooth="yes"/>
      <point x="580" y="-17"/>
      <point x="656" y="-4"/>
      <point x="706" y="28" type="curve"/>
      <point x="575" y="-120"/>
      <point x="391" y="-258"/>
      <point x="142" y="-367" type="curve" smooth="yes"/>
      <point x="129" y="-373"/>
      <point x="126" y="-386"/>
      <point x="159" y="-433" type="curve" smooth="yes"/>
      <point x="192" y="-480"/>
      <point x="205" y="-485"/>
    </contour>
  </outline>
</glyph>
<glyph name="uni19D7" format="2">
  <advance width="1096"/>
  <unicode hex="19D7"/>
  <outline>
    <contour>
      <point x="1086" y="-610" type="curve" smooth="yes"/>
      <point x="1212" y="-610"/>
      <point x="1308" y="-522"/>
      <point x="1308" y="-330" type="curve" smooth="yes"/>
      <point x="1308" y="-240"/>
      <point x="1273" y="-147"/>
      <point x="1258" y="-121" type="curve" smooth="yes"/>
      <point x="1241" y="-91"/>
      <point x="1224" y="-71"/>
      <point x="1213" y="-74" type="curve" smooth="yes"/>
      <point x="1202" y="-77"/>
      <point x="1214" y="-110"/>
      <point x="1219" y="-148" type="curve" smooth="yes"/>
      <point x="1226" y="-198"/>
      <point x="1238" y="-211"/>
      <point x="1238" y="-323" type="curve" smooth="yes"/>
      <point x="1238" y="-440"/>
      <point x="1168" y="-502"/>
      <point x="1103" y="-502" type="curve" smooth="yes"/>
      <point x="1028" y="-502"/>
      <point x="985" y="-413"/>
      <point x="985" y="-264" type="curve" smooth="yes"/>
      <point x="985" y="-110"/>
      <point x="1018" y="239"/>
      <point x="1018" y="449" type="curve" smooth="yes"/>
      <point x="1018" y="751"/>
      <point x="962" y="968"/>
      <point x="752" y="968" type="curve" smooth="yes"/>
      <point x="622" y="968"/>
      <point x="573" y="883"/>
      <point x="549" y="780" type="curve"/>
      <point x="521" y="886"/>
      <point x="476" y="968"/>
      <point x="346" y="968" type="curve" smooth="yes"/>
      <point x="161" y="968"/>
      <point x="80" y="753"/>
      <point x="80" y="428" type="curve" smooth="yes"/>
      <point x="80" y="135"/>
      <point x="187" y="24"/>
      <point x="310" y="-14" type="curve" smooth="yes"/>
      <point x="327" y="-19"/>
      <point x="339" y="-17"/>
      <point x="360" y="27" type="curve" smooth="yes"/>
      <point x="384" y="76"/>
      <point x="381" y="91"/>
      <point x="372" y="92" type="curve" smooth="yes"/>
      <point x="243" y="108"/>
      <point x="183" y="260"/>
      <point x="183" y="449" type="curve" smooth="yes"/>
      <point x="183" y="700"/>
      <point x="223" y="835"/>
      <point x="346" y="835" type="curve" smooth="yes"/>
      <point x="448" y="835"/>
      <point x="481" y="792"/>
      <point x="500" y="690" type="curve" smooth="yes"/>
      <point x="502" y="680"/>
      <point x="503" y="670"/>
      <point x="505" y="658" type="curve" smooth="yes"/>
      <point x="507" y="646"/>
      <point x="519" y="637"/>
      <point x="549" y="637" type="curve" smooth="yes"/>
      <point x="580" y="637"/>
      <point x="591" y="646"/>
      <point x="593" y="658" type="curve" smooth="yes"/>
      <point x="594" y="669"/>
      <point x="595" y="678"/>
      <point x="597" y="688" type="curve" smooth="yes"/>
      <point x="615" y="788"/>
      <point x="655" y="835"/>
      <point x="752" y="835" type="curve" smooth="yes"/>
      <point x="875" y="835"/>
      <point x="915" y="692"/>
      <point x="915" y="471" type="curve" smooth="yes" name="hr01"/>
      <point x="915" y="222"/>
      <point x="883" y="-121"/>
      <point x="883" y="-292" type="curve" smooth="yes"/>
      <point x="883" y="-516"/>
      <point x="957" y="-610"/>
    </contour>
  </outline>
</glyph>
<glyph name="figuredash" format="2">
  <advance width="884"/>
  <unicode hex="2012"/>
  <outline>
    <contour>
      <point x="828" y="502" type="curve"/>
      <point x="806" y="524" type="line"/>
      <point x="84" y="524" type="line"/>
      <point x="73" y="500"/>
      <point x="62" y="467"/>
      <point x="56" y="440" type="curve"/>
      <point x="79" y="418" type="line"/>
      <point x="801" y="418" type="line"/>
      <point x="811" y="438"/>
      <point x="822" y="475"/>
    </contour>
  </outline>
</glyph>
<glyph name="endash" format="2">
  <advance width="688"/>
  <unicode hex="2013"/>
  <outline>
    <contour>
      <point x="144" y="505" type="curve" smooth="yes"/>
      <point x="544" y="505" type="line" smooth="yes"/>
      <point x="564" y="505"/>
      <point x="570" y="511"/>
      <point x="570" y="551" type="curve" smooth="yes"/>
      <point x="570" y="588"/>
      <point x="563" y="594"/>
      <point x="542" y="594" type="curve" smooth="yes"/>
      <point x="147" y="594" type="line" smooth="yes"/>
      <point x="126" y="594"/>
      <point x="118" y="590"/>
      <point x="118" y="551" type="curve" smooth="yes"/>
      <point x="118" y="512"/>
      <point x="123" y="505"/>
    </contour>
  </outline>
</glyph>
<glyph name="horizontalbar" format="2">
  <advance width="1793"/>
  <unicode hex="2015"/>
  <outline>
    <contour>
      <point x="1736" y="502" type="curve"/>
      <point x="1714" y="524" type="line"/>
      <point x="84" y="524" type="line"/>
      <point x="73" y="500"/>
      <point x="62" y="467"/>
      <point x="56" y="440" type="curve"/>
      <point x="79" y="418" type="line"/>
      <point x="1709" y="418" type="line"/>
      <point x="1718" y="438"/>
      <point x="1731" y="475"/>
    </contour>
  </outline>
</glyph>
<glyph name="quotesinglbase" format="2">
  <advance width="431"/>
  <unicode hex="201A"/>
  <outline>
    <contour>
      <point x="346" y="56" type="curve"/>
      <point x="346" y="126"/>
      <point x="323" y="163"/>
      <point x="284" y="201" type="curve"/>
      <point x="241" y="203"/>
      <point x="102" y="147"/>
      <point x="80" y="118" type="curve"/>
      <point x="95" y="77" type="line"/>
      <point x="165" y="73"/>
      <point x="197" y="26"/>
      <point x="197" y="-28" type="curve" smooth="yes"/>
      <point x="197" y="-77"/>
      <point x="172" y="-163"/>
      <point x="120" y="-218" type="curve"/>
      <point x="161" y="-250" type="line"/>
      <point x="278" y="-174"/>
      <point x="346" y="-39"/>
    </contour>
  </outline>
</glyph>
<glyph name="dagger" format="2">
  <advance width="898"/>
  <unicode hex="2020"/>
  <outline>
    <contour>
      <point x="539" y="1338" type="curve"/>
      <point x="499" y="1361" type="line"/>
      <point x="458" y="1344"/>
      <point x="402" y="1316"/>
      <point x="355" y="1286" type="curve"/>
      <point x="391" y="1184"/>
      <point x="402" y="1063"/>
      <point x="402" y="937" type="curve" smooth="yes"/>
      <point x="402" y="841"/>
      <point x="396" y="726"/>
      <point x="368" y="625" type="curve"/>
      <point x="392" y="491"/>
      <point x="401" y="350"/>
      <point x="402" y="230" type="curve" smooth="yes"/>
      <point x="403" y="155"/>
      <point x="397" y="64"/>
      <point x="390" y="-17" type="curve"/>
      <point x="416" y="-36" type="line"/>
      <point x="447" y="-27"/>
      <point x="480" y="-17"/>
      <point x="503" y="0" type="curve"/>
      <point x="496" y="73"/>
      <point x="490" y="159"/>
      <point x="491" y="230" type="curve" smooth="yes"/>
      <point x="493" y="346"/>
      <point x="501" y="490"/>
      <point x="525" y="625" type="curve"/>
      <point x="497" y="725"/>
      <point x="489" y="840"/>
      <point x="491" y="936" type="curve" smooth="yes"/>
      <point x="494" y="1064"/>
      <point x="506" y="1209"/>
    </contour>
    <contour>
      <point x="834" y="988" type="curve"/>
      <point x="811" y="1027" type="line"/>
      <point x="686" y="996"/>
      <point x="582" y="984"/>
      <point x="448" y="980" type="curve"/>
      <point x="324" y="983"/>
      <point x="233" y="994"/>
      <point x="139" y="1027" type="curve"/>
      <point x="109" y="980"/>
      <point x="81" y="924"/>
      <point x="64" y="883" type="curve"/>
      <point x="87" y="843" type="line"/>
      <point x="212" y="874"/>
      <point x="315" y="887"/>
      <point x="449" y="891" type="curve"/>
      <point x="574" y="887"/>
      <point x="664" y="876"/>
      <point x="759" y="843" type="curve"/>
      <point x="789" y="890"/>
      <point x="816" y="946"/>
    </contour>
  </outline>
</glyph>
<glyph name="perthousand" format="2">
  <advance width="1909"/>
  <unicode hex="2030"/>
  <outline>
    <contour>
      <point x="1839" y="284" type="curve"/>
      <point x="1839" y="456"/>
      <point x="1738" y="595"/>
      <point x="1592" y="595" type="curve" smooth="yes"/>
      <point x="1452" y="595"/>
      <point x="1322" y="454"/>
      <point x="1322" y="284" type="curve" smooth="yes"/>
      <point x="1322" y="115"/>
      <point x="1424" y="-28"/>
      <point x="1569" y="-28" type="curve" smooth="yes"/>
      <point x="1713" y="-28"/>
      <point x="1839" y="115"/>
    </contour>
    <contour>
      <point x="1230" y="284" type="curve"/>
      <point x="1230" y="456"/>
      <point x="1132" y="595"/>
      <point x="985" y="595" type="curve" smooth="yes"/>
      <point x="844" y="595"/>
      <point x="715" y="454"/>
      <point x="715" y="284" type="curve" smooth="yes"/>
      <point x="715" y="115"/>
      <point x="817" y="-28"/>
      <point x="960" y="-28" type="curve" smooth="yes"/>
      <point x="1104" y="-28"/>
      <point x="1230" y="115"/>
    </contour>
    <contour>
      <point x="329" y="14" type="curve"/>
      <point x="1119" y="1107" type="line"/>
      <point x="1092" y="1138" type="line"/>
      <point x="1055" y="1128"/>
      <point x="1004" y="1113"/>
      <point x="970" y="1092" type="curve"/>
      <point x="183" y="0" type="line"/>
      <point x="205" y="-32" type="line"/>
      <point x="235" y="-23"/>
      <point x="307" y="-1"/>
    </contour>
    <contour>
      <point x="586" y="825" type="curve"/>
      <point x="586" y="996"/>
      <point x="485" y="1136"/>
      <point x="339" y="1136" type="curve" smooth="yes"/>
      <point x="197" y="1136"/>
      <point x="69" y="994"/>
      <point x="69" y="825" type="curve" smooth="yes"/>
      <point x="69" y="655"/>
      <point x="171" y="512"/>
      <point x="314" y="512" type="curve" smooth="yes"/>
      <point x="460" y="512"/>
      <point x="586" y="655"/>
    </contour>
    <contour>
      <point x="1704" y="265" type="curve"/>
      <point x="1704" y="122"/>
      <point x="1652" y="46"/>
      <point x="1592" y="46" type="curve" smooth="yes"/>
      <point x="1513" y="46"/>
      <point x="1456" y="127"/>
      <point x="1456" y="305" type="curve" smooth="yes"/>
      <point x="1456" y="449"/>
      <point x="1513" y="519"/>
      <point x="1569" y="519" type="curve" smooth="yes"/>
      <point x="1639" y="519"/>
      <point x="1704" y="438"/>
    </contour>
    <contour>
      <point x="1098" y="265" type="curve"/>
      <point x="1098" y="122"/>
      <point x="1046" y="46"/>
      <point x="985" y="46" type="curve" smooth="yes"/>
      <point x="906" y="46"/>
      <point x="850" y="127"/>
      <point x="850" y="305" type="curve" smooth="yes"/>
      <point x="850" y="449"/>
      <point x="906" y="519"/>
      <point x="960" y="519" type="curve" smooth="yes"/>
      <point x="1032" y="519"/>
      <point x="1098" y="438"/>
    </contour>
    <contour>
      <point x="452" y="806" type="curve"/>
      <point x="452" y="663"/>
      <point x="399" y="587"/>
      <point x="339" y="587" type="curve" smooth="yes"/>
      <point x="260" y="587"/>
      <point x="203" y="668"/>
      <point x="203" y="846" type="curve" smooth="yes"/>
      <point x="203" y="990"/>
      <point x="260" y="1060"/>
      <point x="314" y="1060" type="curve" smooth="yes"/>
      <point x="386" y="1060"/>
      <point x="452" y="981"/>
    </contour>
  </outline>
</glyph>
<glyph name="foursuperior" format="2">
  <advance width="619"/>
  <unicode hex="2074"/>
  <anchor x="366" y="496" name="L"/>
  <anchor x="366" y="1329" name="U"/>
  <outline>
    <contour>
      <point x="544" y="788"/>
      <point x="563" y="812" type="curve"/>
      <point x="546" y="829" type="line"/>
      <point x="476" y="829" type="line"/>
      <point x="476" y="1238" type="line"/>
      <point x="452" y="1257" type="line"/>
      <point x="426" y="1246"/>
      <point x="383" y="1231"/>
      <point x="348" y="1218" type="curve"/>
      <point x="26" y="777" type="line"/>
      <point x="47" y="759" type="line"/>
      <point x="368" y="759" type="line"/>
      <point x="368" y="643" type="line" smooth="yes"/>
      <point x="368" y="630"/>
      <point x="353" y="619"/>
      <point x="241" y="603" type="curve"/>
      <point x="241" y="570" type="line"/>
      <point x="556" y="570" type="line"/>
      <point x="556" y="603" type="line"/>
      <point x="485" y="617"/>
      <point x="476" y="625"/>
      <point x="476" y="636" type="curve" smooth="yes"/>
      <point x="476" y="759" type="line"/>
      <point x="511" y="759" type="line"/>
      <point x="530" y="771"/>
    </contour>
    <contour>
      <point x="368" y="1135" type="line"/>
      <point x="368" y="829" type="line"/>
      <point x="137" y="829" type="line"/>
    </contour>
  </outline>
</glyph>
<glyph name="Euro" format="2">
  <advance width="884"/>
  <unicode hex="20AC"/>
  <outline>
    <contour>
      <point x="703" y="26"/>
      <point x="851" y="194" type="curve"/>
      <point x="843" y="201"/>
      <point x="829" y="230"/>
      <point x="816" y="235" type="curve"/>
      <point x="690" y="122"/>
      <point x="627" y="82"/>
      <point x="552" y="82" type="curve" smooth="yes"/>
      <point x="404" y="82"/>
      <point x="266" y="204"/>
      <point x="266" y="550" type="curve" smooth="yes"/>
      <point x="266" y="948"/>
      <point x="406" y="1035"/>
      <point x="505" y="1035" type="curve" smooth="yes"/>
      <point x="616" y="1035"/>
      <point x="656" y="993"/>
      <point x="718" y="936" type="curve"/>
      <point x="750" y="931" type="line"/>
      <point x="779" y="959"/>
      <point x="847" y="1033"/>
      <point x="833" y="1044" type="curve" smooth="yes"/>
      <point x="770" y="1094"/>
      <point x="704" y="1136"/>
      <point x="582" y="1136" type="curve" smooth="yes"/>
      <point x="308" y="1136"/>
      <point x="124" y="922"/>
      <point x="124" y="516" type="curve" smooth="yes"/>
      <point x="124" y="141"/>
      <point x="286" y="-27"/>
      <point x="485" y="-27" type="curve" smooth="yes"/>
      <point x="621" y="-27"/>
    </contour>
    <contour>
      <point x="575" y="429" type="line"/>
      <point x="598" y="491" type="line"/>
      <point x="575" y="512" type="line"/>
      <point x="42" y="512" type="line"/>
      <point x="34" y="493"/>
      <point x="27" y="471"/>
      <point x="22" y="452" type="curve"/>
      <point x="42" y="429" type="line"/>
    </contour>
    <contour>
      <point x="602" y="632" type="line"/>
      <point x="625" y="693" type="line"/>
      <point x="602" y="714" type="line"/>
      <point x="69" y="714" type="line"/>
      <point x="62" y="695"/>
      <point x="55" y="673"/>
      <point x="49" y="655" type="curve"/>
      <point x="69" y="632" type="line"/>
    </contour>
  </outline>
</glyph>
<glyph name="trademark" format="2">
  <advance width="1053"/>
  <unicode hex="2122"/>
  <outline>
    <contour>
      <point x="990" y="1136" type="curve"/>
      <point x="990" y="1159" type="line"/>
      <point x="885" y="1159" type="line" smooth="yes"/>
      <point x="875" y="1159"/>
      <point x="874" y="1156"/>
      <point x="862" y="1130" type="curve"/>
      <point x="731" y="843" type="line"/>
      <point x="593" y="1130" type="line" smooth="yes"/>
      <point x="582" y="1154"/>
      <point x="580" y="1159"/>
      <point x="571" y="1159" type="curve" smooth="yes"/>
      <point x="465" y="1159" type="line"/>
      <point x="465" y="1136" type="line"/>
      <point x="478" y="1136"/>
      <point x="495" y="1135"/>
      <point x="512" y="1127" type="curve"/>
      <point x="508" y="785" type="line" smooth="yes"/>
      <point x="508" y="780"/>
      <point x="494" y="770"/>
      <point x="461" y="764" type="curve"/>
      <point x="461" y="742" type="line"/>
      <point x="604" y="742" type="line"/>
      <point x="604" y="764" type="line"/>
      <point x="571" y="770"/>
      <point x="557" y="780"/>
      <point x="557" y="785" type="curve" smooth="yes"/>
      <point x="560" y="1066" type="line"/>
      <point x="710" y="742" type="line"/>
      <point x="736" y="742" type="line"/>
      <point x="884" y="1068" type="line"/>
      <point x="887" y="785" type="line" smooth="yes"/>
      <point x="887" y="780"/>
      <point x="868" y="770"/>
      <point x="836" y="764" type="curve"/>
      <point x="836" y="742" type="line"/>
      <point x="998" y="742" type="line"/>
      <point x="998" y="764" type="line"/>
      <point x="965" y="770"/>
      <point x="951" y="780"/>
      <point x="951" y="785" type="curve" smooth="yes"/>
      <point x="947" y="1128" type="line"/>
      <point x="962" y="1133"/>
      <point x="977" y="1136"/>
    </contour>
    <contour>
      <point x="160" y="742" type="line"/>
      <point x="335" y="742" type="line"/>
      <point x="335" y="764" type="line"/>
      <point x="289" y="774"/>
      <point x="280" y="783"/>
      <point x="280" y="789" type="curve" smooth="yes"/>
      <point x="280" y="1121" type="line"/>
      <point x="377" y="1121" type="line" smooth="yes"/>
      <point x="397" y="1121"/>
      <point x="401" y="1100"/>
      <point x="410" y="1062" type="curve"/>
      <point x="425" y="1062" type="line"/>
      <point x="433" y="1081"/>
      <point x="435" y="1128"/>
      <point x="437" y="1150" type="curve"/>
      <point x="425" y="1159" type="line"/>
      <point x="66" y="1159" type="line"/>
      <point x="60" y="1141"/>
      <point x="54" y="1087"/>
      <point x="54" y="1068" type="curve"/>
      <point x="71" y="1062" type="line"/>
      <point x="92" y="1113"/>
      <point x="97" y="1121"/>
      <point x="113" y="1121" type="curve" smooth="yes"/>
      <point x="214" y="1121" type="line"/>
      <point x="214" y="789" type="line" smooth="yes"/>
      <point x="214" y="782"/>
      <point x="203" y="774"/>
      <point x="160" y="764" type="curve"/>
    </contour>
  </outline>
</glyph>
<glyph name="Delta" format="2">
  <advance width="1080"/>
  <unicode hex="2206"/>
  <outline>
    <contour>
      <point x="987" y="0" type="line"/>
      <point x="1006" y="46" type="line"/>
      <point x="1006" y="46"/>
      <point x="691" y="850"/>
      <point x="563" y="1211" type="curve"/>
      <point x="531" y="1194"/>
      <point x="483" y="1168"/>
      <point x="456" y="1138" type="curve"/>
      <point x="345" y="817"/>
      <point x="54" y="46"/>
      <point x="54" y="46" type="curve"/>
      <point x="68" y="0" type="line"/>
    </contour>
    <contour>
      <point x="810" y="152" type="curve"/>
      <point x="827" y="105"/>
      <point x="828" y="105"/>
      <point x="708" y="105" type="curve" smooth="yes"/>
      <point x="305" y="105" type="line" smooth="yes"/>
      <point x="188" y="105"/>
      <point x="188" y="105"/>
      <point x="205" y="152" type="curve"/>
      <point x="205" y="152"/>
      <point x="391" y="654"/>
      <point x="503" y="965" type="curve"/>
      <point x="604" y="688"/>
      <point x="810" y="152"/>
    </contour>
  </outline>
</glyph>
<glyph name="radical" format="2">
  <advance width="1112"/>
  <unicode hex="221A"/>
  <outline>
    <contour>
      <point x="1138" y="1312" type="curve"/>
      <point x="1115" y="1335" type="line"/>
      <point x="917" y="1335" type="line"/>
      <point x="597" y="172" type="line"/>
      <point x="272" y="855" type="line"/>
      <point x="47" y="854" type="line"/>
      <point x="36" y="829"/>
      <point x="25" y="798"/>
      <point x="19" y="773" type="curve"/>
      <point x="42" y="748" type="line"/>
      <point x="168" y="748" type="line"/>
      <point x="534" y="-27" type="line"/>
      <point x="566" y="-20"/>
      <point x="637" y="0"/>
      <point x="658" y="54" type="curve"/>
      <point x="975" y="1230" type="line"/>
      <point x="1112" y="1230" type="line"/>
      <point x="1119" y="1253"/>
      <point x="1132" y="1287"/>
    </contour>
  </outline>
</glyph>
